UbuntuSans-Italic.ufo
<glyph name="numbersign" format="2">
  <advance width="637"/>
  <unicode hex="0023"/>
  <outline>
    <contour>
      <point x="34" y="0" type="line"/>
      <point x="104" y="0" type="line"/>
      <point x="183" y="187" type="line"/>
      <point x="351" y="187" type="line"/>
      <point x="271" y="0" type="line"/>
      <point x="341" y="0" type="line"/>
      <point x="421" y="187" type="line"/>
      <point x="563" y="187" type="line"/>
      <point x="579" y="248" type="line"/>
      <point x="446" y="248" type="line"/>
      <point x="530" y="444" type="line"/>
      <point x="625" y="444" type="line"/>
      <point x="640" y="505" type="line"/>
      <point x="556" y="505" type="line"/>
      <point x="637" y="693" type="line"/>
      <point x="567" y="693" type="line"/>
      <point x="487" y="505" type="line"/>
      <point x="321" y="505" type="line"/>
      <point x="402" y="693" type="line"/>
      <point x="332" y="693" type="line"/>
      <point x="251" y="505" type="line"/>
      <point x="104" y="505" type="line"/>
      <point x="90" y="444" type="line"/>
      <point x="225" y="444" type="line"/>
      <point x="141" y="248" type="line"/>
      <point x="43" y="248" type="line"/>
      <point x="28" y="187" type="line"/>
      <point x="114" y="187" type="line"/>
    </contour>
    <contour>
      <point x="210" y="248" type="line"/>
      <point x="294" y="444" type="line"/>
      <point x="461" y="444" type="line"/>
      <point x="377" y="248" type="line"/>
    </contour>
  </outline>
</glyph>
<glyph name="dollar" format="2">
  <advance width="564"/>
  <unicode hex="0024"/>
  <outline>
    <contour>
      <point x="158" y="-109" type="line"/>
      <point x="225" y="-109" type="line"/>
      <point x="257" y="23" type="line"/>
      <point x="380" y="36"/>
      <point x="465" y="104"/>
      <point x="465" y="217" type="curve" smooth="yes"/>
      <point x="465" y="322"/>
      <point x="383" y="352"/>
      <point x="314" y="386" type="curve" smooth="yes"/>
      <point x="264" y="411"/>
      <point x="226" y="436"/>
      <point x="226" y="490" type="curve" smooth="yes"/>
      <point x="226" y="564"/>
      <point x="295" y="596"/>
      <point x="379" y="596" type="curve" smooth="yes"/>
      <point x="447" y="596"/>
      <point x="489" y="575"/>
      <point x="507" y="563" type="curve"/>
      <point x="543" y="623" type="line"/>
      <point x="520" y="639"/>
      <point x="471" y="659"/>
      <point x="411" y="663" type="curve"/>
      <point x="438" y="776" type="line"/>
      <point x="371" y="776" type="line"/>
      <point x="343" y="659" type="line"/>
      <point x="222" y="643"/>
      <point x="154" y="579"/>
      <point x="154" y="481" type="curve" smooth="yes"/>
      <point x="154" y="392"/>
      <point x="212" y="354"/>
      <point x="275" y="324" type="curve" smooth="yes"/>
      <point x="335" y="295"/>
      <point x="391" y="273"/>
      <point x="391" y="210" type="curve" smooth="yes"/>
      <point x="391" y="117"/>
      <point x="302" y="85"/>
      <point x="216" y="85" type="curve" smooth="yes"/>
      <point x="140" y="85"/>
      <point x="89" y="114"/>
      <point x="67" y="127" type="curve"/>
      <point x="32" y="67" type="line"/>
      <point x="54" y="51"/>
      <point x="129" y="23"/>
      <point x="190" y="24" type="curve"/>
    </contour>
  </outline>
</glyph>
<glyph name="ampersand" format="2">
  <advance width="647"/>
  <unicode hex="0026"/>
  <outline>
    <contour>
      <point x="215" y="-9" type="curve" smooth="yes"/>
      <point x="299" y="-9"/>
      <point x="379" y="25"/>
      <point x="447" y="86" type="curve"/>
      <point x="467" y="57"/>
      <point x="484" y="29"/>
      <point x="495" y="0" type="curve"/>
      <point x="572" y="0" type="line"/>
      <point x="551" y="52"/>
      <point x="526" y="93"/>
      <point x="496" y="135" type="curve"/>
      <point x="539" y="185"/>
      <point x="576" y="247"/>
      <point x="603" y="319" type="curve"/>
      <point x="535" y="327" type="line"/>
      <point x="512" y="272"/>
      <point x="486" y="226"/>
      <point x="456" y="189" type="curve"/>
      <point x="331" y="361" type="line"/>
      <point x="343" y="367" type="line" smooth="yes"/>
      <point x="491" y="438"/>
      <point x="525" y="509"/>
      <point x="525" y="579" type="curve" smooth="yes"/>
      <point x="525" y="651"/>
      <point x="471" y="708"/>
      <point x="386" y="708" type="curve" smooth="yes"/>
      <point x="264" y="708"/>
      <point x="186" y="623"/>
      <point x="186" y="519" type="curve" smooth="yes"/>
      <point x="186" y="474"/>
      <point x="200" y="427"/>
      <point x="231" y="380" type="curve"/>
      <point x="223" y="376" type="line"/>
      <point x="84" y="315"/>
      <point x="38" y="243"/>
      <point x="38" y="157" type="curve" smooth="yes"/>
      <point x="38" y="68"/>
      <point x="101" y="-9"/>
    </contour>
    <contour>
      <point x="222" y="57" type="curve" smooth="yes"/>
      <point x="139" y="57"/>
      <point x="113" y="116"/>
      <point x="113" y="167" type="curve" smooth="yes"/>
      <point x="113" y="252"/>
      <point x="188" y="295"/>
      <point x="257" y="327" type="curve"/>
      <point x="266" y="331" type="line"/>
      <point x="409" y="138" type="line"/>
      <point x="349" y="83"/>
      <point x="282" y="57"/>
    </contour>
    <contour>
      <point x="296" y="407" type="line"/>
      <point x="271" y="444"/>
      <point x="257" y="487"/>
      <point x="257" y="525" type="curve" smooth="yes"/>
      <point x="257" y="592"/>
      <point x="297" y="646"/>
      <point x="380" y="646" type="curve" smooth="yes"/>
      <point x="422" y="646"/>
      <point x="455" y="621"/>
      <point x="455" y="573" type="curve" smooth="yes"/>
      <point x="455" y="520"/>
      <point x="432" y="467"/>
      <point x="303" y="411" type="curve"/>
    </contour>
  </outline>
</glyph>
<glyph name="parenright" format="2">
  <advance width="318"/>
  <unicode hex="0029"/>
  <outline>
    <contour>
      <point x="-31" y="-186" type="line"/>
      <point x="162" y="-14"/>
      <point x="270" y="230"/>
      <point x="270" y="469" type="curve" smooth="yes"/>
      <point x="270" y="577"/>
      <point x="248" y="678"/>
      <point x="202" y="780" type="curve"/>
      <point x="143" y="749" type="line"/>
      <point x="181" y="659"/>
      <point x="199" y="557"/>
      <point x="199" y="462" type="curve" smooth="yes"/>
      <point x="199" y="236"/>
      <point x="97" y="16"/>
      <point x="-82" y="-149" type="curve"/>
    </contour>
  </outline>
</glyph>
<glyph name="comma" format="2">
  <advance width="249"/>
  <unicode hex="002C"/>
  <outline>
    <contour>
      <point x="0" y="-158" type="line"/>
      <point x="59" y="-92"/>
      <point x="114" y="10"/>
      <point x="129" y="101" type="curve"/>
      <point x="49" y="101" type="line"/>
      <point x="42" y="41"/>
      <point x="6" y="-65"/>
      <point x="-48" y="-133" type="curve"/>
    </contour>
  </outline>
</glyph>
<glyph name="five" format="2">
  <advance width="564"/>
  <unicode hex="0035"/>
  <outline>
    <contour>
      <point x="184" y="-15" type="curve" smooth="yes"/>
      <point x="335" y="-15"/>
      <point x="463" y="68"/>
      <point x="463" y="229" type="curve" smooth="yes"/>
      <point x="463" y="349"/>
      <point x="372" y="412"/>
      <point x="233" y="424" type="curve"/>
      <point x="252" y="479"/>
      <point x="281" y="570"/>
      <point x="298" y="628" type="curve"/>
      <point x="542" y="628" type="line"/>
      <point x="557" y="693" type="line"/>
      <point x="247" y="693" type="line"/>
      <point x="217" y="575"/>
      <point x="188" y="486"/>
      <point x="146" y="367" type="curve"/>
      <point x="220" y="364"/>
      <point x="384" y="358"/>
      <point x="384" y="220" type="curve" smooth="yes"/>
      <point x="384" y="108"/>
      <point x="285" y="53"/>
      <point x="180" y="53" type="curve" smooth="yes"/>
      <point x="133" y="53"/>
      <point x="85" y="65"/>
      <point x="45" y="88" type="curve"/>
      <point x="15" y="22" type="line"/>
      <point x="68" y="-3"/>
      <point x="129" y="-15"/>
    </contour>
  </outline>
</glyph>
<glyph name="question" format="2">
  <advance width="382"/>
  <unicode hex="003F"/>
  <outline>
    <contour>
      <point x="102" y="214" type="curve"/>
      <point x="166" y="214" type="line"/>
      <point x="167" y="285"/>
      <point x="225" y="332"/>
      <point x="285" y="380" type="curve" smooth="yes"/>
      <point x="350" y="433"/>
      <point x="418" y="485"/>
      <point x="418" y="574" type="curve" smooth="yes"/>
      <point x="418" y="672"/>
      <point x="347" y="708"/>
      <point x="266" y="708" type="curve" smooth="yes"/>
      <point x="215" y="708"/>
      <point x="160" y="694"/>
      <point x="119" y="674" type="curve"/>
      <point x="128" y="612" type="line"/>
      <point x="161" y="628"/>
      <point x="209" y="642"/>
      <point x="252" y="642" type="curve" smooth="yes"/>
      <point x="299" y="642"/>
      <point x="340" y="624"/>
      <point x="340" y="568" type="curve" smooth="yes"/>
      <point x="340" y="518"/>
      <point x="313" y="482"/>
      <point x="239" y="426" type="curve" smooth="yes"/>
      <point x="158" y="362"/>
      <point x="104" y="309"/>
    </contour>
    <contour>
      <point x="114" y="-12" type="curve" smooth="yes"/>
      <point x="152" y="-12"/>
      <point x="176" y="21"/>
      <point x="176" y="54" type="curve" smooth="yes"/>
      <point x="176" y="82"/>
      <point x="159" y="105"/>
      <point x="122" y="105" type="curve" smooth="yes"/>
      <point x="85" y="105"/>
      <point x="61" y="72"/>
      <point x="61" y="40" type="curve" smooth="yes"/>
      <point x="61" y="11"/>
      <point x="78" y="-12"/>
    </contour>
  </outline>
</glyph>
<glyph name="at" format="2">
  <advance width="939"/>
  <unicode hex="0040"/>
  <outline>
    <contour>
      <point x="401" y="-154" type="curve" smooth="yes"/>
      <point x="447" y="-154"/>
      <point x="498" y="-147"/>
      <point x="548" y="-134" type="curve"/>
      <point x="553" y="-74" type="line"/>
      <point x="503" y="-86"/>
      <point x="454" y="-92"/>
      <point x="411" y="-92" type="curve" smooth="yes"/>
      <point x="236" y="-92"/>
      <point x="130" y="5"/>
      <point x="130" y="185" type="curve" smooth="yes"/>
      <point x="130" y="485"/>
      <point x="343" y="647"/>
      <point x="558" y="647" type="curve" smooth="yes"/>
      <point x="720" y="647"/>
      <point x="826" y="565"/>
      <point x="826" y="393" type="curve" smooth="yes"/>
      <point x="826" y="273"/>
      <point x="778" y="117"/>
      <point x="656" y="117" type="curve" smooth="yes"/>
      <point x="618" y="117"/>
      <point x="614" y="132"/>
      <point x="614" y="146" type="curve" smooth="yes"/>
      <point x="614" y="157"/>
      <point x="619" y="168"/>
      <point x="621" y="179" type="curve"/>
      <point x="695" y="482" type="line"/>
      <point x="671" y="492"/>
      <point x="617" y="506"/>
      <point x="551" y="506" type="curve" smooth="yes"/>
      <point x="382" y="506"/>
      <point x="272" y="381"/>
      <point x="272" y="217" type="curve" smooth="yes"/>
      <point x="272" y="107"/>
      <point x="340" y="53"/>
      <point x="436" y="53" type="curve" smooth="yes"/>
      <point x="481" y="53"/>
      <point x="529" y="70"/>
      <point x="561" y="92" type="curve"/>
      <point x="573" y="68"/>
      <point x="604" y="55"/>
      <point x="640" y="55" type="curve" smooth="yes"/>
      <point x="758" y="55"/>
      <point x="895" y="158"/>
      <point x="895" y="388" type="curve" smooth="yes"/>
      <point x="895" y="606"/>
      <point x="761" y="709"/>
      <point x="569" y="709" type="curve" smooth="yes"/>
      <point x="298" y="709"/>
      <point x="58" y="521"/>
      <point x="58" y="177" type="curve" smooth="yes"/>
      <point x="58" y="-34"/>
      <point x="199" y="-154"/>
    </contour>
    <contour>
      <point x="442" y="114" type="curve" smooth="yes"/>
      <point x="383" y="114"/>
      <point x="348" y="148"/>
      <point x="348" y="224" type="curve" smooth="yes"/>
      <point x="348" y="349"/>
      <point x="427" y="446"/>
      <point x="543" y="446" type="curve" smooth="yes"/>
      <point x="574" y="446"/>
      <point x="609" y="442"/>
      <point x="613" y="439" type="curve"/>
      <point x="553" y="195" type="line" smooth="yes"/>
      <point x="550" y="182"/>
      <point x="546" y="166"/>
      <point x="546" y="140" type="curve"/>
      <point x="523" y="128"/>
      <point x="496" y="114"/>
    </contour>
  </outline>
</glyph>
<glyph name="C" format="2">
  <advance width="623"/>
  <unicode hex="0043"/>
  <anchor x="305" y="0" name="bottom"/>
  <anchor x="474" y="674" name="top"/>
  <outline>
    <contour>
      <point x="334" y="-15" type="curve" smooth="yes"/>
      <point x="404" y="-15"/>
      <point x="478" y="2"/>
      <point x="532" y="31" type="curve"/>
      <point x="522" y="99" type="line"/>
      <point x="492" y="83"/>
      <point x="439" y="55"/>
      <point x="336" y="55" type="curve" smooth="yes"/>
      <point x="218" y="55"/>
      <point x="160" y="126"/>
      <point x="160" y="259" type="curve" smooth="yes"/>
      <point x="160" y="490"/>
      <point x="305" y="639"/>
      <point x="470" y="639" type="curve" smooth="yes"/>
      <point x="523" y="639"/>
      <point x="573" y="625"/>
      <point x="623" y="596" type="curve"/>
      <point x="656" y="664" type="line"/>
      <point x="600" y="695"/>
      <point x="546" y="708"/>
      <point x="484" y="708" type="curve" smooth="yes"/>
      <point x="265" y="708"/>
      <point x="78" y="533"/>
      <point x="78" y="256" type="curve" smooth="yes"/>
      <point x="78" y="68"/>
      <point x="183" y="-15"/>
    </contour>
  </outline>
</glyph>
<glyph name="D" format="2">
  <advance width="702"/>
  <unicode hex="0044"/>
  <anchor x="226" y="0" name="bottom"/>
  <anchor x="309" y="347" name="center"/>
  <anchor x="394" y="674" name="top"/>
  <outline>
    <contour>
      <point x="196" y="-6" type="curve" smooth="yes"/>
      <point x="500" y="-6"/>
      <point x="662" y="167"/>
      <point x="662" y="416" type="curve" smooth="yes"/>
      <point x="662" y="595"/>
      <point x="563" y="699"/>
      <point x="359" y="699" type="curve" smooth="yes"/>
      <point x="307" y="699"/>
      <point x="254" y="694"/>
      <point x="187" y="680" type="curve"/>
      <point x="28" y="13" type="line"/>
      <point x="71" y="1"/>
      <point x="142" y="-6"/>
    </contour>
    <contour>
      <point x="208" y="61" type="curve" smooth="yes"/>
      <point x="179" y="61"/>
      <point x="150" y="63"/>
      <point x="119" y="67" type="curve"/>
      <point x="252" y="625" type="line"/>
      <point x="285" y="630"/>
      <point x="318" y="633"/>
      <point x="350" y="633" type="curve" smooth="yes"/>
      <point x="507" y="633"/>
      <point x="579" y="558"/>
      <point x="579" y="412" type="curve" smooth="yes"/>
      <point x="579" y="210"/>
      <point x="450" y="61"/>
    </contour>
  </outline>
</glyph>
<glyph name="N" format="2">
  <advance width="690"/>
  <unicode hex="004E"/>
  <anchor x="289" y="0" name="bottom"/>
  <anchor x="441" y="674" name="top"/>
  <outline>
    <contour>
      <point x="24" y="0" type="line"/>
      <point x="101" y="0" type="line"/>
      <point x="241" y="585" type="line"/>
      <point x="321" y="441"/>
      <point x="420" y="162"/>
      <point x="469" y="0" type="curve"/>
      <point x="542" y="0" type="line"/>
      <point x="706" y="693" type="line"/>
      <point x="629" y="693" type="line"/>
      <point x="497" y="128" type="line"/>
      <point x="460" y="272"/>
      <point x="357" y="532"/>
      <point x="263" y="693" type="curve"/>
      <point x="190" y="693" type="line"/>
    </contour>
  </outline>
</glyph>
<glyph name="O" format="2">
  <advance width="760"/>
  <unicode hex="004F"/>
  <anchor x="317" y="0" name="bottom"/>
  <anchor x="376" y="347" name="center"/>
  <anchor x="560" y="10" name="ogonek"/>
  <anchor x="468" y="674" name="top"/>
  <anchor x="61" y="693" name="topleft"/>
  <anchor x="780" y="693" name="topright"/>
  <outline>
    <contour>
      <point x="329" y="-15" type="curve" smooth="yes"/>
      <point x="531" y="-15"/>
      <point x="724" y="165"/>
      <point x="724" y="434" type="curve" smooth="yes"/>
      <point x="724" y="618"/>
      <point x="609" y="708"/>
      <point x="473" y="708" type="curve" smooth="yes"/>
      <point x="271" y="708"/>
      <point x="78" y="528"/>
      <point x="78" y="260" type="curve" smooth="yes"/>
      <point x="78" y="75"/>
      <point x="193" y="-15"/>
    </contour>
    <contour>
      <point x="336" y="54" type="curve" smooth="yes"/>
      <point x="237" y="54"/>
      <point x="160" y="120"/>
      <point x="160" y="252" type="curve" smooth="yes"/>
      <point x="160" y="495"/>
      <point x="308" y="639"/>
      <point x="466" y="639" type="curve" smooth="yes"/>
      <point x="565" y="639"/>
      <point x="642" y="573"/>
      <point x="642" y="442" type="curve" smooth="yes"/>
      <point x="642" y="198"/>
      <point x="494" y="54"/>
    </contour>
  </outline>
</glyph>
<glyph name="R" format="2">
  <advance width="609"/>
  <unicode hex="0052"/>
  <anchor x="264" y="0" name="bottom"/>
  <anchor x="369" y="674" name="top"/>
  <outline>
    <contour>
      <point x="24" y="0" type="line"/>
      <point x="102" y="0" type="line"/>
      <point x="168" y="277" type="line"/>
      <point x="250" y="277" type="line" smooth="yes"/>
      <point x="272" y="277"/>
      <point x="293" y="278"/>
      <point x="313" y="280" type="curve"/>
      <point x="351" y="213"/>
      <point x="398" y="110"/>
      <point x="434" y="0" type="curve"/>
      <point x="517" y="0" type="line"/>
      <point x="486" y="98"/>
      <point x="426" y="234"/>
      <point x="393" y="294" type="curve"/>
      <point x="529" y="330"/>
      <point x="592" y="414"/>
      <point x="592" y="515" type="curve" smooth="yes"/>
      <point x="592" y="629"/>
      <point x="513" y="699"/>
      <point x="353" y="699" type="curve" smooth="yes"/>
      <point x="296" y="699"/>
      <point x="236" y="690"/>
      <point x="187" y="680" type="curve"/>
    </contour>
    <contour>
      <point x="183" y="342" type="line"/>
      <point x="252" y="625" type="line"/>
      <point x="278" y="628"/>
      <point x="311" y="632"/>
      <point x="344" y="632" type="curve" smooth="yes"/>
      <point x="460" y="632"/>
      <point x="512" y="594"/>
      <point x="512" y="515" type="curve" smooth="yes"/>
      <point x="512" y="408"/>
      <point x="424" y="342"/>
      <point x="263" y="342" type="curve" smooth="yes"/>
    </contour>
  </outline>
</glyph>
<glyph name="S" format="2">
  <advance width="505"/>
  <unicode hex="0053"/>
  <anchor x="185" y="0" name="bottom"/>
  <anchor x="355" y="674" name="top"/>
  <outline>
    <contour>
      <point x="173" y="-15" type="curve" smooth="yes"/>
      <point x="363" y="-15"/>
      <point x="448" y="89"/>
      <point x="448" y="199" type="curve" smooth="yes"/>
      <point x="448" y="314"/>
      <point x="371" y="352"/>
      <point x="299" y="388" type="curve" smooth="yes"/>
      <point x="242" y="417"/>
      <point x="191" y="445"/>
      <point x="191" y="515" type="curve" smooth="yes"/>
      <point x="191" y="607"/>
      <point x="271" y="642"/>
      <point x="355" y="642" type="curve" smooth="yes"/>
      <point x="407" y="642"/>
      <point x="453" y="631"/>
      <point x="497" y="603" type="curve"/>
      <point x="536" y="667" type="line"/>
      <point x="479" y="696"/>
      <point x="427" y="708"/>
      <point x="366" y="708" type="curve" smooth="yes"/>
      <point x="192" y="708"/>
      <point x="110" y="608"/>
      <point x="110" y="508" type="curve" smooth="yes"/>
      <point x="110" y="401"/>
      <point x="183" y="362"/>
      <point x="254" y="325" type="curve" smooth="yes"/>
      <point x="311" y="295"/>
      <point x="366" y="266"/>
      <point x="366" y="196" type="curve" smooth="yes"/>
      <point x="366" y="93"/>
      <point x="276" y="52"/>
      <point x="185" y="52" type="curve" smooth="yes"/>
      <point x="125" y="52"/>
      <point x="66" y="74"/>
      <point x="28" y="102" type="curve"/>
      <point x="-11" y="36" type="line"/>
      <point x="39" y="6"/>
      <point x="104" y="-15"/>
    </contour>
  </outline>
</glyph>
<glyph name="V" format="2">
  <advance width="616"/>
  <unicode hex="0056"/>
  <outline>
    <contour>
      <point x="209" y="0" type="curve"/>
      <point x="282" y="0" type="line"/>
      <point x="416" y="181"/>
      <point x="544" y="395"/>
      <point x="705" y="693" type="curve"/>
      <point x="618" y="693" type="line"/>
      <point x="508" y="469"/>
      <point x="386" y="257"/>
      <point x="264" y="88" type="curve"/>
      <point x="234" y="246"/>
      <point x="213" y="430"/>
      <point x="190" y="693" type="curve"/>
      <point x="112" y="693" type="line"/>
      <point x="143" y="366"/>
      <point x="171" y="192"/>
    </contour>
  </outline>
</glyph>
<glyph name="a" format="2">
  <advance width="540"/>
  <unicode hex="0061"/>
  <anchor x="214" y="0" name="bottom"/>
  <anchor x="363" y="10" name="ogonek"/>
  <anchor x="338" y="518" name="top"/>
  <outline>
    <contour>
      <point x="204" y="-13" type="curve" smooth="yes"/>
      <point x="258" y="-13"/>
      <point x="310" y="8"/>
      <point x="355" y="51" type="curve"/>
      <point x="359" y="31"/>
      <point x="365" y="10"/>
      <point x="373" y="-6" type="curve"/>
      <point x="447" y="5" type="line"/>
      <point x="416" y="75"/>
      <point x="421" y="131"/>
      <point x="438" y="200" type="curve" smooth="yes"/>
      <point x="513" y="507" type="line"/>
      <point x="471" y="524"/>
      <point x="424" y="530"/>
      <point x="384" y="530" type="curve" smooth="yes"/>
      <point x="186" y="530"/>
      <point x="40" y="391"/>
      <point x="40" y="181" type="curve" smooth="yes"/>
      <point x="40" y="49"/>
      <point x="114" y="-13"/>
    </contour>
    <contour>
      <point x="214" y="54" type="curve" smooth="yes"/>
      <point x="158" y="54"/>
      <point x="116" y="91"/>
      <point x="116" y="194" type="curve" smooth="yes"/>
      <point x="116" y="329"/>
      <point x="208" y="463"/>
      <point x="364" y="463" type="curve" smooth="yes"/>
      <point x="384" y="463"/>
      <point x="403" y="460"/>
      <point x="426" y="455" type="curve"/>
      <point x="374" y="248" type="line" smooth="yes"/>
      <point x="365" y="211"/>
      <point x="353" y="161"/>
      <point x="352" y="125" type="curve"/>
      <point x="311" y="79"/>
      <point x="266" y="54"/>
    </contour>
  </outline>
</glyph>
<glyph name="c" format="2">
  <advance width="470"/>
  <unicode hex="0063"/>
  <anchor x="203" y="0" name="bottom"/>
  <anchor x="327" y="518" name="top"/>
  <outline>
    <contour>
      <point x="230" y="-12" type="curve" smooth="yes"/>
      <point x="298" y="-12"/>
      <point x="356" y="7"/>
      <point x="383" y="24" type="curve"/>
      <point x="376" y="90" type="line"/>
      <point x="357" y="77"/>
      <point x="299" y="55"/>
      <point x="244" y="55" type="curve" smooth="yes"/>
      <point x="156" y="55"/>
      <point x="119" y="108"/>
      <point x="119" y="194" type="curve" smooth="yes"/>
      <point x="119" y="339"/>
      <point x="209" y="463"/>
      <point x="347" y="463" type="curve" smooth="yes"/>
      <point x="376" y="463"/>
      <point x="406" y="458"/>
      <point x="436" y="446" type="curve"/>
      <point x="466" y="512" type="line"/>
      <point x="432" y="524"/>
      <point x="396" y="530"/>
      <point x="358" y="530" type="curve" smooth="yes"/>
      <point x="159" y="530"/>
      <point x="42" y="368"/>
      <point x="42" y="186" type="curve" smooth="yes"/>
      <point x="42" y="66"/>
      <point x="105" y="-12"/>
    </contour>
  </outline>
</glyph>
<glyph name="d" format="2">
  <advance width="557"/>
  <unicode hex="0064"/>
  <anchor x="154" y="0" name="bottom"/>
  <anchor x="216" y="259" name="center"/>
  <anchor x="340" y="776" name="top"/>
  <anchor x="582" y="776" name="topright"/>
  <outline>
    <contour>
      <point x="205" y="-12" type="curve" smooth="yes"/>
      <point x="283" y="-12"/>
      <point x="335" y="25"/>
      <point x="361" y="51" type="curve"/>
      <point x="364" y="31"/>
      <point x="371" y="7"/>
      <point x="378" y="-6" type="curve"/>
      <point x="453" y="5" type="line"/>
      <point x="426" y="61"/>
      <point x="425" y="121"/>
      <point x="440" y="184" type="curve" smooth="yes"/>
      <point x="582" y="776" type="line"/>
      <point x="504" y="763" type="line"/>
      <point x="448" y="523" type="line"/>
      <point x="426" y="527"/>
      <point x="404" y="530"/>
      <point x="383" y="530" type="curve" smooth="yes"/>
      <point x="153" y="530"/>
      <point x="41" y="352"/>
      <point x="41" y="184" type="curve" smooth="yes"/>
      <point x="41" y="77"/>
      <point x="89" y="-12"/>
    </contour>
    <contour>
      <point x="214" y="55" type="curve" smooth="yes"/>
      <point x="143" y="55"/>
      <point x="117" y="115"/>
      <point x="117" y="193" type="curve" smooth="yes"/>
      <point x="117" y="318"/>
      <point x="196" y="462"/>
      <point x="372" y="462" type="curve" smooth="yes"/>
      <point x="391" y="462"/>
      <point x="413" y="461"/>
      <point x="432" y="458" type="curve"/>
      <point x="380" y="248" type="line" smooth="yes"/>
      <point x="369" y="203"/>
      <point x="358" y="159"/>
      <point x="358" y="124" type="curve"/>
      <point x="328" y="92"/>
      <point x="276" y="55"/>
    </contour>
  </outline>
</glyph>
<glyph name="e" format="2">
  <advance width="504"/>
  <unicode hex="0065"/>
  <anchor x="200" y="0" name="bottom"/>
  <anchor x="331" y="10" name="ogonek"/>
  <anchor x="324" y="518" name="top"/>
  <outline>
    <contour>
      <point x="241" y="-12" type="curve" smooth="yes"/>
      <point x="298" y="-12"/>
      <point x="356" y="3"/>
      <point x="400" y="27" type="curve"/>
      <point x="393" y="93" type="line"/>
      <point x="351" y="67"/>
      <point x="302" y="55"/>
      <point x="256" y="55" type="curve" smooth="yes"/>
      <point x="147" y="55"/>
      <point x="118" y="100"/>
      <point x="115" y="188" type="curve" smooth="yes"/>
      <point x="115" y="193"/>
      <point x="115" y="199"/>
      <point x="115" y="205" type="curve"/>
      <point x="337" y="214"/>
      <point x="488" y="247"/>
      <point x="488" y="396" type="curve" smooth="yes"/>
      <point x="488" y="477"/>
      <point x="433" y="530"/>
      <point x="340" y="530" type="curve" smooth="yes"/>
      <point x="150" y="530"/>
      <point x="41" y="353"/>
      <point x="41" y="181" type="curve" smooth="yes"/>
      <point x="41" y="67"/>
      <point x="92" y="-12"/>
    </contour>
    <contour>
      <point x="124" y="269" type="curve"/>
      <point x="151" y="375"/>
      <point x="230" y="465"/>
      <point x="332" y="465" type="curve" smooth="yes"/>
      <point x="381" y="465"/>
      <point x="414" y="440"/>
      <point x="414" y="390" type="curve" smooth="yes"/>
      <point x="414" y="318"/>
      <point x="345" y="274"/>
    </contour>
  </outline>
</glyph>
<glyph name="l" format="2">
  <advance width="282"/>
  <unicode hex="006C"/>
  <anchor x="81" y="0" name="bottom"/>
  <anchor x="177" y="388" name="center"/>
  <anchor x="231" y="776" name="top"/>
  <anchor x="269" y="776" name="topright"/>
  <outline>
    <contour>
      <point x="187" y="-9" type="curve"/>
      <point x="203" y="55" type="line"/>
      <point x="93" y="78"/>
      <point x="120" y="151"/>
      <point x="143" y="249" type="curve" smooth="yes"/>
      <point x="269" y="776" type="line"/>
      <point x="192" y="763" type="line"/>
      <point x="64" y="230" type="line" smooth="yes"/>
      <point x="34" y="107"/>
      <point x="38" y="7"/>
    </contour>
  </outline>
</glyph>
<glyph name="m" format="2">
  <advance width="834"/>
  <unicode hex="006D"/>
  <outline>
    <contour>
      <point x="24" y="0" type="line"/>
      <point x="98" y="0" type="line"/>
      <point x="206" y="448" type="line"/>
      <point x="234" y="455"/>
      <point x="269" y="461"/>
      <point x="298" y="461" type="curve" smooth="yes"/>
      <point x="356" y="461"/>
      <point x="398" y="439"/>
      <point x="398" y="360" type="curve" smooth="yes"/>
      <point x="398" y="321"/>
      <point x="387" y="277"/>
      <point x="377" y="235" type="curve" smooth="yes"/>
      <point x="321" y="0" type="line"/>
      <point x="396" y="0" type="line"/>
      <point x="458" y="260" type="line" smooth="yes"/>
      <point x="467" y="296"/>
      <point x="473" y="332"/>
      <point x="473" y="366" type="curve" smooth="yes"/>
      <point x="473" y="385"/>
      <point x="471" y="402"/>
      <point x="467" y="418" type="curve"/>
      <point x="525" y="455"/>
      <point x="567" y="461"/>
      <point x="595" y="461" type="curve" smooth="yes"/>
      <point x="653" y="461"/>
      <point x="696" y="439"/>
      <point x="696" y="360" type="curve" smooth="yes"/>
      <point x="696" y="321"/>
      <point x="684" y="277"/>
      <point x="675" y="235" type="curve" smooth="yes"/>
      <point x="619" y="0" type="line"/>
      <point x="693" y="0" type="line"/>
      <point x="756" y="260" type="line" smooth="yes"/>
      <point x="765" y="296"/>
      <point x="770" y="332"/>
      <point x="770" y="366" type="curve" smooth="yes"/>
      <point x="770" y="490"/>
      <point x="700" y="528"/>
      <point x="606" y="528" type="curve" smooth="yes"/>
      <point x="555" y="528"/>
      <point x="506" y="514"/>
      <point x="441" y="476" type="curve"/>
      <point x="411" y="515"/>
      <point x="363" y="528"/>
      <point x="307" y="528" type="curve" smooth="yes"/>
      <point x="248" y="528"/>
      <point x="183" y="512"/>
      <point x="143" y="499" type="curve"/>
    </contour>
  </outline>
</glyph>
<glyph name="o" format="2">
  <advance width="541"/>
  <unicode hex="006F"/>
  <anchor x="211" y="0" name="bottom"/>
  <anchor x="273" y="259" name="center"/>
  <anchor x="364" y="10" name="ogonek"/>
  <anchor x="335" y="518" name="top"/>
  <anchor x="520" y="518" name="topright"/>
  <outline>
    <contour>
      <point x="218" y="-12" type="curve" smooth="yes"/>
      <point x="356" y="-12"/>
      <point x="505" y="111"/>
      <point x="505" y="351" type="curve" smooth="yes"/>
      <point x="505" y="466"/>
      <point x="426" y="529"/>
      <point x="327" y="529" type="curve" smooth="yes"/>
      <point x="191" y="529"/>
      <point x="40" y="406"/>
      <point x="40" y="167" type="curve" smooth="yes"/>
      <point x="40" y="51"/>
      <point x="120" y="-12"/>
    </contour>
    <contour>
      <point x="223" y="54" type="curve" smooth="yes"/>
      <point x="163" y="54"/>
      <point x="116" y="95"/>
      <point x="116" y="172" type="curve" smooth="yes"/>
      <point x="116" y="363"/>
      <point x="228" y="463"/>
      <point x="322" y="463" type="curve" smooth="yes"/>
      <point x="383" y="463"/>
      <point x="430" y="422"/>
      <point x="430" y="345" type="curve" smooth="yes"/>
      <point x="430" y="154"/>
      <point x="317" y="54"/>
    </contour>
  </outline>
</glyph>
<glyph name="r" format="2">
  <advance width="382"/>
  <unicode hex="0072"/>
  <anchor x="59" y="0" name="bottom"/>
  <anchor x="283" y="518" name="top"/>
  <outline>
    <contour>
      <point x="23" y="0" type="line"/>
      <point x="97" y="0" type="line"/>
      <point x="205" y="447" type="line"/>
      <point x="237" y="457"/>
      <point x="270" y="463"/>
      <point x="304" y="463" type="curve" smooth="yes"/>
      <point x="333" y="463"/>
      <point x="359" y="458"/>
      <point x="386" y="450" type="curve"/>
      <point x="406" y="516" type="line"/>
      <point x="380" y="526"/>
      <point x="349" y="530"/>
      <point x="319" y="530" type="curve" smooth="yes"/>
      <point x="257" y="530"/>
      <point x="192" y="514"/>
      <point x="141" y="494" type="curve"/>
    </contour>
  </outline>
</glyph>
<glyph name="u" format="2">
  <advance width="539"/>
  <unicode hex="0075"/>
  <anchor x="187" y="0" name="bottom"/>
  <anchor x="362" y="10" name="ogonek"/>
  <anchor x="311" y="518" name="top"/>
  <anchor x="518" y="518" name="topright"/>
  <outline>
    <contour>
      <point x="193" y="-12" type="curve" smooth="yes"/>
      <point x="255" y="-12"/>
      <point x="307" y="8"/>
      <point x="352" y="52" type="curve"/>
      <point x="356" y="31"/>
      <point x="362" y="10"/>
      <point x="370" y="-6" type="curve"/>
      <point x="444" y="5" type="line"/>
      <point x="413" y="75"/>
      <point x="417" y="131"/>
      <point x="434" y="200" type="curve" smooth="yes"/>
      <point x="512" y="518" type="line"/>
      <point x="438" y="518" type="line"/>
      <point x="371" y="248" type="line" smooth="yes"/>
      <point x="362" y="211"/>
      <point x="349" y="161"/>
      <point x="349" y="125" type="curve"/>
      <point x="308" y="79"/>
      <point x="264" y="55"/>
      <point x="204" y="55" type="curve" smooth="yes"/>
      <point x="80" y="55"/>
      <point x="111" y="172"/>
      <point x="138" y="284" type="curve" smooth="yes"/>
      <point x="195" y="518" type="line"/>
      <point x="120" y="518" type="line"/>
      <point x="57" y="258" type="line" smooth="yes"/>
      <point x="23" y="119"/>
      <point x="28" y="-12"/>
    </contour>
  </outline>
</glyph>
<glyph name="v" format="2">
  <advance width="475"/>
  <unicode hex="0076"/>
  <outline>
    <contour>
      <point x="139" y="0" type="curve"/>
      <point x="210" y="0" type="line"/>
      <point x="325" y="137"/>
      <point x="453" y="347"/>
      <point x="507" y="518" type="curve"/>
      <point x="433" y="518" type="line"/>
      <point x="390" y="382"/>
      <point x="274" y="183"/>
      <point x="196" y="79" type="curve"/>
      <point x="167" y="195"/>
      <point x="148" y="379"/>
      <point x="146" y="518" type="curve"/>
      <point x="71" y="518" type="line"/>
      <point x="75" y="330"/>
      <point x="106" y="145"/>
    </contour>
  </outline>
</glyph>
<glyph name="z" format="2">
  <advance width="449"/>
  <unicode hex="007A"/>
  <anchor x="157" y="0" name="bottom"/>
  <anchor x="219" y="259" name="center"/>
  <anchor x="281" y="518" name="top"/>
  <outline>
    <contour>
      <point x="-16" y="0" type="line"/>
      <point x="360" y="0" type="line"/>
      <point x="374" y="64" type="line"/>
      <point x="85" y="64" type="line"/>
      <point x="152" y="161"/>
      <point x="383" y="388"/>
      <point x="466" y="462" type="curve"/>
      <point x="479" y="518" type="line"/>
      <point x="120" y="518" type="line"/>
      <point x="106" y="455" type="line"/>
      <point x="368" y="455" type="line"/>
      <point x="274" y="371"/>
      <point x="78" y="177"/>
      <point x="-4" y="51" type="curve"/>
    </contour>
  </outline>
</glyph>
<glyph name="yen" format="2">
  <advance width="564"/>
  <unicode hex="00A5"/>
  <outline>
    <contour>
      <point x="174" y="0" type="line"/>
      <point x="250" y="0" type="line"/>
      <point x="278" y="115" type="line"/>
      <point x="443" y="115" type="line"/>
      <point x="457" y="172" type="line"/>
      <point x="292" y="172" type="line"/>
      <point x="318" y="286" type="line"/>
      <point x="484" y="286" type="line"/>
      <point x="498" y="343" type="line"/>
      <point x="348" y="343" type="line"/>
      <point x="464" y="466"/>
      <point x="547" y="578"/>
      <point x="630" y="693" type="curve"/>
      <point x="554" y="693" type="line"/>
      <point x="477" y="588"/>
      <point x="394" y="482"/>
      <point x="302" y="379" type="curve"/>
      <point x="258" y="483"/>
      <point x="227" y="582"/>
      <point x="204" y="693" type="curve"/>
      <point x="125" y="693" type="line"/>
      <point x="153" y="581"/>
      <point x="192" y="465"/>
      <point x="241" y="343" type="curve"/>
      <point x="93" y="343" type="line"/>
      <point x="79" y="286" type="line"/>
      <point x="243" y="286" type="line"/>
      <point x="216" y="172" type="line"/>
      <point x="52" y="172" type="line"/>
      <point x="38" y="115" type="line"/>
      <point x="202" y="115" type="line"/>
    </contour>
  </outline>
</glyph>
<glyph name="copyright" format="2">
  <advance width="769"/>
  <unicode hex="00A9"/>
  <outline>
    <contour>
      <point x="400" y="-15" type="curve" smooth="yes"/>
      <point x="580" y="-15"/>
      <point x="740" y="119"/>
      <point x="740" y="347" type="curve"/>
      <point x="740" y="575"/>
      <point x="580" y="708"/>
      <point x="400" y="708" type="curve"/>
      <point x="221" y="708"/>
      <point x="60" y="575"/>
      <point x="60" y="347" type="curve" smooth="yes"/>
      <point x="60" y="119"/>
      <point x="221" y="-15"/>
    </contour>
    <contour>
      <point x="407" y="144" type="curve"/>
      <point x="471" y="144"/>
      <point x="517" y="165"/>
      <point x="534" y="175" type="curve"/>
      <point x="515" y="228" type="line"/>
      <point x="500" y="219"/>
      <point x="469" y="203"/>
      <point x="414" y="203" type="curve" smooth="yes"/>
      <point x="336" y="203"/>
      <point x="289" y="256"/>
      <point x="289" y="349" type="curve" smooth="yes"/>
      <point x="289" y="439"/>
      <point x="341" y="491"/>
      <point x="411" y="491" type="curve" smooth="yes"/>
      <point x="462" y="491"/>
      <point x="490" y="476"/>
      <point x="510" y="465" type="curve"/>
      <point x="530" y="515" type="line"/>
      <point x="515" y="525"/>
      <point x="475" y="549"/>
      <point x="410" y="549" type="curve" smooth="yes"/>
      <point x="311" y="549"/>
      <point x="223" y="475"/>
      <point x="223" y="348" type="curve" smooth="yes"/>
      <point x="223" y="218"/>
      <point x="301" y="144"/>
    </contour>
    <contour>
      <point x="400" y="43" type="curve" smooth="yes"/>
      <point x="239" y="43"/>
      <point x="124" y="165"/>
      <point x="124" y="347" type="curve"/>
      <point x="124" y="529"/>
      <point x="239" y="650"/>
      <point x="400" y="650" type="curve" smooth="yes"/>
      <point x="561" y="650"/>
      <point x="676" y="529"/>
      <point x="676" y="347" type="curve"/>
      <point x="676" y="165"/>
      <point x="561" y="43"/>
    </contour>
  </outline>
</glyph>
<glyph name="ordfeminine" format="2">
  <advance width="448"/>
  <unicode hex="00AA"/>
  <outline>
    <contour>
      <point x="239" y="329" type="curve" smooth="yes"/>
      <point x="288" y="329"/>
      <point x="322" y="344"/>
      <point x="347" y="359" type="curve"/>
      <point x="351" y="347"/>
      <point x="355" y="338"/>
      <point x="363" y="326" type="curve"/>
      <point x="422" y="336" type="line"/>
      <point x="392" y="386"/>
      <point x="387" y="429"/>
      <point x="407" y="499" type="curve" smooth="yes"/>
      <point x="461" y="686" type="line"/>
      <point x="437" y="698"/>
      <point x="397" y="704"/>
      <point x="377" y="704" type="curve" smooth="yes"/>
      <point x="211" y="704"/>
      <point x="121" y="576"/>
      <point x="121" y="460" type="curve" smooth="yes"/>
      <point x="121" y="379"/>
      <point x="161" y="329"/>
    </contour>
    <contour>
      <point x="251" y="383" type="curve" smooth="yes"/>
      <point x="213" y="383"/>
      <point x="185" y="405"/>
      <point x="185" y="459" type="curve" smooth="yes"/>
      <point x="185" y="551"/>
      <point x="252" y="651"/>
      <point x="360" y="651" type="curve" smooth="yes"/>
      <point x="372" y="651"/>
      <point x="378" y="649"/>
      <point x="384" y="647" type="curve"/>
      <point x="343" y="493" type="line" smooth="yes"/>
      <point x="337" y="469"/>
      <point x="331" y="438"/>
      <point x="335" y="413" type="curve"/>
      <point x="308" y="393"/>
      <point x="277" y="383"/>
    </contour>
  </outline>
</glyph>
<glyph name="registered" format="2">
  <advance width="558"/>
  <unicode hex="00AE"/>
  <outline>
    <contour>
      <point x="344" y="286" type="curve" smooth="yes"/>
      <point x="469" y="286"/>
      <point x="581" y="376"/>
      <point x="581" y="530" type="curve"/>
      <point x="581" y="683"/>
      <point x="469" y="773"/>
      <point x="344" y="773" type="curve"/>
      <point x="220" y="773"/>
      <point x="108" y="683"/>
      <point x="108" y="530" type="curve" smooth="yes"/>
      <point x="108" y="377"/>
      <point x="220" y="286"/>
    </contour>
    <contour>
      <point x="344" y="339" type="curve" smooth="yes"/>
      <point x="240" y="339"/>
      <point x="166" y="416"/>
      <point x="166" y="530" type="curve"/>
      <point x="166" y="643"/>
      <point x="240" y="719"/>
      <point x="344" y="719" type="curve" smooth="yes"/>
      <point x="448" y="719"/>
      <point x="523" y="644"/>
      <point x="523" y="530" type="curve"/>
      <point x="523" y="415"/>
      <point x="448" y="339"/>
    </contour>
    <contour>
      <point x="253" y="408" type="line"/>
      <point x="308" y="408" type="line"/>
      <point x="308" y="497" type="line"/>
      <point x="334" y="497" type="line"/>
      <point x="338" y="497"/>
      <point x="343" y="497"/>
      <point x="347" y="497" type="curve"/>
      <point x="364" y="475"/>
      <point x="379" y="448"/>
      <point x="400" y="408" type="curve"/>
      <point x="458" y="408" type="line"/>
      <point x="439" y="449"/>
      <point x="416" y="488"/>
      <point x="399" y="511" type="curve"/>
      <point x="425" y="523"/>
      <point x="443" y="545"/>
      <point x="443" y="576" type="curve" smooth="yes"/>
      <point x="443" y="631"/>
      <point x="403" y="659"/>
      <point x="329" y="659" type="curve" smooth="yes"/>
      <point x="310" y="659"/>
      <point x="283" y="657"/>
      <point x="253" y="650" type="curve"/>
    </contour>
    <contour>
      <point x="308" y="541" type="line"/>
      <point x="308" y="610" type="line"/>
      <point x="316" y="611"/>
      <point x="321" y="612"/>
      <point x="334" y="612" type="curve" smooth="yes"/>
      <point x="362" y="612"/>
      <point x="386" y="604"/>
      <point x="386" y="577" type="curve" smooth="yes"/>
      <point x="386" y="549"/>
      <point x="365" y="541"/>
      <point x="328" y="541" type="curve" smooth="yes"/>
    </contour>
  </outline>
</glyph>
<glyph name="degree" format="2">
  <advance width="327"/>
  <unicode hex="00B0"/>
  <outline>
    <contour>
      <point x="243" y="506" type="curve" smooth="yes"/>
      <point x="314" y="506"/>
      <point x="376" y="556"/>
      <point x="376" y="640" type="curve" smooth="yes"/>
      <point x="376" y="725"/>
      <point x="314" y="774"/>
      <point x="243" y="774" type="curve" smooth="yes"/>
      <point x="171" y="774"/>
      <point x="109" y="725"/>
      <point x="109" y="640" type="curve" smooth="yes"/>
      <point x="109" y="556"/>
      <point x="171" y="506"/>
    </contour>
    <contour>
      <point x="243" y="557" type="curve" smooth="yes"/>
      <point x="199" y="557"/>
      <point x="164" y="589"/>
      <point x="164" y="640" type="curve" smooth="yes"/>
      <point x="164" y="691"/>
      <point x="199" y="723"/>
      <point x="243" y="723" type="curve" smooth="yes"/>
      <point x="287" y="723"/>
      <point x="322" y="691"/>
      <point x="322" y="640" type="curve" smooth="yes"/>
      <point x="322" y="589"/>
      <point x="287" y="557"/>
    </contour>
  </outline>
</glyph>
<glyph name="micro" format="2">
  <advance width="579"/>
  <unicode hex="00B5"/>
  <outline>
    <contour>
      <point x="-20" y="-183" type="line"/>
      <point x="54" y="-183" type="line"/>
      <point x="93" y="-23" type="line"/>
      <point x="98" y="-2"/>
      <point x="102" y="16"/>
      <point x="106" y="34" type="curve"/>
      <point x="129" y="8"/>
      <point x="166" y="-12"/>
      <point x="222" y="-12" type="curve" smooth="yes"/>
      <point x="279" y="-12"/>
      <point x="337" y="6"/>
      <point x="388" y="48" type="curve"/>
      <point x="404" y="7"/>
      <point x="462" y="-9"/>
      <point x="496" y="-9" type="curve"/>
      <point x="515" y="56" type="line"/>
      <point x="434" y="69"/>
      <point x="447" y="132"/>
      <point x="464" y="200" type="curve" smooth="yes"/>
      <point x="542" y="518" type="line"/>
      <point x="467" y="518" type="line"/>
      <point x="400" y="248" type="line" smooth="yes"/>
      <point x="386" y="189"/>
      <point x="378" y="150"/>
      <point x="376" y="116" type="curve"/>
      <point x="335" y="74"/>
      <point x="292" y="55"/>
      <point x="233" y="55" type="curve" smooth="yes"/>
      <point x="104" y="55"/>
      <point x="137" y="159"/>
      <point x="166" y="284" type="curve" smooth="yes"/>
      <point x="223" y="518" type="line"/>
      <point x="148" y="518" type="line"/>
    </contour>
  </outline>
</glyph>
<glyph name="paragraph" format="2">
  <advance width="609"/>
  <unicode hex="00B6"/>
  <outline>
    <contour>
      <point x="172" y="-185" type="line"/>
      <point x="240" y="-185" type="line"/>
      <point x="437" y="634" type="line"/>
      <point x="468" y="637"/>
      <point x="514" y="634"/>
      <point x="548" y="630" type="curve"/>
      <point x="351" y="-185" type="line"/>
      <point x="419" y="-185" type="line"/>
      <point x="627" y="683" type="line"/>
      <point x="584" y="696"/>
      <point x="504" y="700"/>
      <point x="450" y="700" type="curve" smooth="yes"/>
      <point x="205" y="700"/>
      <point x="82" y="575"/>
      <point x="82" y="437" type="curve" smooth="yes"/>
      <point x="82" y="344"/>
      <point x="149" y="265"/>
      <point x="279" y="263" type="curve"/>
    </contour>
  </outline>
</glyph>
<glyph name="Aring" format="2">
  <advance width="642"/>
  <unicode hex="00C5"/>
  <outline>
    <contour>
      <point x="-39" y="0" type="curve"/>
      <point x="46" y="0" type="line"/>
      <point x="79" y="64"/>
      <point x="113" y="126"/>
      <point x="147" y="186" type="curve"/>
      <point x="466" y="186" type="line"/>
      <point x="473" y="123"/>
      <point x="480" y="62"/>
      <point x="486" y="0" type="curve"/>
      <point x="566" y="0" type="line"/>
      <point x="538" y="250"/>
      <point x="509" y="464"/>
      <point x="477" y="649" type="curve"/>
      <point x="510" y="664"/>
      <point x="535" y="696"/>
      <point x="535" y="740" type="curve" smooth="yes"/>
      <point x="535" y="799"/>
      <point x="490" y="838"/>
      <point x="437" y="838" type="curve" smooth="yes"/>
      <point x="384" y="838"/>
      <point x="339" y="799"/>
      <point x="339" y="740" type="curve" smooth="yes"/>
      <point x="339" y="709"/>
      <point x="351" y="684"/>
      <point x="371" y="666" type="curve"/>
      <point x="238" y="470"/>
      <point x="95" y="239"/>
    </contour>
    <contour>
      <point x="185" y="251" type="line"/>
      <point x="256" y="372"/>
      <point x="331" y="487"/>
      <point x="409" y="607" type="curve"/>
      <point x="429" y="484"/>
      <point x="444" y="366"/>
      <point x="458" y="251" type="curve"/>
    </contour>
    <contour>
      <point x="437" y="683" type="curve" smooth="yes"/>
      <point x="406" y="683"/>
      <point x="382" y="703"/>
      <point x="382" y="740" type="curve" smooth="yes"/>
      <point x="382" y="777"/>
      <point x="406" y="798"/>
      <point x="437" y="798" type="curve" smooth="yes"/>
      <point x="469" y="798"/>
      <point x="493" y="777"/>
      <point x="493" y="740" type="curve" smooth="yes"/>
      <point x="493" y="703"/>
      <point x="469" y="683"/>
    </contour>
  </outline>
</glyph>
<glyph name="Eth" format="2">
  <advance width="707"/>
  <unicode hex="00D0"/>
  <outline>
    <contour>
      <point x="203" y="-6" type="curve" smooth="yes"/>
      <point x="543" y="-6"/>
      <point x="669" y="208"/>
      <point x="669" y="426" type="curve" smooth="yes"/>
      <point x="669" y="607"/>
      <point x="560" y="699"/>
      <point x="367" y="699" type="curve" smooth="yes"/>
      <point x="314" y="699"/>
      <point x="261" y="694"/>
      <point x="195" y="680" type="curve"/>
      <point x="126" y="393" type="line"/>
      <point x="46" y="393" type="line"/>
      <point x="32" y="331" type="line"/>
      <point x="112" y="331" type="line"/>
      <point x="36" y="13" type="line"/>
      <point x="79" y="1"/>
      <point x="150" y="-6"/>
    </contour>
    <contour>
      <point x="216" y="61" type="curve" smooth="yes"/>
      <point x="186" y="61"/>
      <point x="157" y="63"/>
      <point x="126" y="67" type="curve"/>
      <point x="190" y="331" type="line"/>
      <point x="320" y="331" type="line"/>
      <point x="335" y="393" type="line"/>
      <point x="204" y="393" type="line"/>
      <point x="260" y="625" type="line"/>
      <point x="292" y="630"/>
      <point x="326" y="633"/>
      <point x="357" y="633" type="curve" smooth="yes"/>
      <point x="486" y="633"/>
      <point x="587" y="576"/>
      <point x="587" y="428" type="curve" smooth="yes"/>
      <point x="587" y="204"/>
      <point x="446" y="61"/>
    </contour>
  </outline>
</glyph>
<glyph name="multiply" format="2">
  <advance width="564"/>
  <unicode hex="00D7"/>
  <outline>
    <contour>
      <point x="102" y="100" type="line"/>
      <point x="280" y="245" type="line"/>
      <point x="390" y="100" type="line"/>
      <point x="440" y="140" type="line"/>
      <point x="328" y="286" type="line"/>
      <point x="516" y="436" type="line"/>
      <point x="478" y="483" type="line"/>
      <point x="291" y="333" type="line"/>
      <point x="178" y="483" type="line"/>
      <point x="128" y="443" type="line"/>
      <point x="242" y="292" type="line"/>
      <point x="65" y="148" type="line"/>
    </contour>
  </outline>
</glyph>
<glyph name="Oslash" format="2">
  <advance width="760"/>
  <unicode hex="00D8"/>
  <anchor x="468" y="674" name="top"/>
  <outline>
    <contour>
      <point x="110" y="-31" type="line"/>
      <point x="170" y="37" type="line"/>
      <point x="214" y="2"/>
      <point x="270" y="-15"/>
      <point x="329" y="-15" type="curve" smooth="yes"/>
      <point x="531" y="-15"/>
      <point x="724" y="165"/>
      <point x="724" y="434" type="curve" smooth="yes"/>
      <point x="724" y="509"/>
      <point x="705" y="567"/>
      <point x="674" y="611" type="curve"/>
      <point x="741" y="688" type="line"/>
      <point x="695" y="727" type="line"/>
      <point x="632" y="655" type="line"/>
      <point x="588" y="691"/>
      <point x="532" y="708"/>
      <point x="473" y="708" type="curve" smooth="yes"/>
      <point x="271" y="708"/>
      <point x="78" y="528"/>
      <point x="78" y="260" type="curve" smooth="yes"/>
      <point x="78" y="186"/>
      <point x="96" y="127"/>
      <point x="127" y="82" type="curve"/>
      <point x="63" y="9" type="line"/>
    </contour>
    <contour>
      <point x="335" y="54" type="curve" smooth="yes"/>
      <point x="290" y="54"/>
      <point x="250" y="67"/>
      <point x="220" y="93" type="curve"/>
      <point x="619" y="549" type="line"/>
      <point x="634" y="520"/>
      <point x="642" y="484"/>
      <point x="642" y="442" type="curve" smooth="yes"/>
      <point x="642" y="198"/>
      <point x="493" y="54"/>
    </contour>
    <contour>
      <point x="182" y="144" type="line"/>
      <point x="167" y="173"/>
      <point x="160" y="208"/>
      <point x="160" y="251" type="curve" smooth="yes"/>
      <point x="160" y="495"/>
      <point x="309" y="639"/>
      <point x="466" y="639" type="curve" smooth="yes"/>
      <point x="511" y="639"/>
      <point x="552" y="626"/>
      <point x="582" y="599" type="curve"/>
    </contour>
  </outline>
</glyph>
<glyph name="germandbls" format="2">
  <advance width="604"/>
  <unicode hex="00DF"/>
  <outline>
    <contour>
      <point x="-9" y="-189" type="line"/>
      <point x="59" y="-114"/>
      <point x="90" y="-28"/>
      <point x="123" y="107" type="curve" smooth="yes"/>
      <point x="230" y="553" type="line" smooth="yes"/>
      <point x="257" y="666"/>
      <point x="329" y="711"/>
      <point x="401" y="711" type="curve" smooth="yes"/>
      <point x="453" y="711"/>
      <point x="483" y="685"/>
      <point x="483" y="638" type="curve" smooth="yes"/>
      <point x="483" y="519"/>
      <point x="312" y="485"/>
      <point x="312" y="370" type="curve" smooth="yes"/>
      <point x="312" y="311"/>
      <point x="360" y="286"/>
      <point x="405" y="253" type="curve" smooth="yes"/>
      <point x="440" y="227"/>
      <point x="465" y="202"/>
      <point x="465" y="156" type="curve" smooth="yes"/>
      <point x="465" y="85"/>
      <point x="403" y="55"/>
      <point x="336" y="55" type="curve" smooth="yes"/>
      <point x="294" y="55"/>
      <point x="251" y="69"/>
      <point x="221" y="88" type="curve"/>
      <point x="190" y="22" type="line"/>
      <point x="233" y="-3"/>
      <point x="285" y="-12"/>
      <point x="333" y="-12" type="curve" smooth="yes"/>
      <point x="441" y="-12"/>
      <point x="540" y="44"/>
      <point x="540" y="163" type="curve" smooth="yes"/>
      <point x="540" y="241"/>
      <point x="497" y="276"/>
      <point x="456" y="303" type="curve" smooth="yes"/>
      <point x="419" y="327"/>
      <point x="388" y="344"/>
      <point x="388" y="380" type="curve" smooth="yes"/>
      <point x="388" y="449"/>
      <point x="558" y="502"/>
      <point x="558" y="642" type="curve" smooth="yes"/>
      <point x="558" y="724"/>
      <point x="498" y="776"/>
      <point x="401" y="776" type="curve" smooth="yes"/>
      <point x="289" y="776"/>
      <point x="195" y="715"/>
      <point x="155" y="549" type="curve" smooth="yes"/>
      <point x="39" y="65" type="line"/>
      <point x="17" y="-26"/>
      <point x="-7" y="-92"/>
      <point x="-75" y="-179" type="curve"/>
    </contour>
  </outline>
</glyph>
<glyph name="ccedilla" format="2">
  <advance width="470"/>
  <unicode hex="00E7"/>
  <outline>
    <contour>
      <point x="153" y="-191" type="curve" smooth="yes"/>
      <point x="216" y="-191"/>
      <point x="267" y="-160"/>
      <point x="267" y="-103" type="curve" smooth="yes"/>
      <point x="267" y="-72"/>
      <point x="253" y="-55"/>
      <point x="223" y="-39" type="curve"/>
      <point x="227" y="-32"/>
      <point x="233" y="-21"/>
      <point x="240" y="-12" type="curve"/>
      <point x="303" y="-10"/>
      <point x="357" y="8"/>
      <point x="383" y="24" type="curve"/>
      <point x="376" y="90" type="line"/>
      <point x="357" y="77"/>
      <point x="299" y="55"/>
      <point x="244" y="55" type="curve" smooth="yes"/>
      <point x="156" y="55"/>
      <point x="119" y="108"/>
      <point x="119" y="194" type="curve" smooth="yes"/>
      <point x="119" y="339"/>
      <point x="209" y="463"/>
      <point x="347" y="463" type="curve" smooth="yes"/>
      <point x="376" y="463"/>
      <point x="406" y="458"/>
      <point x="436" y="446" type="curve"/>
      <point x="466" y="512" type="line"/>
      <point x="432" y="524"/>
      <point x="396" y="530"/>
      <point x="358" y="530" type="curve" smooth="yes"/>
      <point x="159" y="530"/>
      <point x="42" y="368"/>
      <point x="42" y="186" type="curve" smooth="yes"/>
      <point x="42" y="80"/>
      <point x="91" y="6"/>
      <point x="189" y="-9" type="curve"/>
      <point x="175" y="-28"/>
      <point x="160" y="-49"/>
      <point x="152" y="-66" type="curve"/>
      <point x="189" y="-81"/>
      <point x="199" y="-90"/>
      <point x="199" y="-110" type="curve" smooth="yes"/>
      <point x="199" y="-131"/>
      <point x="180" y="-140"/>
      <point x="149" y="-140" type="curve" smooth="yes"/>
      <point x="132" y="-140"/>
      <point x="114" y="-136"/>
      <point x="99" y="-130" type="curve"/>
      <point x="79" y="-178" type="line"/>
      <point x="105" y="-188"/>
      <point x="128" y="-191"/>
    </contour>
  </outline>
</glyph>
<glyph name="divide" format="2">
  <advance width="564"/>
  <unicode hex="00F7"/>
  <outline>
    <contour>
      <point x="54" y="263" type="line"/>
      <point x="509" y="263" type="line"/>
      <point x="524" y="326" type="line"/>
      <point x="70" y="326" type="line"/>
    </contour>
    <contour>
      <point x="230" y="51" type="curve" smooth="yes"/>
      <point x="260" y="51"/>
      <point x="289" y="74"/>
      <point x="294" y="105" type="curve" smooth="yes"/>
      <point x="300" y="137"/>
      <point x="283" y="158"/>
      <point x="253" y="158" type="curve" smooth="yes"/>
      <point x="224" y="158"/>
      <point x="197" y="135"/>
      <point x="191" y="103" type="curve" smooth="yes"/>
      <point x="185" y="72"/>
      <point x="201" y="51"/>
    </contour>
    <contour>
      <point x="322" y="430" type="curve" smooth="yes"/>
      <point x="352" y="430"/>
      <point x="379" y="453"/>
      <point x="386" y="485" type="curve" smooth="yes"/>
      <point x="391" y="516"/>
      <point x="375" y="537"/>
      <point x="345" y="537" type="curve" smooth="yes"/>
      <point x="316" y="537"/>
      <point x="288" y="514"/>
      <point x="282" y="483" type="curve" smooth="yes"/>
      <point x="276" y="451"/>
      <point x="293" y="430"/>
    </contour>
  </outline>
</glyph>
<glyph name="oslash" format="2">
  <advance width="541"/>
  <unicode hex="00F8"/>
  <anchor x="335" y="518" name="top"/>
  <outline>
    <contour>
      <point x="59" y="-35" type="line"/>
      <point x="108" y="21" type="line"/>
      <point x="138" y="-1"/>
      <point x="177" y="-12"/>
      <point x="218" y="-12" type="curve" smooth="yes"/>
      <point x="356" y="-12"/>
      <point x="505" y="111"/>
      <point x="505" y="351" type="curve" smooth="yes"/>
      <point x="505" y="388"/>
      <point x="497" y="420"/>
      <point x="482" y="445" type="curve"/>
      <point x="543" y="514" type="line"/>
      <point x="501" y="548" type="line"/>
      <point x="448" y="488" type="line"/>
      <point x="416" y="515"/>
      <point x="373" y="529"/>
      <point x="327" y="529" type="curve" smooth="yes"/>
      <point x="191" y="529"/>
      <point x="40" y="406"/>
      <point x="40" y="167" type="curve" smooth="yes"/>
      <point x="40" y="123"/>
      <point x="51" y="88"/>
      <point x="70" y="60" type="curve"/>
      <point x="17" y="0" type="line"/>
    </contour>
    <contour>
      <point x="223" y="54" type="curve" smooth="yes"/>
      <point x="197" y="54"/>
      <point x="174" y="60"/>
      <point x="156" y="74" type="curve"/>
      <point x="426" y="381" type="line"/>
      <point x="429" y="371"/>
      <point x="430" y="359"/>
      <point x="430" y="347" type="curve" smooth="yes"/>
      <point x="430" y="153"/>
      <point x="319" y="54"/>
    </contour>
    <contour>
      <point x="123" y="121" type="line"/>
      <point x="118" y="135"/>
      <point x="115" y="151"/>
      <point x="115" y="171" type="curve" smooth="yes"/>
      <point x="115" y="364"/>
      <point x="226" y="464"/>
      <point x="322" y="464" type="curve" smooth="yes"/>
      <point x="352" y="464"/>
      <point x="380" y="454"/>
      <point x="400" y="434" type="curve"/>
    </contour>
  </outline>
</glyph>
<glyph name="Aogonek" format="2">
  <advance width="642"/>
  <unicode hex="0104"/>
  <outline>
    <contour>
      <point x="479" y="-190" type="curve" smooth="yes"/>
      <point x="499" y="-190"/>
      <point x="518" y="-186"/>
      <point x="537" y="-182" type="curve"/>
      <point x="544" y="-127" type="line"/>
      <point x="535" y="-129"/>
      <point x="522" y="-132"/>
      <point x="509" y="-132" type="curve" smooth="yes"/>
      <point x="487" y="-132"/>
      <point x="467" y="-126"/>
      <point x="467" y="-106" type="curve" smooth="yes"/>
      <point x="467" y="-81"/>
      <point x="492" y="-48"/>
      <point x="566" y="0" type="curve"/>
      <point x="536" y="271"/>
      <point x="504" y="498"/>
      <point x="469" y="693" type="curve"/>
      <point x="388" y="693" type="line"/>
      <point x="249" y="489"/>
      <point x="103" y="253"/>
      <point x="-39" y="0" type="curve"/>
      <point x="46" y="0" type="line"/>
      <point x="79" y="64"/>
      <point x="113" y="126"/>
      <point x="147" y="186" type="curve"/>
      <point x="466" y="186" type="line"/>
      <point x="473" y="123"/>
      <point x="480" y="62"/>
      <point x="486" y="0" type="curve"/>
      <point x="493" y="0" type="line"/>
      <point x="445" y="-32"/>
      <point x="396" y="-77"/>
      <point x="396" y="-124" type="curve" smooth="yes"/>
      <point x="396" y="-175"/>
      <point x="435" y="-190"/>
    </contour>
    <contour>
      <point x="185" y="251" type="line"/>
      <point x="256" y="372"/>
      <point x="331" y="487"/>
      <point x="409" y="607" type="curve"/>
      <point x="429" y="484"/>
      <point x="444" y="366"/>
      <point x="458" y="251" type="curve"/>
    </contour>
  </outline>
</glyph>
<glyph name="aogonek" format="2">
  <advance width="540"/>
  <unicode hex="0105"/>
  <outline>
    <contour>
      <point x="356" y="-190" type="curve" smooth="yes"/>
      <point x="375" y="-190"/>
      <point x="394" y="-186"/>
      <point x="413" y="-182" type="curve"/>
      <point x="421" y="-127" type="line"/>
      <point x="412" y="-129"/>
      <point x="398" y="-132"/>
      <point x="385" y="-132" type="curve" smooth="yes"/>
      <point x="364" y="-132"/>
      <point x="344" y="-126"/>
      <point x="344" y="-106" type="curve" smooth="yes"/>
      <point x="344" y="-81"/>
      <point x="372" y="-45"/>
      <point x="447" y="5" type="curve"/>
      <point x="431" y="43"/>
      <point x="424" y="75"/>
      <point x="424" y="112" type="curve" smooth="yes"/>
      <point x="424" y="138"/>
      <point x="430" y="168"/>
      <point x="438" y="200" type="curve" smooth="yes"/>
      <point x="513" y="507" type="line"/>
      <point x="471" y="524"/>
      <point x="424" y="530"/>
      <point x="384" y="530" type="curve" smooth="yes"/>
      <point x="186" y="530"/>
      <point x="40" y="391"/>
      <point x="40" y="181" type="curve" smooth="yes"/>
      <point x="40" y="49"/>
      <point x="114" y="-13"/>
      <point x="204" y="-13" type="curve" smooth="yes"/>
      <point x="258" y="-13"/>
      <point x="310" y="8"/>
      <point x="355" y="51" type="curve"/>
      <point x="358" y="33"/>
      <point x="363" y="15"/>
      <point x="370" y="0" type="curve"/>
      <point x="322" y="-32"/>
      <point x="273" y="-77"/>
      <point x="273" y="-124" type="curve" smooth="yes"/>
      <point x="273" y="-175"/>
      <point x="312" y="-190"/>
    </contour>
    <contour>
      <point x="214" y="54" type="curve" smooth="yes"/>
      <point x="158" y="54"/>
      <point x="116" y="91"/>
      <point x="116" y="194" type="curve" smooth="yes"/>
      <point x="116" y="329"/>
      <point x="208" y="463"/>
      <point x="364" y="463" type="curve" smooth="yes"/>
      <point x="384" y="463"/>
      <point x="403" y="460"/>
      <point x="426" y="455" type="curve"/>
      <point x="374" y="248" type="line" smooth="yes"/>
      <point x="366" y="211"/>
      <point x="353" y="161"/>
      <point x="352" y="125" type="curve"/>
      <point x="311" y="79"/>
      <point x="266" y="54"/>
    </contour>
  </outline>
</glyph>
<glyph name="Eogonek" format="2">
  <advance width="542"/>
  <unicode hex="0118"/>
  <outline>
    <contour>
      <point x="356" y="-190" type="curve" smooth="yes"/>
      <point x="376" y="-190"/>
      <point x="395" y="-186"/>
      <point x="414" y="-182" type="curve"/>
      <point x="421" y="-127" type="line"/>
      <point x="412" y="-129"/>
      <point x="398" y="-132"/>
      <point x="386" y="-132" type="curve" smooth="yes"/>
      <point x="364" y="-132"/>
      <point x="344" y="-126"/>
      <point x="344" y="-106" type="curve" smooth="yes"/>
      <point x="344" y="-81"/>
      <point x="370" y="-48"/>
      <point x="443" y="0" type="curve"/>
      <point x="458" y="67" type="line"/>
      <point x="116" y="67" type="line"/>
      <point x="182" y="331" type="line"/>
      <point x="463" y="331" type="line"/>
      <point x="479" y="397" type="line"/>
      <point x="195" y="397" type="line"/>
      <point x="251" y="626" type="line"/>
      <point x="569" y="626" type="line"/>
      <point x="585" y="693" type="line"/>
      <point x="190" y="693" type="line"/>
      <point x="24" y="0" type="line"/>
      <point x="370" y="0" type="line"/>
      <point x="322" y="-32"/>
      <point x="273" y="-77"/>
      <point x="273" y="-124" type="curve" smooth="yes"/>
      <point x="273" y="-175"/>
      <point x="312" y="-190"/>
    </contour>
  </outline>
</glyph>
<glyph name="Hbar" format="2">
  <advance width="689"/>
  <unicode hex="0126"/>
  <outline>
    <contour>
      <point x="33" y="0" type="line"/>
      <point x="111" y="0" type="line"/>
      <point x="190" y="329" type="line"/>
      <point x="535" y="329" type="line"/>
      <point x="456" y="0" type="line"/>
      <point x="534" y="0" type="line"/>
      <point x="660" y="529" type="line"/>
      <point x="738" y="529" type="line"/>
      <point x="752" y="589" type="line"/>
      <point x="674" y="589" type="line"/>
      <point x="699" y="693" type="line"/>
      <point x="621" y="693" type="line"/>
      <point x="596" y="589" type="line"/>
      <point x="251" y="589" type="line"/>
      <point x="277" y="693" type="line"/>
      <point x="199" y="693" type="line"/>
      <point x="174" y="589" type="line"/>
      <point x="93" y="589" type="line"/>
      <point x="78" y="529" type="line"/>
      <point x="159" y="529" type="line"/>
    </contour>
    <contour>
      <point x="204" y="396" type="line"/>
      <point x="236" y="529" type="line"/>
      <point x="582" y="529" type="line"/>
      <point x="550" y="396" type="line"/>
    </contour>
  </outline>
</glyph>
<glyph name="tbar" format="2">
  <advance width="391"/>
  <unicode hex="0167"/>
  <outline>
    <contour>
      <point x="187" y="-12" type="curve" smooth="yes"/>
      <point x="233" y="-12"/>
      <point x="280" y="0"/>
      <point x="316" y="15" type="curve"/>
      <point x="310" y="80" type="line"/>
      <point x="275" y="65"/>
      <point x="247" y="55"/>
      <point x="206" y="55" type="curve" smooth="yes"/>
      <point x="119" y="55"/>
      <point x="122" y="132"/>
      <point x="141" y="209" type="curve" smooth="yes"/>
      <point x="150" y="243" type="line"/>
      <point x="334" y="243" type="line"/>
      <point x="347" y="300" type="line"/>
      <point x="163" y="300" type="line"/>
      <point x="200" y="455" type="line"/>
      <point x="381" y="455" type="line"/>
      <point x="396" y="518" type="line"/>
      <point x="216" y="518" type="line"/>
      <point x="255" y="681" type="line"/>
      <point x="177" y="668" type="line"/>
      <point x="68" y="212" type="line" smooth="yes"/>
      <point x="37" y="90"/>
      <point x="48" y="-12"/>
    </contour>
  </outline>
</glyph>
<glyph name="Tonesix" format="2">
  <advance width="539"/>
  <unicode hex="0184"/>
  <outline>
    <contour>
      <point x="162" y="-12" type="curve" smooth="yes"/>
      <point x="382" y="-12"/>
      <point x="503" y="162"/>
      <point x="503" y="334" type="curve" smooth="yes"/>
      <point x="503" y="453"/>
      <point x="448" y="530"/>
      <point x="334" y="530" type="curve" smooth="yes"/>
      <point x="291" y="530"/>
      <point x="247" y="517"/>
      <point x="208" y="492" type="curve"/>
      <point x="275" y="776" type="line"/>
      <point x="227" y="764"/>
      <point x="160" y="736"/>
      <point x="121" y="715" type="curve"/>
      <point x="169" y="644" type="line"/>
      <point x="19" y="18" type="line"/>
      <point x="65" y="-3"/>
      <point x="119" y="-12"/>
    </contour>
    <contour>
      <point x="174" y="55" type="curve" smooth="yes"/>
      <point x="150" y="55"/>
      <point x="128" y="59"/>
      <point x="106" y="65" type="curve"/>
      <point x="188" y="410" type="line"/>
      <point x="231" y="444"/>
      <point x="280" y="463"/>
      <point x="320" y="463" type="curve" smooth="yes"/>
      <point x="383" y="463"/>
      <point x="427" y="421"/>
      <point x="427" y="329" type="curve" smooth="yes"/>
      <point x="427" y="202"/>
      <point x="339" y="55"/>
    </contour>
  </outline>
</glyph>
<glyph name="Chook" format="2">
  <advance width="665"/>
  <unicode hex="0187"/>
  <outline>
    <contour>
      <point x="334" y="-15" type="curve" smooth="yes"/>
      <point x="404" y="-15"/>
      <point x="478" y="2"/>
      <point x="532" y="31" type="curve"/>
      <point x="522" y="99" type="line"/>
      <point x="492" y="83"/>
      <point x="439" y="55"/>
      <point x="336" y="55" type="curve" smooth="yes"/>
      <point x="218" y="55"/>
      <point x="160" y="126"/>
      <point x="160" y="259" type="curve" smooth="yes"/>
      <point x="160" y="490"/>
      <point x="305" y="639"/>
      <point x="470" y="639" type="curve" smooth="yes"/>
      <point x="523" y="639"/>
      <point x="575" y="628"/>
      <point x="624" y="601" type="curve"/>
      <point x="654" y="660" type="line" smooth="yes"/>
      <point x="676" y="702"/>
      <point x="704" y="725"/>
      <point x="742" y="725" type="curve" smooth="yes"/>
      <point x="761" y="725"/>
      <point x="777" y="722"/>
      <point x="787" y="718" type="curve"/>
      <point x="813" y="774" type="line"/>
      <point x="795" y="781"/>
      <point x="780" y="784"/>
      <point x="751" y="784" type="curve" smooth="yes"/>
      <point x="684" y="784"/>
      <point x="633" y="750"/>
      <point x="601" y="685" type="curve"/>
      <point x="564" y="700"/>
      <point x="527" y="708"/>
      <point x="484" y="708" type="curve" smooth="yes"/>
      <point x="265" y="708"/>
      <point x="78" y="533"/>
      <point x="78" y="256" type="curve" smooth="yes"/>
      <point x="78" y="68"/>
      <point x="183" y="-15"/>
    </contour>
  </outline>
</glyph>
<glyph name="Dtopbar" format="2">
  <advance width="603"/>
  <unicode hex="018B"/>
  <outline>
    <contour>
      <point x="281" y="-7" type="curve" smooth="yes"/>
      <point x="328" y="-7"/>
      <point x="405" y="1"/>
      <point x="457" y="12" type="curve"/>
      <point x="621" y="693" type="line"/>
      <point x="211" y="693" type="line"/>
      <point x="196" y="626" type="line"/>
      <point x="526" y="626" type="line"/>
      <point x="478" y="427" type="line"/>
      <point x="376" y="427" type="line" smooth="yes"/>
      <point x="200" y="427"/>
      <point x="44" y="352"/>
      <point x="44" y="172" type="curve" smooth="yes"/>
      <point x="44" y="52"/>
      <point x="132" y="-7"/>
    </contour>
    <contour>
      <point x="294" y="60" type="curve" smooth="yes"/>
      <point x="194" y="60"/>
      <point x="123" y="87"/>
      <point x="123" y="178" type="curve" smooth="yes"/>
      <point x="123" y="330"/>
      <point x="251" y="361"/>
      <point x="376" y="361" type="curve" smooth="yes"/>
      <point x="462" y="361" type="line"/>
      <point x="392" y="67" type="line"/>
      <point x="377" y="66"/>
      <point x="349" y="60"/>
    </contour>
  </outline>
</glyph>
<glyph name="deltaturned" format="2">
  <advance width="549"/>
  <unicode hex="018D"/>
  <outline>
    <contour>
      <point x="169" y="-185" type="curve" smooth="yes"/>
      <point x="270" y="-185"/>
      <point x="371" y="-151"/>
      <point x="371" y="-49" type="curve" smooth="yes"/>
      <point x="371" y="2"/>
      <point x="346" y="31"/>
      <point x="313" y="55" type="curve"/>
      <point x="478" y="116"/>
      <point x="532" y="246"/>
      <point x="532" y="345" type="curve" smooth="yes"/>
      <point x="532" y="446"/>
      <point x="475" y="530"/>
      <point x="350" y="530" type="curve" smooth="yes"/>
      <point x="219" y="530"/>
      <point x="79" y="434"/>
      <point x="79" y="241" type="curve" smooth="yes"/>
      <point x="79" y="47"/>
      <point x="295" y="53"/>
      <point x="295" y="-56" type="curve" smooth="yes"/>
      <point x="295" y="-105"/>
      <point x="241" y="-123"/>
      <point x="183" y="-123" type="curve" smooth="yes"/>
      <point x="131" y="-123"/>
      <point x="72" y="-111"/>
      <point x="43" y="-94" type="curve"/>
      <point x="15" y="-154" type="line"/>
      <point x="53" y="-173"/>
      <point x="112" y="-185"/>
    </contour>
    <contour>
      <point x="253" y="94" type="curve"/>
      <point x="203" y="125"/>
      <point x="157" y="162"/>
      <point x="157" y="248" type="curve" smooth="yes"/>
      <point x="157" y="391"/>
      <point x="251" y="464"/>
      <point x="342" y="464" type="curve" smooth="yes"/>
      <point x="418" y="464"/>
      <point x="454" y="413"/>
      <point x="454" y="340" type="curve" smooth="yes"/>
      <point x="454" y="256"/>
      <point x="410" y="140"/>
    </contour>
  </outline>
</glyph>
<glyph name="Schwa" format="2">
  <advance width="708"/>
  <unicode hex="018F"/>
  <anchor x="278" y="0" name="bottom"/>
  <anchor x="434" y="674" name="top"/>
  <outline>
    <contour>
      <point x="296" y="-15" type="curve" smooth="yes"/>
      <point x="531" y="-15"/>
      <point x="670" y="210"/>
      <point x="670" y="425" type="curve" smooth="yes"/>
      <point x="670" y="621"/>
      <point x="565" y="708"/>
      <point x="411" y="708" type="curve" smooth="yes"/>
      <point x="346" y="708"/>
      <point x="289" y="694"/>
      <point x="225" y="667" type="curve"/>
      <point x="232" y="601" type="line"/>
      <point x="289" y="625"/>
      <point x="340" y="639"/>
      <point x="397" y="639" type="curve" smooth="yes"/>
      <point x="509" y="639"/>
      <point x="589" y="572"/>
      <point x="589" y="422" type="curve" smooth="yes"/>
      <point x="589" y="403"/>
      <point x="587" y="384"/>
      <point x="584" y="365" type="curve"/>
      <point x="105" y="365" type="line"/>
      <point x="88" y="312"/>
      <point x="78" y="260"/>
      <point x="78" y="214" type="curve" smooth="yes"/>
      <point x="78" y="86"/>
      <point x="138" y="-15"/>
    </contour>
    <contour>
      <point x="301" y="52" type="curve" smooth="yes"/>
      <point x="198" y="52"/>
      <point x="155" y="111"/>
      <point x="155" y="205" type="curve" smooth="yes"/>
      <point x="155" y="233"/>
      <point x="158" y="266"/>
      <point x="167" y="299" type="curve"/>
      <point x="571" y="299" type="line"/>
      <point x="534" y="169"/>
      <point x="440" y="52"/>
    </contour>
  </outline>
</glyph>
<glyph name="Mturned" format="2">
  <advance width="920"/>
  <unicode hex="019C"/>
  <outline>
    <contour>
      <point x="227" y="-15" type="curve" smooth="yes"/>
      <point x="301" y="-15"/>
      <point x="379" y="11"/>
      <point x="427" y="46" type="curve"/>
      <point x="459" y="-1"/>
      <point x="522" y="-15"/>
      <point x="590" y="-15" type="curve" smooth="yes"/>
      <point x="658" y="-15"/>
      <point x="728" y="-1"/>
      <point x="774" y="10" type="curve"/>
      <point x="939" y="693" type="line"/>
      <point x="861" y="693" type="line"/>
      <point x="711" y="67" type="line"/>
      <point x="695" y="61"/>
      <point x="639" y="54"/>
      <point x="585" y="54" type="curve" smooth="yes"/>
      <point x="501" y="54"/>
      <point x="481" y="102"/>
      <point x="481" y="163" type="curve" smooth="yes"/>
      <point x="481" y="202"/>
      <point x="492" y="246"/>
      <point x="501" y="285" type="curve" smooth="yes"/>
      <point x="600" y="693" type="line"/>
      <point x="522" y="693" type="line"/>
      <point x="416" y="259" type="line" smooth="yes"/>
      <point x="408" y="223"/>
      <point x="402" y="188"/>
      <point x="401" y="157" type="curve" smooth="yes"/>
      <point x="401" y="142"/>
      <point x="403" y="126"/>
      <point x="406" y="112" type="curve"/>
      <point x="379" y="87"/>
      <point x="313" y="54"/>
      <point x="244" y="54" type="curve" smooth="yes"/>
      <point x="162" y="54"/>
      <point x="138" y="98"/>
      <point x="138" y="159" type="curve" smooth="yes"/>
      <point x="138" y="191"/>
      <point x="147" y="237"/>
      <point x="159" y="285" type="curve" smooth="yes"/>
      <point x="257" y="693" type="line"/>
      <point x="179" y="693" type="line"/>
      <point x="75" y="259" type="line" smooth="yes"/>
      <point x="63" y="210"/>
      <point x="59" y="174"/>
      <point x="59" y="152" type="curve" smooth="yes"/>
      <point x="59" y="19"/>
      <point x="139" y="-15"/>
    </contour>
  </outline>
</glyph>
<glyph name="oi" format="2">
  <advance width="791"/>
  <unicode hex="01A3"/>
  <outline>
    <contour>
      <point x="531" y="-185" type="line"/>
      <point x="605" y="-185" type="line"/>
      <point x="714" y="264" type="line" smooth="yes"/>
      <point x="724" y="307"/>
      <point x="735" y="352"/>
      <point x="735" y="394" type="curve" smooth="yes"/>
      <point x="735" y="469"/>
      <point x="703" y="528"/>
      <point x="600" y="528" type="curve" smooth="yes"/>
      <point x="554" y="528"/>
      <point x="506" y="515"/>
      <point x="455" y="482" type="curve"/>
      <point x="423" y="512"/>
      <point x="377" y="529"/>
      <point x="327" y="529" type="curve" smooth="yes"/>
      <point x="191" y="529"/>
      <point x="40" y="406"/>
      <point x="40" y="167" type="curve" smooth="yes"/>
      <point x="40" y="51"/>
      <point x="120" y="-12"/>
      <point x="218" y="-12" type="curve" smooth="yes"/>
      <point x="356" y="-12"/>
      <point x="505" y="111"/>
      <point x="505" y="351" type="curve" smooth="yes"/>
      <point x="505" y="383"/>
      <point x="499" y="411"/>
      <point x="487" y="435" type="curve"/>
      <point x="514" y="451"/>
      <point x="544" y="464"/>
      <point x="578" y="464" type="curve" smooth="yes"/>
      <point x="646" y="464"/>
      <point x="658" y="424"/>
      <point x="658" y="377" type="curve" smooth="yes"/>
      <point x="658" y="333"/>
      <point x="642" y="278"/>
      <point x="633" y="239" type="curve" smooth="yes"/>
    </contour>
    <contour>
      <point x="223" y="54" type="curve" smooth="yes"/>
      <point x="163" y="54"/>
      <point x="116" y="95"/>
      <point x="116" y="172" type="curve" smooth="yes"/>
      <point x="116" y="363"/>
      <point x="228" y="463"/>
      <point x="322" y="463" type="curve" smooth="yes"/>
      <point x="383" y="463"/>
      <point x="430" y="422"/>
      <point x="430" y="345" type="curve" smooth="yes"/>
      <point x="430" y="154"/>
      <point x="317" y="54"/>
    </contour>
  </outline>
</glyph>
<glyph name="Tonetwo" format="2">
  <advance width="508"/>
  <unicode hex="01A7"/>
  <outline>
    <contour>
      <point x="230" y="-15" type="curve" smooth="yes"/>
      <point x="301" y="-15"/>
      <point x="376" y="3"/>
      <point x="425" y="25" type="curve"/>
      <point x="420" y="92" type="line"/>
      <point x="379" y="75"/>
      <point x="304" y="53"/>
      <point x="237" y="53" type="curve" smooth="yes"/>
      <point x="168" y="53"/>
      <point x="108" y="77"/>
      <point x="108" y="155" type="curve" smooth="yes"/>
      <point x="108" y="254"/>
      <point x="200" y="288"/>
      <point x="298" y="323" type="curve" smooth="yes"/>
      <point x="411" y="363"/>
      <point x="531" y="407"/>
      <point x="531" y="557" type="curve" smooth="yes"/>
      <point x="531" y="660"/>
      <point x="448" y="708"/>
      <point x="343" y="708" type="curve" smooth="yes"/>
      <point x="281" y="708"/>
      <point x="223" y="694"/>
      <point x="163" y="666" type="curve"/>
      <point x="174" y="601" type="line"/>
      <point x="213" y="620"/>
      <point x="281" y="641"/>
      <point x="338" y="641" type="curve" smooth="yes"/>
      <point x="399" y="641"/>
      <point x="451" y="621"/>
      <point x="451" y="547" type="curve" smooth="yes"/>
      <point x="451" y="453"/>
      <point x="361" y="421"/>
      <point x="264" y="386" type="curve" smooth="yes"/>
      <point x="150" y="345"/>
      <point x="27" y="301"/>
      <point x="27" y="147" type="curve" smooth="yes"/>
      <point x="27" y="25"/>
      <point x="125" y="-15"/>
    </contour>
  </outline>
</glyph>
<glyph name="tonetwo" format="2">
  <advance width="419"/>
  <unicode hex="01A8"/>
  <outline>
    <contour>
      <point x="194" y="-12" type="curve" smooth="yes"/>
      <point x="253" y="-12"/>
      <point x="311" y="2"/>
      <point x="351" y="18" type="curve"/>
      <point x="346" y="86" type="line"/>
      <point x="318" y="72"/>
      <point x="254" y="53"/>
      <point x="197" y="53" type="curve" smooth="yes"/>
      <point x="146" y="53"/>
      <point x="105" y="68"/>
      <point x="105" y="118" type="curve" smooth="yes"/>
      <point x="105" y="187"/>
      <point x="174" y="211"/>
      <point x="246" y="238" type="curve" smooth="yes"/>
      <point x="327" y="269"/>
      <point x="412" y="303"/>
      <point x="412" y="406" type="curve" smooth="yes"/>
      <point x="412" y="494"/>
      <point x="347" y="530"/>
      <point x="261" y="530" type="curve" smooth="yes"/>
      <point x="212" y="530"/>
      <point x="160" y="518"/>
      <point x="122" y="500" type="curve"/>
      <point x="127" y="434" type="line"/>
      <point x="164" y="452"/>
      <point x="213" y="466"/>
      <point x="257" y="466" type="curve" smooth="yes"/>
      <point x="306" y="466"/>
      <point x="336" y="448"/>
      <point x="336" y="402" type="curve" smooth="yes"/>
      <point x="336" y="344"/>
      <point x="272" y="322"/>
      <point x="203" y="294" type="curve" smooth="yes"/>
      <point x="121" y="262"/>
      <point x="29" y="222"/>
      <point x="29" y="109" type="curve" smooth="yes"/>
      <point x="29" y="22"/>
      <point x="105" y="-12"/>
    </contour>
  </outline>
</glyph>
<glyph name="thook" format="2">
  <advance width="391"/>
  <unicode hex="01AD"/>
  <outline>
    <contour>
      <point x="187" y="-12" type="curve" smooth="yes"/>
      <point x="233" y="-12"/>
      <point x="283" y="1"/>
      <point x="316" y="15" type="curve"/>
      <point x="310" y="80" type="line"/>
      <point x="275" y="64"/>
      <point x="246" y="55"/>
      <point x="205" y="55" type="curve" smooth="yes"/>
      <point x="162" y="55"/>
      <point x="130" y="76"/>
      <point x="130" y="134" type="curve" smooth="yes"/>
      <point x="130" y="159"/>
      <point x="136" y="186"/>
      <point x="141" y="209" type="curve" smooth="yes"/>
      <point x="200" y="455" type="line"/>
      <point x="381" y="455" type="line"/>
      <point x="396" y="518" type="line"/>
      <point x="216" y="518" type="line"/>
      <point x="229" y="570" type="line" smooth="yes"/>
      <point x="250" y="658"/>
      <point x="281" y="711"/>
      <point x="372" y="711" type="curve" smooth="yes"/>
      <point x="430" y="711"/>
      <point x="450" y="698"/>
      <point x="456" y="696" type="curve"/>
      <point x="488" y="756" type="line"/>
      <point x="466" y="768"/>
      <point x="420" y="776"/>
      <point x="378" y="776" type="curve" smooth="yes"/>
      <point x="246" y="776"/>
      <point x="187" y="708"/>
      <point x="155" y="573" type="curve" smooth="yes"/>
      <point x="68" y="212" type="line" smooth="yes"/>
      <point x="59" y="175"/>
      <point x="54" y="142"/>
      <point x="54" y="113" type="curve" smooth="yes"/>
      <point x="54" y="19"/>
      <point x="113" y="-12"/>
    </contour>
  </outline>
</glyph>
<glyph name="Uhorn" format="2">
  <advance width="711"/>
  <unicode hex="01AF"/>
  <outline>
    <contour>
      <point x="285" y="-16" type="curve" smooth="yes"/>
      <point x="449" y="-16"/>
      <point x="535" y="67"/>
      <point x="582" y="260" type="curve" smooth="yes"/>
      <point x="672" y="634" type="line"/>
      <point x="795" y="635"/>
      <point x="832" y="738"/>
      <point x="833" y="801" type="curve"/>
      <point x="761" y="801" type="line"/>
      <point x="757" y="745"/>
      <point x="736" y="693"/>
      <point x="668" y="693" type="curve" smooth="yes"/>
      <point x="608" y="693" type="line"/>
      <point x="506" y="270" type="line" smooth="yes"/>
      <point x="469" y="117"/>
      <point x="411" y="53"/>
      <point x="293" y="53" type="curve" smooth="yes"/>
      <point x="189" y="53"/>
      <point x="155" y="112"/>
      <point x="155" y="188" type="curve" smooth="yes"/>
      <point x="155" y="215"/>
      <point x="160" y="246"/>
      <point x="167" y="275" type="curve" smooth="yes"/>
      <point x="268" y="693" type="line"/>
      <point x="189" y="693" type="line"/>
      <point x="90" y="276" type="line" smooth="yes"/>
      <point x="82" y="243"/>
      <point x="78" y="211"/>
      <point x="78" y="182" type="curve" smooth="yes"/>
      <point x="78" y="67"/>
      <point x="141" y="-16"/>
    </contour>
  </outline>
</glyph>
<glyph name="uhorn" format="2">
  <advance width="584"/>
  <unicode hex="01B0"/>
  <outline>
    <contour>
      <point x="193" y="-12" type="curve" smooth="yes"/>
      <point x="255" y="-12"/>
      <point x="307" y="8"/>
      <point x="352" y="52" type="curve"/>
      <point x="356" y="31"/>
      <point x="362" y="10"/>
      <point x="370" y="-6" type="curve"/>
      <point x="444" y="5" type="line"/>
      <point x="413" y="75"/>
      <point x="417" y="131"/>
      <point x="434" y="200" type="curve" smooth="yes"/>
      <point x="498" y="460" type="line"/>
      <point x="610" y="469"/>
      <point x="650" y="550"/>
      <point x="660" y="629" type="curve"/>
      <point x="588" y="629" type="line"/>
      <point x="585" y="583"/>
      <point x="567" y="518"/>
      <point x="501" y="518" type="curve" smooth="yes"/>
      <point x="438" y="518" type="line"/>
      <point x="371" y="248" type="line" smooth="yes"/>
      <point x="362" y="211"/>
      <point x="349" y="161"/>
      <point x="349" y="125" type="curve"/>
      <point x="308" y="79"/>
      <point x="264" y="55"/>
      <point x="204" y="55" type="curve" smooth="yes"/>
      <point x="80" y="55"/>
      <point x="111" y="172"/>
      <point x="138" y="284" type="curve" smooth="yes"/>
      <point x="195" y="518" type="line"/>
      <point x="120" y="518" type="line"/>
      <point x="57" y="258" type="line" smooth="yes"/>
      <point x="23" y="119"/>
      <point x="28" y="-12"/>
    </contour>
  </outline>
</glyph>
<glyph name="Yhook" format="2">
  <advance width="630"/>
  <unicode hex="01B3"/>
  <outline>
    <contour>
      <point x="186" y="0" type="line"/>
      <point x="264" y="0" type="line"/>
      <point x="330" y="279" type="line"/>
      <point x="414" y="380"/>
      <point x="503" y="491"/>
      <point x="579" y="589" type="curve" smooth="yes"/>
      <point x="602" y="619"/>
      <point x="621" y="629"/>
      <point x="636" y="629" type="curve" smooth="yes"/>
      <point x="657" y="629"/>
      <point x="672" y="624"/>
      <point x="689" y="608" type="curve"/>
      <point x="741" y="664" type="line"/>
      <point x="717" y="689"/>
      <point x="687" y="701"/>
      <point x="650" y="701" type="curve" smooth="yes"/>
      <point x="594" y="701"/>
      <point x="558" y="675"/>
      <point x="523" y="629" type="curve" smooth="yes"/>
      <point x="457" y="540"/>
      <point x="365" y="421"/>
      <point x="306" y="352" type="curve"/>
      <point x="266" y="456"/>
      <point x="232" y="581"/>
      <point x="205" y="693" type="curve"/>
      <point x="121" y="693" type="line"/>
      <point x="157" y="569"/>
      <point x="201" y="416"/>
      <point x="252" y="279" type="curve"/>
    </contour>
  </outline>
</glyph>
<glyph name="yhook" format="2">
  <advance width="516"/>
  <unicode hex="01B4"/>
  <outline>
    <contour>
      <point x="-27" y="-188" type="curve" smooth="yes"/>
      <point x="81" y="-188"/>
      <point x="182" y="-128"/>
      <point x="280" y="44" type="curve" smooth="yes"/>
      <point x="339" y="146"/>
      <point x="386" y="260"/>
      <point x="446" y="395" type="curve" smooth="yes"/>
      <point x="461" y="430"/>
      <point x="479" y="465"/>
      <point x="527" y="465" type="curve" smooth="yes"/>
      <point x="540" y="465"/>
      <point x="553" y="463"/>
      <point x="567" y="456" type="curve"/>
      <point x="587" y="518" type="line"/>
      <point x="565" y="526"/>
      <point x="544" y="528"/>
      <point x="525" y="528" type="curve" smooth="yes"/>
      <point x="454" y="528"/>
      <point x="410" y="480"/>
      <point x="382" y="414" type="curve" smooth="yes"/>
      <point x="324" y="286"/>
      <point x="281" y="161"/>
      <point x="216" y="47" type="curve"/>
      <point x="170" y="203"/>
      <point x="148" y="394"/>
      <point x="144" y="518" type="curve"/>
      <point x="66" y="518" type="line"/>
      <point x="72" y="345"/>
      <point x="105" y="156"/>
      <point x="159" y="-15" type="curve"/>
      <point x="105" y="-88"/>
      <point x="41" y="-123"/>
      <point x="-25" y="-123" type="curve" smooth="yes"/>
      <point x="-48" y="-123"/>
      <point x="-68" y="-118"/>
      <point x="-87" y="-108" type="curve"/>
      <point x="-113" y="-169" type="line"/>
      <point x="-83" y="-185"/>
      <point x="-53" y="-188"/>
    </contour>
  </outline>
</glyph>
<glyph name="Zstroke" format="2">
  <advance width="567"/>
  <unicode hex="01B5"/>
  <outline>
    <contour>
      <point x="-17" y="0" type="line"/>
      <point x="458" y="0" type="line"/>
      <point x="473" y="67" type="line"/>
      <point x="90" y="67" type="line"/>
      <point x="150" y="147"/>
      <point x="231" y="242"/>
      <point x="314" y="333" type="curve"/>
      <point x="509" y="333" type="line"/>
      <point x="523" y="394" type="line"/>
      <point x="370" y="394" type="line"/>
      <point x="461" y="491"/>
      <point x="547" y="576"/>
      <point x="602" y="626" type="curve"/>
      <point x="617" y="693" type="line"/>
      <point x="165" y="693" type="line"/>
      <point x="149" y="626" type="line"/>
      <point x="506" y="626" type="line"/>
      <point x="446" y="569"/>
      <point x="363" y="484"/>
      <point x="280" y="394" type="curve"/>
      <point x="116" y="394" type="line"/>
      <point x="101" y="333" type="line"/>
      <point x="224" y="333" type="line"/>
      <point x="135" y="232"/>
      <point x="50" y="131"/>
      <point x="-5" y="56" type="curve"/>
    </contour>
  </outline>
</glyph>
<glyph name="Ezh" format="2">
  <advance width="536"/>
  <unicode hex="01B7"/>
  <anchor x="159" y="0" name="bottom"/>
  <anchor x="349" y="674" name="top"/>
  <outline>
    <contour>
      <point x="176" y="-15" type="curve" smooth="yes"/>
      <point x="366" y="-15"/>
      <point x="474" y="90"/>
      <point x="474" y="219" type="curve" smooth="yes"/>
      <point x="474" y="322"/>
      <point x="418" y="371"/>
      <point x="300" y="389" type="curve"/>
      <point x="404" y="479"/>
      <point x="502" y="579"/>
      <point x="558" y="643" type="curve"/>
      <point x="569" y="693" type="line"/>
      <point x="162" y="693" type="line"/>
      <point x="147" y="626" type="line"/>
      <point x="457" y="626" type="line"/>
      <point x="402" y="571"/>
      <point x="295" y="466"/>
      <point x="203" y="386" type="curve"/>
      <point x="191" y="337" type="line"/>
      <point x="211" y="337" type="line" smooth="yes"/>
      <point x="341" y="337"/>
      <point x="392" y="301"/>
      <point x="392" y="220" type="curve" smooth="yes"/>
      <point x="392" y="115"/>
      <point x="309" y="53"/>
      <point x="179" y="53" type="curve" smooth="yes"/>
      <point x="114" y="53"/>
      <point x="52" y="70"/>
      <point x="15" y="98" type="curve"/>
      <point x="-20" y="35" type="line"/>
      <point x="23" y="4"/>
      <point x="97" y="-15"/>
    </contour>
  </outline>
</glyph>
<glyph name="ezhtail" format="2">
  <advance width="443"/>
  <unicode hex="01BA"/>
  <outline>
    <contour>
      <point x="-54" y="-187" type="curve"/>
      <point x="12" y="-174" type="line"/>
      <point x="8" y="-159"/>
      <point x="6" y="-145"/>
      <point x="6" y="-133" type="curve" smooth="yes"/>
      <point x="6" y="-73"/>
      <point x="56" y="-61"/>
      <point x="151" y="-42" type="curve" smooth="yes"/>
      <point x="320" y="-11"/>
      <point x="374" y="47"/>
      <point x="374" y="141" type="curve" smooth="yes"/>
      <point x="374" y="221"/>
      <point x="322" y="262"/>
      <point x="223" y="277" type="curve"/>
      <point x="316" y="351"/>
      <point x="380" y="409"/>
      <point x="423" y="460" type="curve"/>
      <point x="439" y="518" type="line"/>
      <point x="108" y="518" type="line"/>
      <point x="94" y="455" type="line"/>
      <point x="348" y="455" type="line"/>
      <point x="297" y="407"/>
      <point x="235" y="353"/>
      <point x="144" y="282" type="curve"/>
      <point x="132" y="228" type="line"/>
      <point x="253" y="228"/>
      <point x="299" y="195"/>
      <point x="299" y="136" type="curve" smooth="yes"/>
      <point x="299" y="60"/>
      <point x="230" y="37"/>
      <point x="113" y="13" type="curve" smooth="yes"/>
      <point x="-2" y="-10"/>
      <point x="-61" y="-42"/>
      <point x="-61" y="-130" type="curve" smooth="yes"/>
      <point x="-61" y="-148"/>
      <point x="-59" y="-166"/>
    </contour>
  </outline>
</glyph>
<glyph name="twostroke" format="2">
  <advance width="486"/>
  <unicode hex="01BB"/>
  <outline>
    <contour>
      <point x="7" y="0" type="curve"/>
      <point x="411" y="0" type="line"/>
      <point x="426" y="64" type="line"/>
      <point x="99" y="64" type="line"/>
      <point x="121" y="140"/>
      <point x="200" y="201"/>
      <point x="305" y="279" type="curve"/>
      <point x="330" y="297" type="line"/>
      <point x="464" y="297" type="line"/>
      <point x="478" y="357" type="line"/>
      <point x="386" y="357" type="line"/>
      <point x="444" y="410"/>
      <point x="486" y="472"/>
      <point x="486" y="551" type="curve" smooth="yes"/>
      <point x="486" y="659"/>
      <point x="412" y="708"/>
      <point x="320" y="708" type="curve" smooth="yes"/>
      <point x="250" y="708"/>
      <point x="173" y="681"/>
      <point x="121" y="638" type="curve"/>
      <point x="147" y="578" type="line"/>
      <point x="191" y="616"/>
      <point x="254" y="641"/>
      <point x="307" y="641" type="curve" smooth="yes"/>
      <point x="362" y="641"/>
      <point x="407" y="611"/>
      <point x="407" y="541" type="curve" smooth="yes"/>
      <point x="407" y="463"/>
      <point x="355" y="411"/>
      <point x="285" y="357" type="curve"/>
      <point x="105" y="357" type="line"/>
      <point x="91" y="297" type="line"/>
      <point x="219" y="297" type="line"/>
      <point x="202" y="284" type="line" smooth="yes"/>
      <point x="113" y="217"/>
      <point x="27" y="136"/>
    </contour>
  </outline>
</glyph>
<glyph name="gstroke" format="2">
  <advance width="550"/>
  <unicode hex="01E5"/>
  <outline>
    <contour>
      <point x="114" y="-188" type="curve" smooth="yes"/>
      <point x="326" y="-188"/>
      <point x="375" y="-81"/>
      <point x="404" y="38" type="curve" smooth="yes"/>
      <point x="454" y="247" type="line"/>
      <point x="536" y="247" type="line"/>
      <point x="549" y="304" type="line"/>
      <point x="468" y="304" type="line"/>
      <point x="515" y="500" type="line"/>
      <point x="479" y="520"/>
      <point x="433" y="530"/>
      <point x="383" y="530" type="curve" smooth="yes"/>
      <point x="154" y="530"/>
      <point x="39" y="361"/>
      <point x="39" y="203" type="curve" smooth="yes"/>
      <point x="39" y="104"/>
      <point x="90" y="23"/>
      <point x="206" y="23" type="curve" smooth="yes"/>
      <point x="250" y="23"/>
      <point x="295" y="35"/>
      <point x="334" y="59" type="curve"/>
      <point x="329" y="34" type="line" smooth="yes"/>
      <point x="310" y="-64"/>
      <point x="248" y="-121"/>
      <point x="130" y="-121" type="curve" smooth="yes"/>
      <point x="77" y="-121"/>
      <point x="20" y="-105"/>
      <point x="-10" y="-82" type="curve"/>
      <point x="-40" y="-151" type="line"/>
      <point x="0" y="-174"/>
      <point x="66" y="-188"/>
    </contour>
    <contour>
      <point x="219" y="89" type="curve" smooth="yes"/>
      <point x="135" y="89"/>
      <point x="114" y="147"/>
      <point x="114" y="217" type="curve" smooth="yes"/>
      <point x="114" y="328"/>
      <point x="197" y="464"/>
      <point x="370" y="464" type="curve" smooth="yes"/>
      <point x="391" y="464"/>
      <point x="411" y="461"/>
      <point x="430" y="456" type="curve"/>
      <point x="394" y="304" type="line"/>
      <point x="300" y="304" type="line"/>
      <point x="287" y="247" type="line"/>
      <point x="379" y="247" type="line"/>
      <point x="352" y="133" type="line"/>
      <point x="310" y="106"/>
      <point x="261" y="89"/>
    </contour>
  </outline>
</glyph>
<glyph name="Aringacute" format="2">
  <advance width="643"/>
  <unicode hex="01FA"/>
  <outline>
    <contour>
      <point x="-39" y="0" type="curve"/>
      <point x="45" y="0" type="line"/>
      <point x="79" y="64"/>
      <point x="113" y="126"/>
      <point x="147" y="185" type="curve"/>
      <point x="466" y="185" type="line"/>
      <point x="474" y="123"/>
      <point x="480" y="62"/>
      <point x="487" y="0" type="curve"/>
      <point x="567" y="0" type="line"/>
      <point x="539" y="257"/>
      <point x="510" y="462"/>
      <point x="478" y="644" type="curve"/>
      <point x="507" y="659"/>
      <point x="527" y="688"/>
      <point x="527" y="726" type="curve" smooth="yes"/>
      <point x="527" y="783"/>
      <point x="484" y="820"/>
      <point x="433" y="820" type="curve" smooth="yes"/>
      <point x="383" y="820"/>
      <point x="340" y="783"/>
      <point x="340" y="726" type="curve" smooth="yes"/>
      <point x="340" y="699"/>
      <point x="351" y="676"/>
      <point x="367" y="659" type="curve"/>
      <point x="235" y="464"/>
      <point x="94" y="236"/>
    </contour>
    <contour>
      <point x="185" y="251" type="line"/>
      <point x="256" y="372"/>
      <point x="331" y="487"/>
      <point x="410" y="607" type="curve"/>
      <point x="429" y="483"/>
      <point x="445" y="366"/>
      <point x="459" y="251" type="curve"/>
    </contour>
    <contour>
      <point x="433" y="671" type="curve" smooth="yes"/>
      <point x="404" y="671"/>
      <point x="380" y="691"/>
      <point x="380" y="726" type="curve" smooth="yes"/>
      <point x="380" y="762"/>
      <point x="404" y="782"/>
      <point x="433" y="782" type="curve" smooth="yes"/>
      <point x="464" y="782"/>
      <point x="488" y="762"/>
      <point x="488" y="726" type="curve" smooth="yes"/>
      <point x="488" y="691"/>
      <point x="464" y="671"/>
    </contour>
    <contour>
      <point x="382" y="838" type="line"/>
      <point x="534" y="897" type="line"/>
      <point x="516" y="957" type="line"/>
      <point x="367" y="881" type="line"/>
    </contour>
  </outline>
</glyph>
<glyph name="Yogh" format="2">
  <advance width="508"/>
  <unicode hex="021C"/>
  <outline>
    <contour>
      <point x="-10" y="-185" type="curve" smooth="yes"/>
      <point x="294" y="-185"/>
      <point x="426" y="-62"/>
      <point x="426" y="124" type="curve" smooth="yes"/>
      <point x="426" y="203"/>
      <point x="384" y="273"/>
      <point x="309" y="302" type="curve"/>
      <point x="444" y="352"/>
      <point x="491" y="447"/>
      <point x="491" y="543" type="curve" smooth="yes"/>
      <point x="491" y="634"/>
      <point x="430" y="708"/>
      <point x="304" y="708" type="curve" smooth="yes"/>
      <point x="245" y="708"/>
      <point x="182" y="691"/>
      <point x="125" y="664" type="curve"/>
      <point x="134" y="600" type="line"/>
      <point x="179" y="625"/>
      <point x="238" y="642"/>
      <point x="292" y="642" type="curve" smooth="yes"/>
      <point x="374" y="642"/>
      <point x="415" y="592"/>
      <point x="415" y="529" type="curve" smooth="yes"/>
      <point x="415" y="436"/>
      <point x="331" y="331"/>
      <point x="172" y="331" type="curve" smooth="yes"/>
      <point x="149" y="331" type="line"/>
      <point x="133" y="265" type="line"/>
      <point x="162" y="265" type="line" smooth="yes"/>
      <point x="284" y="265"/>
      <point x="346" y="204"/>
      <point x="346" y="128" type="curve" smooth="yes"/>
      <point x="346" y="-39"/>
      <point x="211" y="-117"/>
      <point x="-10" y="-117" type="curve" smooth="yes"/>
      <point x="-25" y="-117"/>
      <point x="-41" y="-116"/>
      <point x="-51" y="-115" type="curve"/>
      <point x="-69" y="-181" type="line"/>
      <point x="-56" y="-183"/>
      <point x="-28" y="-185"/>
    </contour>
  </outline>
</glyph>
<glyph name="yogh" format="2">
  <advance width="453"/>
  <unicode hex="021D"/>
  <outline>
    <contour>
      <point x="-43" y="-185" type="line"/>
      <point x="284" y="-185"/>
      <point x="360" y="-32"/>
      <point x="360" y="73" type="curve" smooth="yes"/>
      <point x="360" y="144"/>
      <point x="329" y="180"/>
      <point x="262" y="202" type="curve"/>
      <point x="374" y="244"/>
      <point x="408" y="315"/>
      <point x="408" y="390" type="curve" smooth="yes"/>
      <point x="408" y="490"/>
      <point x="331" y="530"/>
      <point x="242" y="530" type="curve" smooth="yes"/>
      <point x="190" y="530"/>
      <point x="136" y="517"/>
      <point x="94" y="499" type="curve"/>
      <point x="99" y="433" type="line"/>
      <point x="132" y="451"/>
      <point x="183" y="466"/>
      <point x="227" y="466" type="curve" smooth="yes"/>
      <point x="282" y="466"/>
      <point x="331" y="444"/>
      <point x="331" y="379" type="curve" smooth="yes"/>
      <point x="331" y="300"/>
      <point x="259" y="230"/>
      <point x="135" y="230" type="curve"/>
      <point x="134" y="230" type="line"/>
      <point x="118" y="168" type="line"/>
      <point x="129" y="168" type="line"/>
      <point x="223" y="167"/>
      <point x="282" y="149"/>
      <point x="282" y="65" type="curve" smooth="yes"/>
      <point x="282" y="-38"/>
      <point x="182" y="-121"/>
      <point x="-35" y="-121" type="curve"/>
    </contour>
  </outline>
</glyph>
<glyph name="Nlongrightleg" format="2">
  <advance width="650"/>
  <unicode hex="0220"/>
  <outline>
    <contour>
      <point x="377" y="-185" type="line"/>
      <point x="455" y="-185" type="line"/>
      <point x="601" y="424" type="line" smooth="yes"/>
      <point x="610" y="460"/>
      <point x="614" y="493"/>
      <point x="614" y="524" type="curve" smooth="yes"/>
      <point x="614" y="642"/>
      <point x="544" y="707"/>
      <point x="399" y="707" type="curve" smooth="yes"/>
      <point x="332" y="707"/>
      <point x="257" y="695"/>
      <point x="186" y="677" type="curve"/>
      <point x="25" y="0" type="line"/>
      <point x="102" y="0" type="line"/>
      <point x="252" y="623" type="line"/>
      <point x="305" y="633"/>
      <point x="350" y="639"/>
      <point x="389" y="639" type="curve" smooth="yes"/>
      <point x="497" y="639"/>
      <point x="534" y="586"/>
      <point x="534" y="510" type="curve" smooth="yes"/>
      <point x="534" y="476"/>
      <point x="527" y="438"/>
      <point x="518" y="398" type="curve" smooth="yes"/>
    </contour>
  </outline>
</glyph>
<glyph name="OU" format="2">
  <advance width="647"/>
  <unicode hex="0222"/>
  <outline>
    <contour>
      <point x="275" y="-5" type="curve" smooth="yes"/>
      <point x="496" y="-5"/>
      <point x="592" y="120"/>
      <point x="592" y="229" type="curve" smooth="yes"/>
      <point x="592" y="295"/>
      <point x="553" y="357"/>
      <point x="484" y="378" type="curve"/>
      <point x="615" y="427"/>
      <point x="639" y="570"/>
      <point x="639" y="668" type="curve" smooth="yes"/>
      <point x="639" y="677"/>
      <point x="638" y="685"/>
      <point x="638" y="693" type="curve"/>
      <point x="565" y="693" type="line"/>
      <point x="561" y="492"/>
      <point x="486" y="409"/>
      <point x="364" y="409" type="curve" smooth="yes"/>
      <point x="270" y="409"/>
      <point x="243" y="449"/>
      <point x="243" y="510" type="curve" smooth="yes"/>
      <point x="243" y="569"/>
      <point x="274" y="641"/>
      <point x="297" y="693" type="curve"/>
      <point x="223" y="693" type="line"/>
      <point x="197" y="645"/>
      <point x="167" y="570"/>
      <point x="167" y="503" type="curve" smooth="yes"/>
      <point x="167" y="452"/>
      <point x="185" y="407"/>
      <point x="233" y="385" type="curve"/>
      <point x="118" y="356"/>
      <point x="49" y="266"/>
      <point x="49" y="175" type="curve" smooth="yes"/>
      <point x="49" y="76"/>
      <point x="112" y="-5"/>
    </contour>
    <contour>
      <point x="284" y="61" type="curve" smooth="yes"/>
      <point x="180" y="61"/>
      <point x="131" y="103"/>
      <point x="131" y="173" type="curve" smooth="yes"/>
      <point x="131" y="264"/>
      <point x="215" y="344"/>
      <point x="352" y="344" type="curve" smooth="yes"/>
      <point x="460" y="344"/>
      <point x="510" y="302"/>
      <point x="510" y="233" type="curve" smooth="yes"/>
      <point x="510" y="141"/>
      <point x="421" y="61"/>
    </contour>
  </outline>
</glyph>
<glyph name="Zhook" format="2">
  <advance width="567"/>
  <unicode hex="0224"/>
  <outline>
    <contour>
      <point x="292" y="-187" type="curve" smooth="yes"/>
      <point x="376" y="-187"/>
      <point x="424" y="-140"/>
      <point x="452" y="-23" type="curve" smooth="yes"/>
      <point x="473" y="67" type="line"/>
      <point x="90" y="67" type="line"/>
      <point x="230" y="253"/>
      <point x="486" y="521"/>
      <point x="602" y="626" type="curve"/>
      <point x="617" y="693" type="line"/>
      <point x="165" y="693" type="line"/>
      <point x="149" y="626" type="line"/>
      <point x="506" y="626" type="line"/>
      <point x="367" y="495"/>
      <point x="112" y="216"/>
      <point x="-5" y="56" type="curve"/>
      <point x="-17" y="0" type="line"/>
      <point x="383" y="0" type="line"/>
      <point x="378" y="-19" type="line" smooth="yes"/>
      <point x="360" y="-94"/>
      <point x="336" y="-123"/>
      <point x="288" y="-123" type="curve" smooth="yes"/>
      <point x="275" y="-123"/>
      <point x="261" y="-121"/>
      <point x="246" y="-117" type="curve"/>
      <point x="225" y="-177" type="line"/>
      <point x="249" y="-184"/>
      <point x="266" y="-187"/>
    </contour>
  </outline>
</glyph>
<glyph name="zhook" format="2">
  <advance width="450"/>
  <unicode hex="0225"/>
  <outline>
    <contour>
      <point x="194" y="-186" type="curve" smooth="yes"/>
      <point x="272" y="-186"/>
      <point x="328" y="-145"/>
      <point x="354" y="-27" type="curve" smooth="yes"/>
      <point x="374" y="64" type="line"/>
      <point x="85" y="64" type="line"/>
      <point x="152" y="161"/>
      <point x="383" y="388"/>
      <point x="466" y="462" type="curve"/>
      <point x="479" y="518" type="line"/>
      <point x="120" y="518" type="line"/>
      <point x="106" y="455" type="line"/>
      <point x="368" y="455" type="line"/>
      <point x="274" y="371"/>
      <point x="78" y="177"/>
      <point x="-4" y="51" type="curve"/>
      <point x="-16" y="0" type="line"/>
      <point x="289" y="0" type="line"/>
      <point x="284" y="-22" type="line" smooth="yes"/>
      <point x="266" y="-94"/>
      <point x="243" y="-124"/>
      <point x="194" y="-124" type="curve" smooth="yes"/>
      <point x="183" y="-124"/>
      <point x="168" y="-122"/>
      <point x="153" y="-119" type="curve"/>
      <point x="132" y="-177" type="line"/>
      <point x="153" y="-183"/>
      <point x="174" y="-186"/>
    </contour>
  </outline>
</glyph>
<glyph name="ecedilla" format="2">
  <advance width="504"/>
  <unicode hex="0229"/>
  <outline>
    <contour>
      <point x="161" y="-191" type="curve" smooth="yes"/>
      <point x="225" y="-191"/>
      <point x="275" y="-160"/>
      <point x="275" y="-103" type="curve" smooth="yes"/>
      <point x="275" y="-72"/>
      <point x="262" y="-55"/>
      <point x="231" y="-39" type="curve"/>
      <point x="235" y="-32"/>
      <point x="241" y="-21"/>
      <point x="249" y="-12" type="curve"/>
      <point x="302" y="-10"/>
      <point x="357" y="3"/>
      <point x="400" y="27" type="curve"/>
      <point x="393" y="93" type="line"/>
      <point x="351" y="67"/>
      <point x="302" y="55"/>
      <point x="256" y="55" type="curve" smooth="yes"/>
      <point x="147" y="55"/>
      <point x="116" y="106"/>
      <point x="115" y="191" type="curve" smooth="yes"/>
      <point x="115" y="195"/>
      <point x="115" y="199"/>
      <point x="115" y="205" type="curve"/>
      <point x="337" y="214"/>
      <point x="488" y="247"/>
      <point x="488" y="396" type="curve" smooth="yes"/>
      <point x="488" y="477"/>
      <point x="433" y="530"/>
      <point x="340" y="530" type="curve" smooth="yes"/>
      <point x="150" y="530"/>
      <point x="41" y="353"/>
      <point x="41" y="181" type="curve" smooth="yes"/>
      <point x="41" y="79"/>
      <point x="82" y="5"/>
      <point x="197" y="-9" type="curve"/>
      <point x="184" y="-27"/>
      <point x="168" y="-50"/>
      <point x="160" y="-66" type="curve"/>
      <point x="198" y="-81"/>
      <point x="208" y="-90"/>
      <point x="208" y="-110" type="curve" smooth="yes"/>
      <point x="208" y="-131"/>
      <point x="188" y="-140"/>
      <point x="158" y="-140" type="curve" smooth="yes"/>
      <point x="141" y="-140"/>
      <point x="123" y="-136"/>
      <point x="108" y="-130" type="curve"/>
      <point x="87" y="-178" type="line"/>
      <point x="114" y="-188"/>
      <point x="137" y="-191"/>
    </contour>
    <contour>
      <point x="124" y="269" type="curve"/>
      <point x="151" y="375"/>
      <point x="230" y="465"/>
      <point x="332" y="465" type="curve" smooth="yes"/>
      <point x="381" y="465"/>
      <point x="414" y="440"/>
      <point x="414" y="390" type="curve" smooth="yes"/>
      <point x="414" y="318"/>
      <point x="345" y="274"/>
    </contour>
  </outline>
</glyph>
<glyph name="lcurl" format="2">
  <advance width="391"/>
  <unicode hex="0234"/>
  <outline>
    <contour>
      <point x="141" y="-180" type="curve" smooth="yes"/>
      <point x="256" y="-180"/>
      <point x="320" y="-84"/>
      <point x="320" y="-3" type="curve" smooth="yes"/>
      <point x="320" y="56"/>
      <point x="283" y="106"/>
      <point x="214" y="106" type="curve" smooth="yes"/>
      <point x="182" y="106"/>
      <point x="148" y="94"/>
      <point x="119" y="71" type="curve"/>
      <point x="289" y="780" type="line"/>
      <point x="211" y="767" type="line"/>
      <point x="27" y="-3" type="line"/>
      <point x="-109" y="-129" type="line"/>
      <point x="-75" y="-167" type="line"/>
      <point x="26" y="-72" type="line"/>
      <point x="26" y="-72"/>
      <point x="26" y="-72"/>
      <point x="26" y="-72" type="curve"/>
      <point x="31" y="-150"/>
      <point x="89" y="-180"/>
    </contour>
    <contour>
      <point x="155" y="-118" type="curve" smooth="yes"/>
      <point x="120" y="-118"/>
      <point x="91" y="-97"/>
      <point x="91" y="-56" type="curve" smooth="yes"/>
      <point x="91" y="-49"/>
      <point x="93" y="-33"/>
      <point x="101" y="-2" type="curve"/>
      <point x="140" y="35"/>
      <point x="168" y="44"/>
      <point x="191" y="44" type="curve" smooth="yes"/>
      <point x="224" y="44"/>
      <point x="250" y="23"/>
      <point x="250" y="-16" type="curve" smooth="yes"/>
      <point x="250" y="-62"/>
      <point x="214" y="-118"/>
    </contour>
  </outline>
</glyph>
<glyph name="ncurl" format="2">
  <advance width="706"/>
  <unicode hex="0235"/>
  <outline>
    <contour>
      <point x="457" y="-185" type="curve" smooth="yes"/>
      <point x="567" y="-185"/>
      <point x="635" y="-92"/>
      <point x="635" y="-8" type="curve" smooth="yes"/>
      <point x="635" y="51"/>
      <point x="598" y="101"/>
      <point x="529" y="101" type="curve" smooth="yes"/>
      <point x="497" y="101"/>
      <point x="463" y="89"/>
      <point x="434" y="66" type="curve"/>
      <point x="480" y="260" type="line" smooth="yes"/>
      <point x="489" y="296"/>
      <point x="495" y="332"/>
      <point x="495" y="366" type="curve" smooth="yes"/>
      <point x="495" y="489"/>
      <point x="415" y="528"/>
      <point x="316" y="528" type="curve" smooth="yes"/>
      <point x="259" y="528"/>
      <point x="197" y="515"/>
      <point x="143" y="499" type="curve"/>
      <point x="24" y="0" type="line"/>
      <point x="98" y="0" type="line"/>
      <point x="206" y="448" type="line"/>
      <point x="239" y="455"/>
      <point x="273" y="461"/>
      <point x="306" y="461" type="curve" smooth="yes"/>
      <point x="368" y="461"/>
      <point x="421" y="438"/>
      <point x="420" y="360" type="curve" smooth="yes"/>
      <point x="419" y="321"/>
      <point x="409" y="277"/>
      <point x="399" y="234" type="curve" smooth="yes"/>
      <point x="347" y="16" type="line" smooth="yes"/>
      <point x="345" y="9"/>
      <point x="344" y="3"/>
      <point x="342" y="-7" type="curve"/>
      <point x="207" y="-134" type="line"/>
      <point x="240" y="-171" type="line"/>
      <point x="341" y="-77" type="line"/>
      <point x="341" y="-78"/>
      <point x="341" y="-79"/>
      <point x="341" y="-80" type="curve" smooth="yes"/>
      <point x="347" y="-155"/>
      <point x="406" y="-185"/>
    </contour>
    <contour>
      <point x="470" y="-123" type="curve" smooth="yes"/>
      <point x="436" y="-123"/>
      <point x="406" y="-103"/>
      <point x="406" y="-61" type="curve" smooth="yes"/>
      <point x="406" y="-48"/>
      <point x="407" y="-29"/>
      <point x="416" y="-7" type="curve"/>
      <point x="455" y="30"/>
      <point x="483" y="39"/>
      <point x="506" y="39" type="curve" smooth="yes"/>
      <point x="539" y="39"/>
      <point x="566" y="19"/>
      <point x="566" y="-20" type="curve" smooth="yes"/>
      <point x="566" y="-67"/>
      <point x="529" y="-123"/>
    </contour>
  </outline>
</glyph>
<glyph name="dbdigraph" format="2">
  <advance width="846"/>
  <unicode hex="0238"/>
  <outline>
    <contour>
      <point x="205" y="-12" type="curve" smooth="yes"/>
      <point x="262" y="-12"/>
      <point x="301" y="0"/>
      <point x="334" y="15" type="curve"/>
      <point x="377" y="-2"/>
      <point x="424" y="-12"/>
      <point x="470" y="-12" type="curve" smooth="yes"/>
      <point x="689" y="-12"/>
      <point x="810" y="161"/>
      <point x="810" y="334" type="curve" smooth="yes"/>
      <point x="810" y="453"/>
      <point x="755" y="530"/>
      <point x="641" y="530" type="curve" smooth="yes"/>
      <point x="598" y="530"/>
      <point x="554" y="517"/>
      <point x="515" y="492" type="curve"/>
      <point x="582" y="776" type="line"/>
      <point x="504" y="763" type="line"/>
      <point x="447" y="523" type="line"/>
      <point x="425" y="527"/>
      <point x="403" y="530"/>
      <point x="383" y="530" type="curve" smooth="yes"/>
      <point x="150" y="530"/>
      <point x="41" y="349"/>
      <point x="41" y="183" type="curve" smooth="yes"/>
      <point x="41" y="77"/>
      <point x="90" y="-12"/>
    </contour>
    <contour>
      <point x="214" y="55" type="curve" smooth="yes"/>
      <point x="137" y="55"/>
      <point x="117" y="115"/>
      <point x="117" y="193" type="curve" smooth="yes"/>
      <point x="117" y="318"/>
      <point x="196" y="462"/>
      <point x="372" y="462" type="curve" smooth="yes"/>
      <point x="390" y="462"/>
      <point x="412" y="461"/>
      <point x="431" y="458" type="curve"/>
      <point x="343" y="95" type="line"/>
      <point x="310" y="71"/>
      <point x="270" y="55"/>
    </contour>
    <contour>
      <point x="481" y="55" type="curve" smooth="yes"/>
      <point x="458" y="55"/>
      <point x="435" y="59"/>
      <point x="413" y="65" type="curve"/>
      <point x="495" y="410" type="line"/>
      <point x="538" y="444"/>
      <point x="587" y="463"/>
      <point x="628" y="463" type="curve" smooth="yes"/>
      <point x="690" y="463"/>
      <point x="734" y="421"/>
      <point x="734" y="329" type="curve" smooth="yes"/>
      <point x="734" y="202"/>
      <point x="646" y="55"/>
    </contour>
  </outline>
</glyph>
<glyph name="Astroke" format="2">
  <advance width="642"/>
  <unicode hex="023A"/>
  <outline>
    <contour>
      <point x="157" y="-92" type="line"/>
      <point x="316" y="186" type="line"/>
      <point x="465" y="186" type="line"/>
      <point x="473" y="123"/>
      <point x="480" y="62"/>
      <point x="486" y="0" type="curve"/>
      <point x="566" y="0" type="line"/>
      <point x="545" y="187"/>
      <point x="522" y="356"/>
      <point x="500" y="506" type="curve"/>
      <point x="640" y="750" type="line"/>
      <point x="590" y="774" type="line"/>
      <point x="485" y="592" type="line"/>
      <point x="469" y="693" type="line"/>
      <point x="388" y="693" type="line"/>
      <point x="249" y="489"/>
      <point x="102" y="253"/>
      <point x="-39" y="0" type="curve"/>
      <point x="45" y="0" type="line"/>
      <point x="78" y="64"/>
      <point x="113" y="126"/>
      <point x="147" y="186" type="curve"/>
      <point x="251" y="186" type="line"/>
      <point x="107" y="-68" type="line"/>
    </contour>
    <contour>
      <point x="353" y="251" type="line"/>
      <point x="439" y="399" type="line"/>
      <point x="445" y="350"/>
      <point x="452" y="300"/>
      <point x="458" y="251" type="curve"/>
    </contour>
    <contour>
      <point x="184" y="251" type="line"/>
      <point x="256" y="372"/>
      <point x="331" y="487"/>
      <point x="409" y="607" type="curve"/>
      <point x="415" y="568"/>
      <point x="421" y="528"/>
      <point x="427" y="489" type="curve"/>
      <point x="290" y="251" type="line"/>
    </contour>
  </outline>
</glyph>
<glyph name="Cstroke" format="2">
  <advance width="634"/>
  <unicode hex="023B"/>
  <outline>
    <contour>
      <point x="159" y="-98" type="line"/>
      <point x="222" y="4" type="line"/>
      <point x="255" y="-8"/>
      <point x="293" y="-15"/>
      <point x="334" y="-15" type="curve" smooth="yes"/>
      <point x="405" y="-15"/>
      <point x="489" y="2"/>
      <point x="543" y="31" type="curve"/>
      <point x="533" y="99" type="line"/>
      <point x="503" y="83"/>
      <point x="439" y="55"/>
      <point x="336" y="55" type="curve" smooth="yes"/>
      <point x="307" y="55"/>
      <point x="282" y="59"/>
      <point x="261" y="67" type="curve"/>
      <point x="596" y="617" type="line"/>
      <point x="613" y="610"/>
      <point x="629" y="601"/>
      <point x="646" y="591" type="curve"/>
      <point x="683" y="658" type="line"/>
      <point x="667" y="666"/>
      <point x="652" y="674"/>
      <point x="635" y="681" type="curve"/>
      <point x="677" y="749" type="line"/>
      <point x="620" y="775" type="line"/>
      <point x="574" y="699" type="line"/>
      <point x="547" y="705"/>
      <point x="517" y="708"/>
      <point x="484" y="708" type="curve" smooth="yes"/>
      <point x="265" y="708"/>
      <point x="78" y="533"/>
      <point x="78" y="256" type="curve" smooth="yes"/>
      <point x="78" y="150"/>
      <point x="112" y="77"/>
      <point x="167" y="35" type="curve"/>
      <point x="102" y="-72" type="line"/>
    </contour>
    <contour>
      <point x="208" y="102" type="line"/>
      <point x="176" y="137"/>
      <point x="161" y="189"/>
      <point x="161" y="259" type="curve" smooth="yes"/>
      <point x="161" y="490"/>
      <point x="305" y="639"/>
      <point x="470" y="639" type="curve" smooth="yes"/>
      <point x="495" y="639"/>
      <point x="516" y="637"/>
      <point x="534" y="633" type="curve"/>
    </contour>
  </outline>
</glyph>
<glyph name="cstroke" format="2">
  <advance width="475"/>
  <unicode hex="023C"/>
  <outline>
    <contour>
      <point x="124" y="-82" type="line"/>
      <point x="164" y="-3" type="line"/>
      <point x="184" y="-9"/>
      <point x="206" y="-12"/>
      <point x="230" y="-12" type="curve" smooth="yes"/>
      <point x="298" y="-12"/>
      <point x="359" y="5"/>
      <point x="386" y="22" type="curve"/>
      <point x="378" y="88" type="line"/>
      <point x="359" y="75"/>
      <point x="299" y="55"/>
      <point x="244" y="55" type="curve" smooth="yes"/>
      <point x="227" y="55"/>
      <point x="212" y="57"/>
      <point x="198" y="61" type="curve"/>
      <point x="402" y="456" type="line"/>
      <point x="419" y="452"/>
      <point x="437" y="447"/>
      <point x="453" y="439" type="curve"/>
      <point x="482" y="504" type="line"/>
      <point x="467" y="511"/>
      <point x="451" y="516"/>
      <point x="435" y="520" type="curve"/>
      <point x="475" y="595" type="line"/>
      <point x="426" y="613" type="line"/>
      <point x="382" y="529" type="line"/>
      <point x="374" y="530"/>
      <point x="365" y="530"/>
      <point x="358" y="530" type="curve" smooth="yes"/>
      <point x="159" y="530"/>
      <point x="42" y="368"/>
      <point x="42" y="186" type="curve" smooth="yes"/>
      <point x="42" y="110"/>
      <point x="67" y="50"/>
      <point x="117" y="17" type="curve"/>
      <point x="76" y="-64" type="line"/>
    </contour>
    <contour>
      <point x="154" y="87" type="line"/>
      <point x="130" y="111"/>
      <point x="119" y="147"/>
      <point x="119" y="194" type="curve" smooth="yes"/>
      <point x="119" y="338"/>
      <point x="208" y="461"/>
      <point x="346" y="463" type="curve" smooth="yes"/>
      <point x="347" y="463"/>
      <point x="347" y="463"/>
      <point x="348" y="463" type="curve"/>
    </contour>
  </outline>
</glyph>
<glyph name="Tdiagonalstroke" format="2">
  <advance width="608"/>
  <unicode hex="023E"/>
  <outline>
    <contour>
      <point x="2" y="-27" type="line"/>
      <point x="243" y="218" type="line"/>
      <point x="191" y="0" type="line"/>
      <point x="269" y="0" type="line"/>
      <point x="341" y="304" type="line"/>
      <point x="747" y="714" type="line"/>
      <point x="707" y="754" type="line"/>
      <point x="646" y="693" type="line"/>
      <point x="145" y="693" type="line"/>
      <point x="130" y="626" type="line"/>
      <point x="341" y="626" type="line"/>
      <point x="268" y="324" type="line"/>
      <point x="-39" y="13" type="line"/>
    </contour>
    <contour>
      <point x="367" y="410" type="line"/>
      <point x="419" y="626" type="line"/>
      <point x="580" y="626" type="line"/>
    </contour>
  </outline>
</glyph>
<glyph name="sswashtail" format="2">
  <advance width="435"/>
  <unicode hex="023F"/>
  <outline>
    <contour>
      <point x="216" y="-185" type="curve" smooth="yes"/>
      <point x="239" y="-185"/>
      <point x="268" y="-181"/>
      <point x="278" y="-177" type="curve"/>
      <point x="284" y="-117" type="line"/>
      <point x="273" y="-121"/>
      <point x="260" y="-123"/>
      <point x="242" y="-123" type="curve" smooth="yes"/>
      <point x="179" y="-123"/>
      <point x="154" y="-104"/>
      <point x="133" y="-73" type="curve" smooth="yes"/>
      <point x="118" y="-50"/>
      <point x="106" y="-23"/>
      <point x="83" y="6" type="curve"/>
      <point x="113" y="-1"/>
      <point x="144" y="-4"/>
      <point x="171" y="-4" type="curve" smooth="yes"/>
      <point x="274" y="-4"/>
      <point x="359" y="42"/>
      <point x="359" y="156" type="curve" smooth="yes"/>
      <point x="359" y="236"/>
      <point x="299" y="264"/>
      <point x="243" y="292" type="curve" smooth="yes"/>
      <point x="201" y="313"/>
      <point x="165" y="332"/>
      <point x="165" y="376" type="curve" smooth="yes"/>
      <point x="165" y="442"/>
      <point x="224" y="464"/>
      <point x="285" y="464" type="curve" smooth="yes"/>
      <point x="323" y="464"/>
      <point x="362" y="455"/>
      <point x="390" y="442" type="curve"/>
      <point x="419" y="506" type="line"/>
      <point x="382" y="522"/>
      <point x="337" y="530"/>
      <point x="291" y="530" type="curve" smooth="yes"/>
      <point x="186" y="530"/>
      <point x="93" y="482"/>
      <point x="93" y="368" type="curve" smooth="yes"/>
      <point x="93" y="282"/>
      <point x="153" y="254"/>
      <point x="209" y="227" type="curve" smooth="yes"/>
      <point x="252" y="206"/>
      <point x="287" y="187"/>
      <point x="287" y="142" type="curve" smooth="yes"/>
      <point x="287" y="79"/>
      <point x="228" y="56"/>
      <point x="162" y="56" type="curve" smooth="yes"/>
      <point x="113" y="56"/>
      <point x="60" y="70"/>
      <point x="25" y="88" type="curve"/>
      <point x="-11" y="25" type="line"/>
      <point x="3" y="18"/>
      <point x="14" y="7"/>
      <point x="23" y="-7" type="curve" smooth="yes"/>
      <point x="44" y="-34"/>
      <point x="58" y="-70"/>
      <point x="79" y="-103" type="curve" smooth="yes"/>
      <point x="106" y="-147"/>
      <point x="143" y="-185"/>
    </contour>
  </outline>
</glyph>
<glyph name="zswashtail" format="2">
  <advance width="449"/>
  <unicode hex="0240"/>
  <outline>
    <contour>
      <point x="303" y="-183" type="curve" smooth="yes"/>
      <point x="319" y="-183"/>
      <point x="337" y="-182"/>
      <point x="357" y="-177" type="curve"/>
      <point x="364" y="-118" type="line"/>
      <point x="354" y="-120"/>
      <point x="343" y="-121"/>
      <point x="333" y="-121" type="curve" smooth="yes"/>
      <point x="280" y="-121"/>
      <point x="251" y="-89"/>
      <point x="223" y="-52" type="curve" smooth="yes"/>
      <point x="188" y="-8"/>
      <point x="154" y="44"/>
      <point x="79" y="58" type="curve"/>
      <point x="155" y="163"/>
      <point x="383" y="388"/>
      <point x="465" y="461" type="curve"/>
      <point x="479" y="518" type="line"/>
      <point x="120" y="518" type="line"/>
      <point x="105" y="455" type="line"/>
      <point x="368" y="455" type="line"/>
      <point x="273" y="373"/>
      <point x="78" y="176"/>
      <point x="-4" y="51" type="curve"/>
      <point x="-16" y="0" type="line"/>
      <point x="17" y="0" type="line" smooth="yes"/>
      <point x="93" y="0"/>
      <point x="127" y="-44"/>
      <point x="160" y="-88" type="curve" smooth="yes"/>
      <point x="195" y="-135"/>
      <point x="227" y="-183"/>
    </contour>
  </outline>
</glyph>
<glyph name="Ubar" format="2">
  <advance width="688"/>
  <unicode hex="0244"/>
  <outline>
    <contour>
      <point x="299" y="-16" type="curve" smooth="yes"/>
      <point x="463" y="-16"/>
      <point x="549" y="67"/>
      <point x="596" y="260" type="curve" smooth="yes"/>
      <point x="616" y="348" type="line"/>
      <point x="691" y="348" type="line"/>
      <point x="706" y="409" type="line"/>
      <point x="631" y="409" type="line"/>
      <point x="700" y="693" type="line"/>
      <point x="622" y="693" type="line"/>
      <point x="553" y="409" type="line"/>
      <point x="213" y="409" type="line"/>
      <point x="282" y="693" type="line"/>
      <point x="203" y="693" type="line"/>
      <point x="136" y="409" type="line"/>
      <point x="60" y="409" type="line"/>
      <point x="46" y="348" type="line"/>
      <point x="122" y="348" type="line"/>
      <point x="104" y="276" type="line" smooth="yes"/>
      <point x="96" y="243"/>
      <point x="92" y="211"/>
      <point x="92" y="182" type="curve" smooth="yes"/>
      <point x="92" y="67"/>
      <point x="155" y="-16"/>
    </contour>
    <contour>
      <point x="307" y="53" type="curve" smooth="yes"/>
      <point x="203" y="53"/>
      <point x="169" y="112"/>
      <point x="169" y="188" type="curve" smooth="yes"/>
      <point x="169" y="215"/>
      <point x="174" y="246"/>
      <point x="181" y="275" type="curve" smooth="yes"/>
      <point x="198" y="348" type="line"/>
      <point x="538" y="348" type="line"/>
      <point x="520" y="270" type="line" smooth="yes"/>
      <point x="483" y="117"/>
      <point x="425" y="53"/>
    </contour>
  </outline>
</glyph>
<glyph name="Estroke" format="2">
  <advance width="554"/>
  <unicode hex="0246"/>
  <outline>
    <contour>
      <point x="111" y="-114" type="line"/>
      <point x="182" y="0" type="line"/>
      <point x="446" y="0" type="line"/>
      <point x="460" y="67" type="line"/>
      <point x="224" y="67" type="line"/>
      <point x="388" y="331" type="line"/>
      <point x="466" y="331" type="line"/>
      <point x="481" y="397" type="line"/>
      <point x="429" y="397" type="line"/>
      <point x="638" y="732" type="line"/>
      <point x="582" y="757" type="line"/>
      <point x="542" y="693" type="line"/>
      <point x="190" y="693" type="line"/>
      <point x="24" y="0" type="line"/>
      <point x="110" y="0" type="line"/>
      <point x="56" y="-88" type="line"/>
    </contour>
    <contour>
      <point x="116" y="67" type="line"/>
      <point x="182" y="331" type="line"/>
      <point x="316" y="331" type="line"/>
      <point x="152" y="67" type="line"/>
    </contour>
    <contour>
      <point x="195" y="397" type="line"/>
      <point x="251" y="626" type="line"/>
      <point x="500" y="626" type="line"/>
      <point x="357" y="397" type="line"/>
    </contour>
  </outline>
</glyph>
<glyph name="qhooktail" format="2">
  <advance width="546"/>
  <unicode hex="024B"/>
  <outline>
    <contour>
      <point x="413" y="-186" type="curve" smooth="yes"/>
      <point x="432" y="-186"/>
      <point x="452" y="-185"/>
      <point x="469" y="-179" type="curve"/>
      <point x="476" y="-117" type="line"/>
      <point x="458" y="-121"/>
      <point x="444" y="-122"/>
      <point x="432" y="-122" type="curve" smooth="yes"/>
      <point x="397" y="-122"/>
      <point x="385" y="-103"/>
      <point x="385" y="-75" type="curve" smooth="yes"/>
      <point x="385" y="-63"/>
      <point x="387" y="-49"/>
      <point x="390" y="-36" type="curve" smooth="yes"/>
      <point x="519" y="503" type="line"/>
      <point x="486" y="524"/>
      <point x="432" y="530"/>
      <point x="407" y="530" type="curve" smooth="yes"/>
      <point x="148" y="530"/>
      <point x="40" y="350"/>
      <point x="40" y="179" type="curve" smooth="yes"/>
      <point x="40" y="78"/>
      <point x="87" y="-12"/>
      <point x="207" y="-12" type="curve" smooth="yes"/>
      <point x="253" y="-12"/>
      <point x="296" y="-2"/>
      <point x="328" y="15" type="curve"/>
      <point x="315" y="-38" type="line" smooth="yes"/>
      <point x="311" y="-58"/>
      <point x="308" y="-76"/>
      <point x="308" y="-92" type="curve" smooth="yes"/>
      <point x="308" y="-150"/>
      <point x="338" y="-186"/>
    </contour>
    <contour>
      <point x="225" y="53" type="curve" smooth="yes"/>
      <point x="132" y="53"/>
      <point x="116" y="132"/>
      <point x="116" y="188" type="curve" smooth="yes"/>
      <point x="116" y="346"/>
      <point x="225" y="465"/>
      <point x="387" y="465" type="curve" smooth="yes"/>
      <point x="402" y="465"/>
      <point x="419" y="460"/>
      <point x="434" y="457" type="curve"/>
      <point x="346" y="96" type="line"/>
      <point x="315" y="69"/>
      <point x="269" y="53"/>
    </contour>
  </outline>
</glyph>
<glyph name="Ystroke" format="2">
  <advance width="590"/>
  <unicode hex="024E"/>
  <outline>
    <contour>
      <point x="193" y="0" type="line"/>
      <point x="271" y="0" type="line"/>
      <point x="337" y="279" type="line"/>
      <point x="394" y="344"/>
      <point x="449" y="410"/>
      <point x="501" y="474" type="curve"/>
      <point x="614" y="474" type="line"/>
      <point x="628" y="533" type="line"/>
      <point x="549" y="533" type="line"/>
      <point x="594" y="589"/>
      <point x="636" y="643"/>
      <point x="673" y="693" type="curve"/>
      <point x="583" y="693" type="line"/>
      <point x="551" y="643"/>
      <point x="510" y="588"/>
      <point x="467" y="533" type="curve"/>
      <point x="252" y="533" type="line"/>
      <point x="236" y="587"/>
      <point x="223" y="641"/>
      <point x="211" y="693" type="curve"/>
      <point x="128" y="693" type="line"/>
      <point x="142" y="643"/>
      <point x="158" y="589"/>
      <point x="174" y="533" type="curve"/>
      <point x="78" y="533" type="line"/>
      <point x="64" y="474" type="line"/>
      <point x="193" y="474" type="line"/>
      <point x="213" y="408"/>
      <point x="236" y="342"/>
      <point x="259" y="279" type="curve"/>
    </contour>
    <contour>
      <point x="313" y="351" type="curve"/>
      <point x="298" y="389"/>
      <point x="283" y="432"/>
      <point x="270" y="474" type="curve"/>
      <point x="420" y="474" type="line"/>
      <point x="383" y="431"/>
      <point x="346" y="388"/>
    </contour>
  </outline>
</glyph>
<glyph name="ystroke" format="2">
  <advance width="486"/>
  <unicode hex="024F"/>
  <outline>
    <contour>
      <point x="-21" y="-188" type="curve" smooth="yes"/>
      <point x="88" y="-188"/>
      <point x="179" y="-115"/>
      <point x="278" y="33" type="curve" smooth="yes"/>
      <point x="327" y="106"/>
      <point x="369" y="183"/>
      <point x="402" y="257" type="curve"/>
      <point x="480" y="257" type="line"/>
      <point x="494" y="314" type="line"/>
      <point x="427" y="314" type="line"/>
      <point x="466" y="408"/>
      <point x="491" y="485"/>
      <point x="500" y="518" type="curve"/>
      <point x="426" y="518" type="line"/>
      <point x="414" y="475"/>
      <point x="390" y="401"/>
      <point x="353" y="314" type="curve"/>
      <point x="167" y="314" type="line"/>
      <point x="156" y="389"/>
      <point x="151" y="460"/>
      <point x="150" y="518" type="curve"/>
      <point x="72" y="518" type="line"/>
      <point x="74" y="452"/>
      <point x="80" y="383"/>
      <point x="90" y="314" type="curve"/>
      <point x="22" y="314" type="line"/>
      <point x="8" y="257" type="line"/>
      <point x="99" y="257" type="line"/>
      <point x="115" y="164"/>
      <point x="136" y="74"/>
      <point x="164" y="-13" type="curve"/>
      <point x="112" y="-86"/>
      <point x="47" y="-123"/>
      <point x="-19" y="-123" type="curve" smooth="yes"/>
      <point x="-42" y="-123"/>
      <point x="-62" y="-118"/>
      <point x="-81" y="-108" type="curve"/>
      <point x="-107" y="-169" type="line"/>
      <point x="-77" y="-185"/>
      <point x="-48" y="-188"/>
    </contour>
    <contour>
      <point x="218" y="54" type="curve"/>
      <point x="198" y="120"/>
      <point x="184" y="189"/>
      <point x="173" y="257" type="curve"/>
      <point x="328" y="257" type="line"/>
      <point x="298" y="191"/>
      <point x="261" y="121"/>
    </contour>
  </outline>
</glyph>
<glyph name="ring" format="2">
  <advance width="345"/>
  <unicode hex="02DA"/>
  <outline>
    <contour>
      <point x="320" y="580" type="curve" smooth="yes"/>
      <point x="372" y="580"/>
      <point x="417" y="619"/>
      <point x="417" y="679" type="curve" smooth="yes"/>
      <point x="417" y="738"/>
      <point x="372" y="776"/>
      <point x="320" y="776" type="curve" smooth="yes"/>
      <point x="267" y="776"/>
      <point x="221" y="738"/>
      <point x="221" y="679" type="curve" smooth="yes"/>
      <point x="221" y="619"/>
      <point x="267" y="580"/>
    </contour>
    <contour>
      <point x="320" y="621" type="curve" smooth="yes"/>
      <point x="289" y="621"/>
      <point x="264" y="641"/>
      <point x="264" y="679" type="curve" smooth="yes"/>
      <point x="264" y="715"/>
      <point x="289" y="736"/>
      <point x="320" y="736" type="curve" smooth="yes"/>
      <point x="351" y="736"/>
      <point x="375" y="715"/>
      <point x="375" y="679" type="curve" smooth="yes"/>
      <point x="375" y="641"/>
      <point x="351" y="621"/>
    </contour>
  </outline>
</glyph>
<glyph name="breveinvertedcomb" format="2">
  <unicode hex="0311"/>
  <anchor x="294" y="518" name="_top"/>
  <anchor x="355" y="776" name="top"/>
  <outline>
    <contour>
      <point x="191" y="610" type="curve"/>
      <point x="241" y="610" type="line"/>
      <point x="246" y="633"/>
      <point x="267" y="687"/>
      <point x="333" y="687" type="curve" smooth="yes"/>
      <point x="373" y="687"/>
      <point x="394" y="664"/>
      <point x="394" y="628" type="curve" smooth="yes"/>
      <point x="394" y="622"/>
      <point x="393" y="616"/>
      <point x="392" y="610" type="curve"/>
      <point x="442" y="610" type="line"/>
      <point x="444" y="622"/>
      <point x="445" y="634"/>
      <point x="445" y="643" type="curve" smooth="yes"/>
      <point x="445" y="704"/>
      <point x="408" y="747"/>
      <point x="342" y="747" type="curve" smooth="yes"/>
      <point x="261" y="747"/>
      <point x="202" y="704"/>
    </contour>
  </outline>
</glyph>
<glyph name="strokeshortcomb" format="2">
  <unicode hex="0335"/>
  <anchor x="145" y="275" name="_center"/>
  <outline>
    <contour>
      <point x="17" y="246" type="line"/>
      <point x="259" y="246" type="line"/>
      <point x="273" y="304" type="line"/>
      <point x="31" y="304" type="line"/>
    </contour>
  </outline>
</glyph>
<glyph name="tonos" format="2">
  <advance width="359"/>
  <unicode hex="0384"/>
  <anchor x="220" y="518" name="_top"/>
  <outline>
    <contour>
      <point x="226" y="575" type="line"/>
      <point x="369" y="724" type="line"/>
      <point x="313" y="772" type="line"/>
      <point x="178" y="608" type="line"/>
    </contour>
  </outline>
</glyph>
<glyph name="dieresistonos" format="2">
  <advance width="378"/>
  <unicode hex="0385"/>
  <anchor x="246" y="518" name="_top"/>
  <outline>
    <contour>
      <point x="259" y="579" type="line"/>
      <point x="372" y="728" type="line"/>
      <point x="319" y="766" type="line"/>
      <point x="214" y="605" type="line"/>
    </contour>
    <contour>
      <point x="143" y="621" type="curve" smooth="yes"/>
      <point x="178" y="621"/>
      <point x="199" y="652"/>
      <point x="199" y="681" type="curve" smooth="yes"/>
      <point x="199" y="706"/>
      <point x="183" y="727"/>
      <point x="150" y="727" type="curve" smooth="yes"/>
      <point x="115" y="727"/>
      <point x="94" y="697"/>
      <point x="94" y="667" type="curve" smooth="yes"/>
      <point x="94" y="642"/>
      <point x="110" y="621"/>
    </contour>
    <contour>
      <point x="437" y="621" type="curve" smooth="yes"/>
      <point x="473" y="621"/>
      <point x="493" y="652"/>
      <point x="493" y="681" type="curve" smooth="yes"/>
      <point x="493" y="706"/>
      <point x="477" y="727"/>
      <point x="445" y="727" type="curve" smooth="yes"/>
      <point x="410" y="727"/>
      <point x="388" y="697"/>
      <point x="388" y="667" type="curve" smooth="yes"/>
      <point x="388" y="642"/>
      <point x="404" y="621"/>
    </contour>
  </outline>
</glyph>
<glyph name="Theta" format="2">
  <advance width="760"/>
  <unicode hex="0398"/>
  <outline>
    <contour>
      <point x="329" y="-15" type="curve" smooth="yes"/>
      <point x="531" y="-15"/>
      <point x="724" y="165"/>
      <point x="724" y="434" type="curve" smooth="yes"/>
      <point x="724" y="618"/>
      <point x="609" y="708"/>
      <point x="473" y="708" type="curve" smooth="yes"/>
      <point x="271" y="708"/>
      <point x="78" y="528"/>
      <point x="78" y="260" type="curve" smooth="yes"/>
      <point x="78" y="75"/>
      <point x="193" y="-15"/>
    </contour>
    <contour>
      <point x="336" y="54" type="curve" smooth="yes"/>
      <point x="237" y="54"/>
      <point x="160" y="120"/>
      <point x="160" y="252" type="curve" smooth="yes"/>
      <point x="160" y="495"/>
      <point x="308" y="639"/>
      <point x="466" y="639" type="curve" smooth="yes"/>
      <point x="565" y="639"/>
      <point x="642" y="573"/>
      <point x="642" y="442" type="curve" smooth="yes"/>
      <point x="642" y="198"/>
      <point x="494" y="54"/>
    </contour>
    <contour>
      <point x="249" y="316" type="line"/>
      <point x="536" y="316" type="line"/>
      <point x="552" y="382" type="line"/>
      <point x="265" y="382" type="line"/>
    </contour>
  </outline>
</glyph>
<glyph name="Phi" format="2">
  <advance width="840"/>
  <unicode hex="03A6"/>
  <outline>
    <contour>
      <point x="320" y="0" type="line"/>
      <point x="395" y="0" type="line"/>
      <point x="416" y="86" type="line"/>
      <point x="654" y="82"/>
      <point x="810" y="258"/>
      <point x="810" y="429" type="curve" smooth="yes"/>
      <point x="810" y="552"/>
      <point x="733" y="645"/>
      <point x="552" y="656" type="curve"/>
      <point x="572" y="738" type="line"/>
      <point x="497" y="738" type="line"/>
      <point x="477" y="656" type="line"/>
      <point x="221" y="655"/>
      <point x="85" y="476"/>
      <point x="85" y="317" type="curve" smooth="yes"/>
      <point x="85" y="195"/>
      <point x="166" y="88"/>
      <point x="340" y="86" type="curve"/>
    </contour>
    <contour>
      <point x="356" y="150" type="line"/>
      <point x="222" y="151"/>
      <point x="163" y="218"/>
      <point x="163" y="316" type="curve" smooth="yes"/>
      <point x="163" y="444"/>
      <point x="275" y="591"/>
      <point x="462" y="593" type="curve"/>
    </contour>
    <contour>
      <point x="431" y="149" type="curve"/>
      <point x="537" y="592" type="line"/>
      <point x="665" y="591"/>
      <point x="732" y="528"/>
      <point x="732" y="425" type="curve" smooth="yes"/>
      <point x="732" y="296"/>
      <point x="619" y="156"/>
    </contour>
  </outline>
</glyph>
<glyph name="beta" format="2">
  <advance width="557"/>
  <unicode hex="03B2"/>
  <outline>
    <contour>
      <point x="-21" y="-185" type="line"/>
      <point x="54" y="-185" type="line"/>
      <point x="103" y="24" type="line"/>
      <point x="164" y="-7"/>
      <point x="215" y="-8"/>
      <point x="240" y="-8" type="curve" smooth="yes"/>
      <point x="435" y="-8"/>
      <point x="512" y="128"/>
      <point x="512" y="252" type="curve" smooth="yes"/>
      <point x="512" y="330"/>
      <point x="471" y="396"/>
      <point x="397" y="422" type="curve"/>
      <point x="508" y="461"/>
      <point x="548" y="547"/>
      <point x="548" y="626" type="curve" smooth="yes"/>
      <point x="548" y="718"/>
      <point x="494" y="776"/>
      <point x="389" y="776" type="curve" smooth="yes"/>
      <point x="278" y="776"/>
      <point x="193" y="708"/>
      <point x="155" y="547" type="curve" smooth="yes"/>
    </contour>
    <contour>
      <point x="239" y="59" type="curve" smooth="yes"/>
      <point x="219" y="59"/>
      <point x="171" y="64"/>
      <point x="120" y="91" type="curve"/>
      <point x="229" y="544" type="line" smooth="yes"/>
      <point x="256" y="660"/>
      <point x="317" y="711"/>
      <point x="384" y="711" type="curve" smooth="yes"/>
      <point x="443" y="711"/>
      <point x="474" y="673"/>
      <point x="474" y="614" type="curve" smooth="yes"/>
      <point x="474" y="536"/>
      <point x="411" y="452"/>
      <point x="302" y="452" type="curve" smooth="yes"/>
      <point x="291" y="452" type="line"/>
      <point x="276" y="389" type="line"/>
      <point x="292" y="389" type="line" smooth="yes"/>
      <point x="388" y="389"/>
      <point x="435" y="329"/>
      <point x="435" y="252" type="curve" smooth="yes"/>
      <point x="435" y="151"/>
      <point x="369" y="59"/>
    </contour>
  </outline>
</glyph>
<glyph name="zeta" format="2">
  <advance width="438"/>
  <unicode hex="03B6"/>
  <outline>
    <contour>
      <point x="283" y="-190" type="line"/>
      <point x="336" y="-146"/>
      <point x="365" y="-76"/>
      <point x="365" y="-33" type="curve" smooth="yes"/>
      <point x="365" y="38"/>
      <point x="308" y="56"/>
      <point x="248" y="73" type="curve" smooth="yes"/>
      <point x="180" y="93"/>
      <point x="107" y="109"/>
      <point x="107" y="195" type="curve" smooth="yes"/>
      <point x="107" y="376"/>
      <point x="392" y="611"/>
      <point x="525" y="710" type="curve"/>
      <point x="539" y="769" type="line"/>
      <point x="206" y="769" type="line"/>
      <point x="192" y="706" type="line"/>
      <point x="428" y="706" type="line"/>
      <point x="296" y="603"/>
      <point x="31" y="404"/>
      <point x="31" y="189" type="curve" smooth="yes"/>
      <point x="31" y="53"/>
      <point x="136" y="38"/>
      <point x="216" y="16" type="curve" smooth="yes"/>
      <point x="258" y="5"/>
      <point x="290" y="-9"/>
      <point x="290" y="-50" type="curve" smooth="yes"/>
      <point x="290" y="-91"/>
      <point x="265" y="-127"/>
      <point x="228" y="-160" type="curve"/>
    </contour>
  </outline>
</glyph>
<glyph name="eta" format="2">
  <advance width="549"/>
  <unicode hex="03B7"/>
  <anchor x="65" y="0" name="bottom"/>
  <anchor x="332" y="518" name="top"/>
  <outline>
    <contour>
      <point x="298" y="-185" type="line"/>
      <point x="373" y="-185" type="line"/>
      <point x="481" y="263" type="line" smooth="yes"/>
      <point x="490" y="299"/>
      <point x="495" y="335"/>
      <point x="495" y="367" type="curve" smooth="yes"/>
      <point x="495" y="459"/>
      <point x="444" y="528"/>
      <point x="321" y="528" type="curve" smooth="yes"/>
      <point x="264" y="528"/>
      <point x="195" y="516"/>
      <point x="143" y="499" type="curve"/>
      <point x="24" y="0" type="line"/>
      <point x="98" y="0" type="line"/>
      <point x="206" y="448" type="line"/>
      <point x="228" y="454"/>
      <point x="270" y="461"/>
      <point x="307" y="461" type="curve" smooth="yes"/>
      <point x="398" y="461"/>
      <point x="420" y="411"/>
      <point x="420" y="362" type="curve" smooth="yes"/>
      <point x="420" y="330"/>
      <point x="411" y="282"/>
      <point x="400" y="238" type="curve" smooth="yes"/>
    </contour>
  </outline>
</glyph>
<glyph name="theta" format="2">
  <advance width="572"/>
  <unicode hex="03B8"/>
  <outline>
    <contour>
      <point x="234" y="-15" type="curve" smooth="yes"/>
      <point x="430" y="-15"/>
      <point x="556" y="254"/>
      <point x="556" y="551" type="curve" smooth="yes"/>
      <point x="556" y="704"/>
      <point x="498" y="776"/>
      <point x="392" y="776" type="curve" smooth="yes"/>
      <point x="196" y="776"/>
      <point x="69" y="507"/>
      <point x="69" y="211" type="curve" smooth="yes"/>
      <point x="69" y="58"/>
      <point x="127" y="-15"/>
    </contour>
    <contour>
      <point x="244" y="53" type="curve" smooth="yes"/>
      <point x="182" y="53"/>
      <point x="144" y="87"/>
      <point x="144" y="211" type="curve" smooth="yes"/>
      <point x="144" y="260"/>
      <point x="148" y="309"/>
      <point x="156" y="355" type="curve"/>
      <point x="459" y="355" type="line"/>
      <point x="421" y="178"/>
      <point x="332" y="53"/>
    </contour>
    <contour>
      <point x="168" y="418" type="line"/>
      <point x="208" y="589"/>
      <point x="294" y="708"/>
      <point x="381" y="708" type="curve" smooth="yes"/>
      <point x="443" y="708"/>
      <point x="480" y="674"/>
      <point x="480" y="550" type="curve" smooth="yes"/>
      <point x="480" y="504"/>
      <point x="477" y="460"/>
      <point x="471" y="418" type="curve"/>
    </contour>
  </outline>
</glyph>
<glyph name="iota" format="2">
  <advance width="258"/>
  <unicode hex="03B9"/>
  <anchor x="175" y="518" name="top"/>
  <outline>
    <contour>
      <point x="173" y="-9" type="curve"/>
      <point x="189" y="51" type="line"/>
      <point x="138" y="61"/>
      <point x="124" y="88"/>
      <point x="124" y="123" type="curve" smooth="yes"/>
      <point x="124" y="146"/>
      <point x="129" y="171"/>
      <point x="135" y="196" type="curve" smooth="yes"/>
      <point x="212" y="518" type="line"/>
      <point x="138" y="518" type="line"/>
      <point x="68" y="226" type="line" smooth="yes"/>
      <point x="58" y="186"/>
      <point x="50" y="146"/>
      <point x="50" y="111" type="curve" smooth="yes"/>
      <point x="50" y="43"/>
      <point x="79" y="-2"/>
    </contour>
  </outline>
</glyph>
<glyph name="kappa" format="2">
  <advance width="521"/>
  <unicode hex="03BA"/>
  <outline>
    <contour>
      <point x="22" y="0" type="line"/>
      <point x="96" y="0" type="line"/>
      <point x="161" y="266" type="line"/>
      <point x="239" y="211"/>
      <point x="321" y="118"/>
      <point x="375" y="0" type="curve"/>
      <point x="456" y="0" type="line"/>
      <point x="423" y="90"/>
      <point x="332" y="216"/>
      <point x="244" y="284" type="curve"/>
      <point x="313" y="328"/>
      <point x="462" y="455"/>
      <point x="513" y="518" type="curve"/>
      <point x="422" y="518" type="line"/>
      <point x="379" y="470"/>
      <point x="261" y="366"/>
      <point x="169" y="302" type="curve"/>
      <point x="221" y="518" type="line"/>
      <point x="147" y="518" type="line"/>
    </contour>
  </outline>
</glyph>
<glyph name="sigmafinal" format="2">
  <advance width="427"/>
  <unicode hex="03C2"/>
  <outline>
    <contour>
      <point x="258" y="-190" type="line"/>
      <point x="310" y="-145"/>
      <point x="341" y="-77"/>
      <point x="341" y="-36" type="curve" smooth="yes"/>
      <point x="341" y="49"/>
      <point x="263" y="61"/>
      <point x="198" y="83" type="curve" smooth="yes"/>
      <point x="158" y="98"/>
      <point x="115" y="125"/>
      <point x="115" y="192" type="curve" smooth="yes"/>
      <point x="115" y="329"/>
      <point x="204" y="463"/>
      <point x="344" y="463" type="curve" smooth="yes"/>
      <point x="382" y="463"/>
      <point x="400" y="456"/>
      <point x="428" y="444" type="curve"/>
      <point x="458" y="512" type="line"/>
      <point x="423" y="523"/>
      <point x="404" y="530"/>
      <point x="353" y="530" type="curve" smooth="yes"/>
      <point x="163" y="530"/>
      <point x="40" y="384"/>
      <point x="40" y="187" type="curve" smooth="yes"/>
      <point x="40" y="77"/>
      <point x="111" y="46"/>
      <point x="165" y="25" type="curve" smooth="yes"/>
      <point x="216" y="5"/>
      <point x="266" y="0"/>
      <point x="266" y="-45" type="curve" smooth="yes"/>
      <point x="266" y="-94"/>
      <point x="237" y="-130"/>
      <point x="204" y="-160" type="curve"/>
    </contour>
  </outline>
</glyph>
<glyph name="sigma" format="2">
  <advance width="553"/>
  <unicode hex="03C3"/>
  <outline>
    <contour>
      <point x="214" y="-12" type="curve" smooth="yes"/>
      <point x="347" y="-12"/>
      <point x="480" y="91"/>
      <point x="480" y="303" type="curve" smooth="yes"/>
      <point x="480" y="356"/>
      <point x="469" y="408"/>
      <point x="446" y="455" type="curve"/>
      <point x="581" y="455" type="line"/>
      <point x="595" y="518" type="line"/>
      <point x="345" y="518" type="line" smooth="yes"/>
      <point x="145" y="518"/>
      <point x="40" y="337"/>
      <point x="40" y="187" type="curve" smooth="yes"/>
      <point x="40" y="55"/>
      <point x="108" y="-12"/>
    </contour>
    <contour>
      <point x="217" y="54" type="curve" smooth="yes"/>
      <point x="140" y="54"/>
      <point x="115" y="119"/>
      <point x="115" y="196" type="curve" smooth="yes"/>
      <point x="115" y="312"/>
      <point x="191" y="455"/>
      <point x="349" y="455" type="curve" smooth="yes"/>
      <point x="368" y="455" type="line"/>
      <point x="393" y="415"/>
      <point x="405" y="364"/>
      <point x="405" y="311" type="curve" smooth="yes"/>
      <point x="405" y="176"/>
      <point x="345" y="54"/>
    </contour>
  </outline>
</glyph>
<glyph name="chi" format="2">
  <advance width="489"/>
  <unicode hex="03C7"/>
  <outline>
    <contour>
      <point x="-49" y="-185" type="line"/>
      <point x="39" y="-185" type="line"/>
      <point x="228" y="124" type="line"/>
      <point x="273" y="14"/>
      <point x="304" y="-102"/>
      <point x="322" y="-185" type="curve"/>
      <point x="399" y="-185" type="line"/>
      <point x="370" y="-64"/>
      <point x="328" y="64"/>
      <point x="278" y="182" type="curve"/>
      <point x="357" y="296"/>
      <point x="430" y="419"/>
      <point x="483" y="518" type="curve"/>
      <point x="402" y="518" type="line"/>
      <point x="370" y="454"/>
      <point x="313" y="351"/>
      <point x="246" y="245" type="curve"/>
      <point x="149" y="518" type="line"/>
      <point x="64" y="518" type="line"/>
      <point x="197" y="187" type="line"/>
    </contour>
  </outline>
</glyph>
<glyph name="psi" format="2">
  <advance width="689"/>
  <unicode hex="03C8"/>
  <outline>
    <contour>
      <point x="199" y="-185" type="line"/>
      <point x="274" y="-185" type="line"/>
      <point x="315" y="-11" type="line"/>
      <point x="518" y="-4"/>
      <point x="593" y="91"/>
      <point x="634" y="259" type="curve" smooth="yes"/>
      <point x="697" y="518" type="line"/>
      <point x="622" y="518" type="line"/>
      <point x="565" y="277" type="line" smooth="yes"/>
      <point x="539" y="170"/>
      <point x="499" y="69"/>
      <point x="331" y="57" type="curve"/>
      <point x="440" y="518" type="line"/>
      <point x="366" y="518" type="line"/>
      <point x="256" y="56" type="line"/>
      <point x="156" y="61"/>
      <point x="116" y="103"/>
      <point x="116" y="182" type="curve" smooth="yes"/>
      <point x="116" y="209"/>
      <point x="121" y="240"/>
      <point x="129" y="275" type="curve" smooth="yes"/>
      <point x="188" y="518" type="line"/>
      <point x="114" y="518" type="line"/>
      <point x="53" y="267" type="line" smooth="yes"/>
      <point x="45" y="235"/>
      <point x="41" y="206"/>
      <point x="41" y="180" type="curve" smooth="yes"/>
      <point x="41" y="62"/>
      <point x="115" y="-2"/>
      <point x="241" y="-11" type="curve"/>
    </contour>
  </outline>
</glyph>
<glyph name="omega" format="2">
  <advance width="788"/>
  <unicode hex="03C9"/>
  <anchor x="349" y="0" name="bottom"/>
  <anchor x="450" y="518" name="top"/>
  <outline>
    <contour>
      <point x="190" y="-10" type="curve" smooth="yes"/>
      <point x="264" y="-10"/>
      <point x="331" y="30"/>
      <point x="365" y="90" type="curve"/>
      <point x="385" y="26"/>
      <point x="436" y="-10"/>
      <point x="506" y="-10" type="curve" smooth="yes"/>
      <point x="621" y="-10"/>
      <point x="743" y="68"/>
      <point x="743" y="294" type="curve" smooth="yes"/>
      <point x="743" y="388"/>
      <point x="721" y="472"/>
      <point x="695" y="527" type="curve"/>
      <point x="623" y="500" type="line"/>
      <point x="642" y="459"/>
      <point x="667" y="377"/>
      <point x="667" y="297" type="curve" smooth="yes"/>
      <point x="667" y="139"/>
      <point x="600" y="57"/>
      <point x="509" y="57" type="curve" smooth="yes"/>
      <point x="441" y="57"/>
      <point x="424" y="108"/>
      <point x="424" y="163" type="curve" smooth="yes"/>
      <point x="424" y="205"/>
      <point x="434" y="250"/>
      <point x="441" y="278" type="curve" smooth="yes"/>
      <point x="475" y="420" type="line"/>
      <point x="401" y="420" type="line"/>
      <point x="370" y="289" type="line" smooth="yes"/>
      <point x="330" y="119"/>
      <point x="282" y="57"/>
      <point x="203" y="57" type="curve" smooth="yes"/>
      <point x="138" y="57"/>
      <point x="115" y="105"/>
      <point x="115" y="168" type="curve" smooth="yes"/>
      <point x="115" y="268"/>
      <point x="177" y="403"/>
      <point x="272" y="497" type="curve"/>
      <point x="212" y="528" type="line"/>
      <point x="108" y="427"/>
      <point x="40" y="287"/>
      <point x="40" y="162" type="curve" smooth="yes"/>
      <point x="40" y="36"/>
      <point x="113" y="-10"/>
    </contour>
  </outline>
</glyph>
<glyph name="E-cy" format="2">
  <advance width="614"/>
  <unicode hex="0404"/>
  <outline>
    <contour>
      <point x="333" y="-15" type="curve" smooth="yes"/>
      <point x="438" y="-15"/>
      <point x="505" y="15"/>
      <point x="530" y="28" type="curve"/>
      <point x="519" y="96" type="line"/>
      <point x="491" y="82"/>
      <point x="442" y="55"/>
      <point x="340" y="55" type="curve" smooth="yes"/>
      <point x="188" y="55"/>
      <point x="157" y="173"/>
      <point x="159" y="276" type="curve" smooth="yes"/>
      <point x="160" y="292"/>
      <point x="161" y="307"/>
      <point x="163" y="321" type="curve"/>
      <point x="459" y="321" type="line"/>
      <point x="476" y="387" type="line"/>
      <point x="177" y="387" type="line"/>
      <point x="212" y="522"/>
      <point x="318" y="639"/>
      <point x="470" y="639" type="curve" smooth="yes"/>
      <point x="547" y="639"/>
      <point x="594" y="611"/>
      <point x="619" y="598" type="curve"/>
      <point x="653" y="667" type="line"/>
      <point x="638" y="676"/>
      <point x="584" y="708"/>
      <point x="475" y="708" type="curve" smooth="yes"/>
      <point x="271" y="708"/>
      <point x="79" y="534"/>
      <point x="79" y="264" type="curve" smooth="yes"/>
      <point x="79" y="87"/>
      <point x="163" y="-15"/>
    </contour>
  </outline>
</glyph>
<glyph name="Tshe-cy" format="2">
  <advance width="728"/>
  <unicode hex="040B"/>
  <outline>
    <contour>
      <point x="167" y="0" type="line"/>
      <point x="245" y="0" type="line"/>
      <point x="327" y="348" type="line"/>
      <point x="370" y="360"/>
      <point x="418" y="367"/>
      <point x="455" y="367" type="curve" smooth="yes"/>
      <point x="544" y="367"/>
      <point x="573" y="333"/>
      <point x="573" y="278" type="curve" smooth="yes"/>
      <point x="573" y="257"/>
      <point x="568" y="233"/>
      <point x="563" y="207" type="curve" smooth="yes"/>
      <point x="513" y="0" type="line"/>
      <point x="591" y="0" type="line"/>
      <point x="641" y="211" type="line" smooth="yes"/>
      <point x="648" y="241"/>
      <point x="652" y="269"/>
      <point x="652" y="293" type="curve" smooth="yes"/>
      <point x="652" y="384"/>
      <point x="601" y="435"/>
      <point x="485" y="435" type="curve" smooth="yes"/>
      <point x="442" y="435"/>
      <point x="389" y="429"/>
      <point x="343" y="415" type="curve"/>
      <point x="395" y="626" type="line"/>
      <point x="619" y="626" type="line"/>
      <point x="634" y="693" type="line"/>
      <point x="136" y="693" type="line"/>
      <point x="120" y="626" type="line"/>
      <point x="317" y="626" type="line"/>
    </contour>
  </outline>
</glyph>
<glyph name="Ze-cy" format="2">
  <advance width="540"/>
  <unicode hex="0417"/>
  <anchor x="145" y="0" name="bottom"/>
  <anchor x="341" y="674" name="top"/>
  <outline>
    <contour>
      <point x="169" y="-15" type="curve" smooth="yes"/>
      <point x="332" y="-15"/>
      <point x="474" y="48"/>
      <point x="474" y="225" type="curve" smooth="yes"/>
      <point x="474" y="310"/>
      <point x="419" y="351"/>
      <point x="360" y="371" type="curve"/>
      <point x="434" y="393"/>
      <point x="522" y="450"/>
      <point x="522" y="553" type="curve" smooth="yes"/>
      <point x="522" y="660"/>
      <point x="444" y="708"/>
      <point x="327" y="708" type="curve" smooth="yes"/>
      <point x="264" y="708"/>
      <point x="174" y="684"/>
      <point x="149" y="666" type="curve"/>
      <point x="160" y="604" type="line"/>
      <point x="187" y="617"/>
      <point x="234" y="641"/>
      <point x="322" y="641" type="curve" smooth="yes"/>
      <point x="415" y="641"/>
      <point x="442" y="601"/>
      <point x="442" y="549" type="curve" smooth="yes"/>
      <point x="442" y="452"/>
      <point x="338" y="400"/>
      <point x="237" y="400" type="curve" smooth="yes"/>
      <point x="180" y="400" type="line"/>
      <point x="164" y="334" type="line"/>
      <point x="214" y="334" type="line" smooth="yes"/>
      <point x="310" y="334"/>
      <point x="393" y="313"/>
      <point x="393" y="220" type="curve" smooth="yes"/>
      <point x="393" y="98"/>
      <point x="295" y="53"/>
      <point x="174" y="53" type="curve" smooth="yes"/>
      <point x="94" y="53"/>
      <point x="39" y="83"/>
      <point x="18" y="98" type="curve"/>
      <point x="-20" y="31" type="line"/>
      <point x="1" y="17"/>
      <point x="66" y="-15"/>
    </contour>
  </outline>
</glyph>
<glyph name="Tse-cy" format="2">
  <advance width="687"/>
  <unicode hex="0426"/>
  <outline>
    <contour>
      <point x="479" y="-185" type="line"/>
      <point x="553" y="-185" type="line"/>
      <point x="614" y="67" type="line"/>
      <point x="539" y="67" type="line"/>
      <point x="689" y="693" type="line"/>
      <point x="611" y="693" type="line"/>
      <point x="461" y="67" type="line"/>
      <point x="118" y="67" type="line"/>
      <point x="268" y="693" type="line"/>
      <point x="190" y="693" type="line"/>
      <point x="24" y="0" type="line"/>
      <point x="524" y="0" type="line"/>
    </contour>
  </outline>
</glyph>
<glyph name="Hardsign-cy" format="2">
  <advance width="695"/>
  <unicode hex="042A"/>
  <outline>
    <contour>
      <point x="293" y="-6" type="curve" smooth="yes"/>
      <point x="468" y="-6"/>
      <point x="630" y="63"/>
      <point x="630" y="267" type="curve" smooth="yes"/>
      <point x="630" y="388"/>
      <point x="537" y="438"/>
      <point x="383" y="438" type="curve" smooth="yes"/>
      <point x="357" y="438"/>
      <point x="332" y="435"/>
      <point x="294" y="432" type="curve"/>
      <point x="356" y="693" type="line"/>
      <point x="115" y="693" type="line"/>
      <point x="99" y="626" type="line"/>
      <point x="262" y="626" type="line"/>
      <point x="115" y="13" type="line"/>
      <point x="159" y="1"/>
      <point x="235" y="-6"/>
    </contour>
    <contour>
      <point x="299" y="61" type="curve" smooth="yes"/>
      <point x="252" y="61"/>
      <point x="216" y="66"/>
      <point x="205" y="68" type="curve"/>
      <point x="278" y="365" type="line"/>
      <point x="292" y="366"/>
      <point x="316" y="371"/>
      <point x="378" y="371" type="curve" smooth="yes"/>
      <point x="477" y="371"/>
      <point x="551" y="350"/>
      <point x="551" y="260" type="curve" smooth="yes"/>
      <point x="551" y="98"/>
      <point x="422" y="61"/>
    </contour>
  </outline>
</glyph>
<glyph name="Softsign-cy" format="2">
  <advance width="607"/>
  <unicode hex="042C"/>
  <outline>
    <contour>
      <point x="206" y="-6" type="curve" smooth="yes"/>
      <point x="381" y="-6"/>
      <point x="542" y="63"/>
      <point x="542" y="267" type="curve" smooth="yes"/>
      <point x="542" y="388"/>
      <point x="449" y="438"/>
      <point x="296" y="438" type="curve" smooth="yes"/>
      <point x="270" y="438"/>
      <point x="244" y="435"/>
      <point x="206" y="432" type="curve"/>
      <point x="268" y="693" type="line"/>
      <point x="190" y="693" type="line"/>
      <point x="27" y="13" type="line"/>
      <point x="72" y="1"/>
      <point x="147" y="-6"/>
    </contour>
    <contour>
      <point x="211" y="61" type="curve" smooth="yes"/>
      <point x="164" y="61"/>
      <point x="129" y="66"/>
      <point x="118" y="68" type="curve"/>
      <point x="190" y="365" type="line"/>
      <point x="204" y="366"/>
      <point x="228" y="371"/>
      <point x="290" y="371" type="curve" smooth="yes"/>
      <point x="389" y="371"/>
      <point x="464" y="350"/>
      <point x="464" y="260" type="curve" smooth="yes"/>
      <point x="464" y="98"/>
      <point x="334" y="61"/>
    </contour>
  </outline>
</glyph>
<glyph name="Yu-cy" format="2">
  <advance width="998"/>
  <unicode hex="042E"/>
  <outline>
    <contour>
      <point x="584" y="-15" type="curve" smooth="yes"/>
      <point x="777" y="-15"/>
      <point x="961" y="165"/>
      <point x="961" y="434" type="curve" smooth="yes"/>
      <point x="961" y="618"/>
      <point x="854" y="708"/>
      <point x="728" y="708" type="curve" smooth="yes"/>
      <point x="571" y="708"/>
      <point x="418" y="588"/>
      <point x="368" y="396" type="curve"/>
      <point x="195" y="396" type="line"/>
      <point x="268" y="693" type="line"/>
      <point x="190" y="693" type="line"/>
      <point x="24" y="0" type="line"/>
      <point x="102" y="0" type="line"/>
      <point x="181" y="329" type="line"/>
      <point x="356" y="329" type="line"/>
      <point x="353" y="307"/>
      <point x="351" y="284"/>
      <point x="351" y="260" type="curve" smooth="yes"/>
      <point x="351" y="75"/>
      <point x="458" y="-15"/>
    </contour>
    <contour>
      <point x="591" y="54" type="curve" smooth="yes"/>
      <point x="502" y="54"/>
      <point x="433" y="120"/>
      <point x="433" y="252" type="curve" smooth="yes"/>
      <point x="433" y="495"/>
      <point x="573" y="639"/>
      <point x="721" y="639" type="curve" smooth="yes"/>
      <point x="811" y="639"/>
      <point x="879" y="573"/>
      <point x="879" y="442" type="curve" smooth="yes"/>
      <point x="879" y="198"/>
      <point x="740" y="54"/>
    </contour>
  </outline>
</glyph>
<glyph name="be-cy" format="2">
  <advance width="544"/>
  <unicode hex="0431"/>
  <outline>
    <contour>
      <point x="219" y="-12" type="curve" smooth="yes"/>
      <point x="428" y="-12"/>
      <point x="496" y="206"/>
      <point x="496" y="337" type="curve" smooth="yes"/>
      <point x="496" y="427"/>
      <point x="445" y="512"/>
      <point x="338" y="512" type="curve" smooth="yes"/>
      <point x="309" y="512"/>
      <point x="255" y="509"/>
      <point x="188" y="464" type="curve"/>
      <point x="235" y="596"/>
      <point x="310" y="677"/>
      <point x="471" y="690" type="curve" smooth="yes"/>
      <point x="521" y="694"/>
      <point x="555" y="704"/>
      <point x="572" y="709" type="curve"/>
      <point x="575" y="776" type="line"/>
      <point x="549" y="769"/>
      <point x="520" y="761"/>
      <point x="465" y="754" type="curve" smooth="yes"/>
      <point x="205" y="720"/>
      <point x="138" y="579"/>
      <point x="75" y="346" type="curve" smooth="yes"/>
      <point x="61" y="294"/>
      <point x="50" y="227"/>
      <point x="50" y="176" type="curve" smooth="yes"/>
      <point x="50" y="75"/>
      <point x="102" y="-12"/>
    </contour>
    <contour>
      <point x="234" y="54" type="curve" smooth="yes"/>
      <point x="151" y="54"/>
      <point x="128" y="104"/>
      <point x="128" y="188" type="curve" smooth="yes"/>
      <point x="128" y="253"/>
      <point x="144" y="315"/>
      <point x="164" y="385" type="curve"/>
      <point x="224" y="435"/>
      <point x="284" y="446"/>
      <point x="313" y="446" type="curve" smooth="yes"/>
      <point x="395" y="446"/>
      <point x="418" y="396"/>
      <point x="418" y="326" type="curve" smooth="yes"/>
      <point x="418" y="208"/>
      <point x="357" y="54"/>
    </contour>
  </outline>
</glyph>
<glyph name="de-cy" format="2">
  <advance width="536"/>
  <unicode hex="0434"/>
  <outline>
    <contour>
      <point x="210" y="-12" type="curve" smooth="yes"/>
      <point x="460" y="-12"/>
      <point x="497" y="291"/>
      <point x="497" y="443" type="curve" smooth="yes"/>
      <point x="497" y="671"/>
      <point x="409" y="776"/>
      <point x="248" y="776" type="curve" smooth="yes"/>
      <point x="194" y="776"/>
      <point x="161" y="768"/>
      <point x="148" y="763" type="curve"/>
      <point x="155" y="697" type="line"/>
      <point x="169" y="703"/>
      <point x="198" y="710"/>
      <point x="232" y="710" type="curve" smooth="yes"/>
      <point x="357" y="710"/>
      <point x="414" y="643"/>
      <point x="424" y="484" type="curve"/>
      <point x="397" y="501"/>
      <point x="352" y="514"/>
      <point x="312" y="514" type="curve" smooth="yes"/>
      <point x="123" y="514"/>
      <point x="49" y="333"/>
      <point x="49" y="171" type="curve" smooth="yes"/>
      <point x="49" y="70"/>
      <point x="99" y="-12"/>
    </contour>
    <contour>
      <point x="223" y="54" type="curve" smooth="yes"/>
      <point x="158" y="54"/>
      <point x="122" y="92"/>
      <point x="122" y="166" type="curve" smooth="yes"/>
      <point x="122" y="329"/>
      <point x="188" y="449"/>
      <point x="313" y="449" type="curve" smooth="yes"/>
      <point x="369" y="449"/>
      <point x="402" y="432"/>
      <point x="426" y="418" type="curve"/>
      <point x="424" y="248"/>
      <point x="359" y="54"/>
    </contour>
  </outline>
</glyph>
<glyph name="ef-cy" format="2">
  <advance width="729"/>
  <unicode hex="0444"/>
  <outline>
    <contour>
      <point x="222" y="-185" type="line"/>
      <point x="295" y="-185" type="line"/>
      <point x="337" y="-7" type="line"/>
      <point x="566" y="0"/>
      <point x="688" y="130"/>
      <point x="688" y="311" type="curve" smooth="yes"/>
      <point x="688" y="432"/>
      <point x="609" y="511"/>
      <point x="466" y="525" type="curve"/>
      <point x="526" y="776" type="line"/>
      <point x="449" y="763" type="line"/>
      <point x="392" y="527" type="line"/>
      <point x="173" y="518"/>
      <point x="46" y="394"/>
      <point x="46" y="208" type="curve" smooth="yes"/>
      <point x="46" y="89"/>
      <point x="114" y="7"/>
      <point x="265" y="-5" type="curve"/>
    </contour>
    <contour>
      <point x="278" y="53" type="line"/>
      <point x="175" y="62"/>
      <point x="120" y="113"/>
      <point x="120" y="214" type="curve" smooth="yes"/>
      <point x="120" y="376"/>
      <point x="235" y="456"/>
      <point x="377" y="465" type="curve"/>
    </contour>
    <contour>
      <point x="352" y="52" type="curve"/>
      <point x="451" y="463" type="line"/>
      <point x="557" y="453"/>
      <point x="613" y="397"/>
      <point x="613" y="305" type="curve" smooth="yes"/>
      <point x="613" y="168"/>
      <point x="528" y="61"/>
    </contour>
  </outline>
</glyph>
<glyph name="shcha-cy" format="2">
  <advance width="847"/>
  <unicode hex="0449"/>
  <outline>
    <contour>
      <point x="667" y="-144" type="line"/>
      <point x="738" y="-144" type="line"/>
      <point x="789" y="59" type="line"/>
      <point x="722" y="63"/>
      <point x="702" y="87"/>
      <point x="702" y="124" type="curve" smooth="yes"/>
      <point x="702" y="146"/>
      <point x="709" y="173"/>
      <point x="715" y="201" type="curve" smooth="yes"/>
      <point x="793" y="518" type="line"/>
      <point x="719" y="518" type="line"/>
      <point x="652" y="247" type="line" smooth="yes"/>
      <point x="645" y="221"/>
      <point x="627" y="143"/>
      <point x="629" y="114" type="curve"/>
      <point x="590" y="75"/>
      <point x="540" y="56"/>
      <point x="491" y="56" type="curve" smooth="yes"/>
      <point x="434" y="56"/>
      <point x="413" y="95"/>
      <point x="413" y="147" type="curve" smooth="yes"/>
      <point x="413" y="190"/>
      <point x="427" y="241"/>
      <point x="438" y="284" type="curve" smooth="yes"/>
      <point x="494" y="518" type="line"/>
      <point x="419" y="518" type="line"/>
      <point x="357" y="258" type="line" smooth="yes"/>
      <point x="346" y="216"/>
      <point x="340" y="174"/>
      <point x="340" y="137" type="curve" smooth="yes"/>
      <point x="340" y="123"/>
      <point x="340" y="110"/>
      <point x="343" y="98" type="curve"/>
      <point x="307" y="73"/>
      <point x="255" y="55"/>
      <point x="207" y="55" type="curve" smooth="yes"/>
      <point x="155" y="55"/>
      <point x="113" y="74"/>
      <point x="113" y="147" type="curve" smooth="yes"/>
      <point x="113" y="190"/>
      <point x="128" y="241"/>
      <point x="138" y="284" type="curve" smooth="yes"/>
      <point x="195" y="518" type="line"/>
      <point x="120" y="518" type="line"/>
      <point x="57" y="258" type="line" smooth="yes"/>
      <point x="47" y="216"/>
      <point x="40" y="174"/>
      <point x="40" y="137" type="curve" smooth="yes"/>
      <point x="40" y="24"/>
      <point x="107" y="-13"/>
      <point x="193" y="-13" type="curve" smooth="yes"/>
      <point x="253" y="-13"/>
      <point x="317" y="4"/>
      <point x="366" y="38" type="curve"/>
      <point x="389" y="7"/>
      <point x="427" y="-12"/>
      <point x="481" y="-12" type="curve" smooth="yes"/>
      <point x="572" y="-12"/>
      <point x="633" y="32"/>
      <point x="651" y="52" type="curve"/>
      <point x="662" y="34"/>
      <point x="681" y="15"/>
      <point x="706" y="9" type="curve"/>
    </contour>
  </outline>
</glyph>
<glyph name="hardsign-cy" format="2">
  <advance width="562"/>
  <unicode hex="044A"/>
  <outline>
    <contour>
      <point x="248" y="-11" type="curve" smooth="yes"/>
      <point x="368" y="-11"/>
      <point x="503" y="33"/>
      <point x="503" y="193" type="curve" smooth="yes"/>
      <point x="503" y="289"/>
      <point x="439" y="328"/>
      <point x="329" y="328" type="curve" smooth="yes"/>
      <point x="297" y="328"/>
      <point x="240" y="319"/>
      <point x="216" y="313" type="curve"/>
      <point x="265" y="518" type="line"/>
      <point x="74" y="518" type="line"/>
      <point x="59" y="455" type="line"/>
      <point x="176" y="455" type="line"/>
      <point x="70" y="12" type="line"/>
      <point x="116" y="-2"/>
      <point x="180" y="-11"/>
    </contour>
    <contour>
      <point x="256" y="53" type="curve" smooth="yes"/>
      <point x="205" y="53"/>
      <point x="175" y="60"/>
      <point x="156" y="63" type="curve"/>
      <point x="201" y="250" type="line"/>
      <point x="225" y="256"/>
      <point x="271" y="264"/>
      <point x="317" y="264" type="curve" smooth="yes"/>
      <point x="397" y="264"/>
      <point x="427" y="237"/>
      <point x="427" y="183" type="curve" smooth="yes"/>
      <point x="427" y="91"/>
      <point x="352" y="53"/>
    </contour>
  </outline>
</glyph>
<glyph name="yu-cy" format="2">
  <advance width="766"/>
  <unicode hex="044E"/>
  <outline>
    <contour>
      <point x="452" y="-12" type="curve" smooth="yes"/>
      <point x="585" y="-12"/>
      <point x="730" y="111"/>
      <point x="730" y="351" type="curve" smooth="yes"/>
      <point x="730" y="466"/>
      <point x="655" y="529"/>
      <point x="561" y="529" type="curve" smooth="yes"/>
      <point x="457" y="529"/>
      <point x="342" y="452"/>
      <point x="299" y="300" type="curve"/>
      <point x="170" y="300" type="line"/>
      <point x="222" y="518" type="line"/>
      <point x="148" y="518" type="line"/>
      <point x="24" y="0" type="line"/>
      <point x="98" y="0" type="line"/>
      <point x="154" y="237" type="line"/>
      <point x="287" y="237" type="line"/>
      <point x="284" y="215"/>
      <point x="283" y="192"/>
      <point x="283" y="167" type="curve" smooth="yes"/>
      <point x="283" y="51"/>
      <point x="358" y="-12"/>
    </contour>
    <contour>
      <point x="457" y="54" type="curve" smooth="yes"/>
      <point x="401" y="54"/>
      <point x="358" y="95"/>
      <point x="358" y="172" type="curve" smooth="yes"/>
      <point x="358" y="363"/>
      <point x="465" y="463"/>
      <point x="556" y="463" type="curve" smooth="yes"/>
      <point x="612" y="463"/>
      <point x="655" y="422"/>
      <point x="655" y="345" type="curve" smooth="yes"/>
      <point x="655" y="154"/>
      <point x="548" y="54"/>
    </contour>
  </outline>
</glyph>
<glyph name="dje-cy" format="2">
  <advance width="561"/>
  <unicode hex="0452"/>
  <outline>
    <contour>
      <point x="193" y="-171" type="line"/>
      <point x="210" y="-165"/>
      <point x="224" y="-158"/>
      <point x="239" y="-150" type="curve" smooth="yes"/>
      <point x="373" y="-80"/>
      <point x="436" y="39"/>
      <point x="470" y="187" type="curve" smooth="yes"/>
      <point x="477" y="218"/>
      <point x="481" y="248"/>
      <point x="481" y="276" type="curve" smooth="yes"/>
      <point x="481" y="365"/>
      <point x="441" y="432"/>
      <point x="330" y="432" type="curve" smooth="yes"/>
      <point x="287" y="432"/>
      <point x="239" y="424"/>
      <point x="195" y="408" type="curve"/>
      <point x="232" y="566" type="line"/>
      <point x="414" y="566" type="line"/>
      <point x="428" y="622" type="line"/>
      <point x="246" y="622" type="line"/>
      <point x="283" y="776" type="line"/>
      <point x="205" y="763" type="line"/>
      <point x="172" y="622" type="line"/>
      <point x="94" y="622" type="line"/>
      <point x="80" y="566" type="line"/>
      <point x="158" y="566" type="line"/>
      <point x="22" y="0" type="line"/>
      <point x="96" y="0" type="line"/>
      <point x="179" y="344" type="line"/>
      <point x="217" y="355"/>
      <point x="263" y="365"/>
      <point x="308" y="365" type="curve" smooth="yes"/>
      <point x="378" y="365"/>
      <point x="405" y="334"/>
      <point x="405" y="272" type="curve" smooth="yes"/>
      <point x="405" y="244"/>
      <point x="399" y="209"/>
      <point x="390" y="168" type="curve" smooth="yes"/>
      <point x="363" y="52"/>
      <point x="304" y="-40"/>
      <point x="215" y="-92" type="curve" smooth="yes"/>
      <point x="201" y="-101"/>
      <point x="187" y="-107"/>
      <point x="171" y="-114" type="curve"/>
    </contour>
  </outline>
</glyph>
<glyph name="nje-cy" format="2">
  <advance width="830"/>
  <unicode hex="045A"/>
  <outline>
    <contour>
      <point x="519" y="-11" type="curve" smooth="yes"/>
      <point x="636" y="-11"/>
      <point x="769" y="34"/>
      <point x="769" y="181" type="curve" smooth="yes"/>
      <point x="769" y="266"/>
      <point x="704" y="307"/>
      <point x="593" y="307" type="curve" smooth="yes"/>
      <point x="558" y="307"/>
      <point x="523" y="307"/>
      <point x="488" y="307" type="curve"/>
      <point x="539" y="518" type="line"/>
      <point x="465" y="518" type="line"/>
      <point x="413" y="303" type="line"/>
      <point x="171" y="303" type="line"/>
      <point x="222" y="518" type="line"/>
      <point x="148" y="518" type="line"/>
      <point x="24" y="0" type="line"/>
      <point x="98" y="0" type="line"/>
      <point x="155" y="241" type="line"/>
      <point x="398" y="241" type="line"/>
      <point x="344" y="12" type="line"/>
      <point x="389" y="-2"/>
      <point x="452" y="-11"/>
    </contour>
    <contour>
      <point x="528" y="53" type="curve" smooth="yes"/>
      <point x="478" y="53"/>
      <point x="448" y="60"/>
      <point x="430" y="63" type="curve"/>
      <point x="473" y="244" type="line"/>
      <point x="509" y="244"/>
      <point x="545" y="244"/>
      <point x="581" y="244" type="curve" smooth="yes"/>
      <point x="663" y="244"/>
      <point x="691" y="221"/>
      <point x="691" y="171" type="curve" smooth="yes"/>
      <point x="691" y="91"/>
      <point x="620" y="53"/>
    </contour>
  </outline>
</glyph>
<glyph name="tshe-cy" format="2">
  <advance width="545"/>
  <unicode hex="045B"/>
  <outline>
    <contour>
      <point x="23" y="0" type="line"/>
      <point x="97" y="0" type="line"/>
      <point x="180" y="344" type="line"/>
      <point x="194" y="350"/>
      <point x="256" y="365"/>
      <point x="298" y="365" type="curve" smooth="yes"/>
      <point x="374" y="365"/>
      <point x="406" y="337"/>
      <point x="406" y="271" type="curve" smooth="yes"/>
      <point x="406" y="244"/>
      <point x="401" y="211"/>
      <point x="391" y="173" type="curve" smooth="yes"/>
      <point x="350" y="0" type="line"/>
      <point x="425" y="0" type="line"/>
      <point x="471" y="192" type="line" smooth="yes"/>
      <point x="479" y="223"/>
      <point x="482" y="254"/>
      <point x="482" y="281" type="curve" smooth="yes"/>
      <point x="482" y="369"/>
      <point x="439" y="432"/>
      <point x="325" y="432" type="curve" smooth="yes"/>
      <point x="283" y="432"/>
      <point x="239" y="423"/>
      <point x="195" y="408" type="curve"/>
      <point x="232" y="566" type="line"/>
      <point x="414" y="566" type="line"/>
      <point x="428" y="622" type="line"/>
      <point x="246" y="622" type="line"/>
      <point x="283" y="776" type="line"/>
      <point x="205" y="763" type="line"/>
      <point x="172" y="622" type="line"/>
      <point x="94" y="622" type="line"/>
      <point x="80" y="566" type="line"/>
      <point x="158" y="566" type="line"/>
    </contour>
  </outline>
</glyph>
<glyph name="Yat-cy" format="2">
  <advance width="694"/>
  <unicode hex="0462"/>
  <outline>
    <contour>
      <point x="299" y="-6" type="curve" smooth="yes"/>
      <point x="514" y="-6"/>
      <point x="628" y="96"/>
      <point x="628" y="257" type="curve" smooth="yes"/>
      <point x="628" y="377"/>
      <point x="538" y="428"/>
      <point x="385" y="428" type="curve" smooth="yes"/>
      <point x="355" y="428"/>
      <point x="325" y="428"/>
      <point x="295" y="428" type="curve"/>
      <point x="333" y="586" type="line"/>
      <point x="523" y="586" type="line"/>
      <point x="539" y="648" type="line"/>
      <point x="349" y="648" type="line"/>
      <point x="370" y="738" type="line"/>
      <point x="292" y="738" type="line"/>
      <point x="270" y="648" type="line"/>
      <point x="99" y="648" type="line"/>
      <point x="84" y="586" type="line"/>
      <point x="255" y="586" type="line"/>
      <point x="118" y="13" type="line"/>
      <point x="166" y="1"/>
      <point x="239" y="-6"/>
    </contour>
    <contour>
      <point x="297" y="61" type="curve" smooth="yes"/>
      <point x="260" y="61"/>
      <point x="218" y="66"/>
      <point x="209" y="68" type="curve"/>
      <point x="280" y="362" type="line"/>
      <point x="313" y="362"/>
      <point x="347" y="362"/>
      <point x="378" y="362" type="curve" smooth="yes"/>
      <point x="471" y="362"/>
      <point x="548" y="344"/>
      <point x="548" y="252" type="curve" smooth="yes"/>
      <point x="548" y="99"/>
      <point x="427" y="61"/>
    </contour>
  </outline>
</glyph>
<glyph name="Izhitsa-cy" format="2">
  <advance width="662"/>
  <unicode hex="0474"/>
  <outline>
    <contour>
      <point x="207" y="0" type="curve"/>
      <point x="280" y="0" type="line"/>
      <point x="384" y="177"/>
      <point x="488" y="354"/>
      <point x="592" y="531" type="curve" smooth="yes"/>
      <point x="628" y="594"/>
      <point x="653" y="636"/>
      <point x="698" y="636" type="curve" smooth="yes"/>
      <point x="722" y="636"/>
      <point x="732" y="628"/>
      <point x="754" y="608" type="curve"/>
      <point x="799" y="660" type="line"/>
      <point x="770" y="692"/>
      <point x="730" y="703"/>
      <point x="696" y="703" type="curve" smooth="yes"/>
      <point x="610" y="703"/>
      <point x="564" y="631"/>
      <point x="521" y="552" type="curve" smooth="yes"/>
      <point x="434" y="397"/>
      <point x="348" y="243"/>
      <point x="262" y="87" type="curve"/>
      <point x="234" y="238"/>
      <point x="210" y="426"/>
      <point x="187" y="693" type="curve"/>
      <point x="109" y="693" type="line"/>
      <point x="139" y="369"/>
      <point x="169" y="192"/>
    </contour>
  </outline>
</glyph>
<glyph name="Iishorttail-cy" format="2">
  <advance width="698"/>
  <unicode hex="048A"/>
  <outline>
    <contour>
      <point x="452" y="-188" type="line"/>
      <point x="544" y="-133"/>
      <point x="613" y="-35"/>
      <point x="623" y="67" type="curve"/>
      <point x="551" y="67" type="line"/>
      <point x="702" y="693" type="line"/>
      <point x="634" y="693" type="line"/>
      <point x="478" y="554"/>
      <point x="238" y="276"/>
      <point x="133" y="139" type="curve"/>
      <point x="266" y="693" type="line"/>
      <point x="191" y="693" type="line"/>
      <point x="24" y="0" type="line"/>
      <point x="98" y="0" type="line"/>
      <point x="213" y="146"/>
      <point x="466" y="445"/>
      <point x="596" y="567" type="curve"/>
      <point x="460" y="0" type="line"/>
      <point x="527" y="0" type="line"/>
      <point x="508" y="-65"/>
      <point x="454" y="-116"/>
      <point x="407" y="-149" type="curve"/>
    </contour>
    <contour>
      <point x="463" y="761" type="curve" smooth="yes"/>
      <point x="547" y="761"/>
      <point x="597" y="804"/>
      <point x="628" y="882" type="curve"/>
      <point x="573" y="898" type="line"/>
      <point x="555" y="852"/>
      <point x="522" y="822"/>
      <point x="478" y="822" type="curve" smooth="yes"/>
      <point x="424" y="822"/>
      <point x="405" y="852"/>
      <point x="406" y="898" type="curve"/>
      <point x="345" y="882" type="line"/>
      <point x="341" y="805"/>
      <point x="388" y="761"/>
    </contour>
  </outline>
</glyph>
<glyph name="Semisoftsign-cy" format="2">
  <advance width="610"/>
  <unicode hex="048C"/>
  <outline>
    <contour>
      <point x="208" y="-6" type="curve" smooth="yes"/>
      <point x="372" y="-6"/>
      <point x="545" y="55"/>
      <point x="545" y="267" type="curve" smooth="yes"/>
      <point x="545" y="390"/>
      <point x="449" y="435"/>
      <point x="297" y="435" type="curve" smooth="yes"/>
      <point x="271" y="435"/>
      <point x="247" y="433"/>
      <point x="208" y="430" type="curve"/>
      <point x="237" y="551" type="line"/>
      <point x="372" y="551" type="line"/>
      <point x="387" y="611" type="line"/>
      <point x="251" y="611" type="line"/>
      <point x="271" y="693" type="line"/>
      <point x="193" y="693" type="line"/>
      <point x="173" y="611" type="line"/>
      <point x="95" y="611" type="line"/>
      <point x="80" y="551" type="line"/>
      <point x="159" y="551" type="line"/>
      <point x="30" y="13" type="line"/>
      <point x="74" y="1"/>
      <point x="150" y="-6"/>
    </contour>
    <contour>
      <point x="214" y="61" type="curve" smooth="yes"/>
      <point x="167" y="61"/>
      <point x="131" y="67"/>
      <point x="121" y="68" type="curve"/>
      <point x="192" y="363" type="line"/>
      <point x="206" y="364"/>
      <point x="228" y="369"/>
      <point x="292" y="369" type="curve" smooth="yes"/>
      <point x="391" y="369"/>
      <point x="466" y="350"/>
      <point x="466" y="259" type="curve" smooth="yes"/>
      <point x="466" y="98"/>
      <point x="338" y="61"/>
    </contour>
  </outline>
</glyph>
<glyph name="semisoftsign-cy" format="2">
  <advance width="513"/>
  <unicode hex="048D"/>
  <outline>
    <contour>
      <point x="203" y="-11" type="curve" smooth="yes"/>
      <point x="323" y="-11"/>
      <point x="454" y="33"/>
      <point x="454" y="193" type="curve" smooth="yes"/>
      <point x="454" y="289"/>
      <point x="395" y="327"/>
      <point x="283" y="327" type="curve" smooth="yes"/>
      <point x="251" y="327"/>
      <point x="194" y="318"/>
      <point x="170" y="312" type="curve"/>
      <point x="195" y="416" type="line"/>
      <point x="351" y="416" type="line"/>
      <point x="365" y="474" type="line"/>
      <point x="209" y="474" type="line"/>
      <point x="227" y="546" type="line"/>
      <point x="152" y="546" type="line"/>
      <point x="134" y="474" type="line"/>
      <point x="63" y="474" type="line"/>
      <point x="49" y="416" type="line"/>
      <point x="120" y="416" type="line"/>
      <point x="24" y="12" type="line"/>
      <point x="71" y="-2"/>
      <point x="134" y="-11"/>
    </contour>
    <contour>
      <point x="211" y="53" type="curve" smooth="yes"/>
      <point x="160" y="53"/>
      <point x="129" y="60"/>
      <point x="110" y="63" type="curve"/>
      <point x="156" y="250" type="line"/>
      <point x="180" y="256"/>
      <point x="226" y="264"/>
      <point x="271" y="264" type="curve" smooth="yes"/>
      <point x="351" y="264"/>
      <point x="382" y="237"/>
      <point x="382" y="183" type="curve" smooth="yes"/>
      <point x="382" y="91"/>
      <point x="306" y="53"/>
    </contour>
  </outline>
</glyph>
<glyph name="Ertick-cy" format="2">
  <advance width="585"/>
  <unicode hex="048E"/>
  <outline>
    <contour>
      <point x="24" y="0" type="line"/>
      <point x="102" y="0" type="line"/>
      <point x="166" y="264" type="line"/>
      <point x="255" y="264" type="line" smooth="yes"/>
      <point x="293" y="264"/>
      <point x="328" y="267"/>
      <point x="360" y="273" type="curve"/>
      <point x="402" y="149" type="line"/>
      <point x="467" y="181" type="line"/>
      <point x="430" y="292" type="line"/>
      <point x="537" y="333"/>
      <point x="597" y="415"/>
      <point x="597" y="522" type="curve" smooth="yes"/>
      <point x="597" y="636"/>
      <point x="520" y="699"/>
      <point x="361" y="699" type="curve" smooth="yes"/>
      <point x="302" y="699"/>
      <point x="240" y="692"/>
      <point x="187" y="680" type="curve"/>
    </contour>
    <contour>
      <point x="181" y="331" type="line"/>
      <point x="252" y="625" type="line"/>
      <point x="279" y="628"/>
      <point x="313" y="632"/>
      <point x="346" y="632" type="curve" smooth="yes"/>
      <point x="461" y="632"/>
      <point x="515" y="595"/>
      <point x="515" y="512" type="curve" smooth="yes"/>
      <point x="515" y="438"/>
      <point x="477" y="385"/>
      <point x="407" y="356" type="curve"/>
      <point x="374" y="456" type="line"/>
      <point x="310" y="424" type="line"/>
      <point x="339" y="337" type="line"/>
      <point x="316" y="333"/>
      <point x="293" y="331"/>
      <point x="266" y="331" type="curve" smooth="yes"/>
    </contour>
  </outline>
</glyph>
<glyph name="gestroke-cy" format="2">
  <advance width="410"/>
  <unicode hex="0493"/>
  <outline>
    <contour>
      <point x="180" y="-12" type="curve" smooth="yes"/>
      <point x="233" y="-12"/>
      <point x="292" y="1"/>
      <point x="331" y="18" type="curve"/>
      <point x="327" y="86" type="line"/>
      <point x="299" y="70"/>
      <point x="239" y="55"/>
      <point x="185" y="55" type="curve" smooth="yes"/>
      <point x="129" y="55"/>
      <point x="83" y="70"/>
      <point x="83" y="118" type="curve" smooth="yes"/>
      <point x="83" y="183"/>
      <point x="139" y="209"/>
      <point x="205" y="233" type="curve"/>
      <point x="328" y="176" type="line"/>
      <point x="357" y="223" type="line"/>
      <point x="277" y="260" type="line"/>
      <point x="339" y="287"/>
      <point x="394" y="323"/>
      <point x="394" y="406" type="curve" smooth="yes"/>
      <point x="394" y="495"/>
      <point x="325" y="530"/>
      <point x="244" y="530" type="curve" smooth="yes"/>
      <point x="197" y="530"/>
      <point x="147" y="519"/>
      <point x="108" y="501" type="curve"/>
      <point x="113" y="436" type="line"/>
      <point x="140" y="448"/>
      <point x="191" y="463"/>
      <point x="238" y="463" type="curve" smooth="yes"/>
      <point x="284" y="463"/>
      <point x="322" y="448"/>
      <point x="322" y="402" type="curve" smooth="yes"/>
      <point x="322" y="347"/>
      <point x="266" y="323"/>
      <point x="202" y="299" type="curve"/>
      <point x="91" y="352" type="line"/>
      <point x="62" y="304" type="line"/>
      <point x="132" y="272" type="line"/>
      <point x="67" y="242"/>
      <point x="11" y="199"/>
      <point x="11" y="109" type="curve" smooth="yes"/>
      <point x="11" y="23"/>
      <point x="84" y="-12"/>
    </contour>
  </outline>
</glyph>
<glyph name="Gemiddlehook-cy" format="2">
  <advance width="602"/>
  <unicode hex="0494"/>
  <outline>
    <contour>
      <point x="209" y="-185" type="curve" smooth="yes"/>
      <point x="423" y="-185"/>
      <point x="542" y="14"/>
      <point x="542" y="194" type="curve" smooth="yes"/>
      <point x="542" y="332"/>
      <point x="482" y="436"/>
      <point x="333" y="436" type="curve" smooth="yes"/>
      <point x="294" y="436"/>
      <point x="250" y="429"/>
      <point x="202" y="417" type="curve"/>
      <point x="253" y="628" type="line"/>
      <point x="552" y="628" type="line"/>
      <point x="567" y="693" type="line"/>
      <point x="190" y="693" type="line"/>
      <point x="24" y="0" type="line"/>
      <point x="102" y="0" type="line"/>
      <point x="185" y="347" type="line"/>
      <point x="229" y="360"/>
      <point x="270" y="368"/>
      <point x="306" y="368" type="curve" smooth="yes"/>
      <point x="412" y="368"/>
      <point x="462" y="296"/>
      <point x="462" y="186" type="curve" smooth="yes"/>
      <point x="462" y="45"/>
      <point x="367" y="-119"/>
      <point x="208" y="-119" type="curve" smooth="yes"/>
      <point x="194" y="-119"/>
      <point x="181" y="-118"/>
      <point x="167" y="-116" type="curve"/>
      <point x="149" y="-181" type="line"/>
      <point x="170" y="-184"/>
      <point x="190" y="-185"/>
    </contour>
  </outline>
</glyph>
<glyph name="gemiddlehook-cy" format="2">
  <advance width="510"/>
  <unicode hex="0495"/>
  <outline>
    <contour>
      <point x="178" y="-185" type="curve" smooth="yes"/>
      <point x="344" y="-185"/>
      <point x="444" y="-45"/>
      <point x="444" y="143" type="curve" smooth="yes"/>
      <point x="444" y="248"/>
      <point x="386" y="319"/>
      <point x="271" y="319" type="curve" smooth="yes"/>
      <point x="236" y="319"/>
      <point x="203" y="312"/>
      <point x="171" y="301" type="curve"/>
      <point x="207" y="455" type="line"/>
      <point x="430" y="455" type="line"/>
      <point x="444" y="518" type="line"/>
      <point x="148" y="518" type="line"/>
      <point x="24" y="0" type="line"/>
      <point x="98" y="0" type="line"/>
      <point x="155" y="239" type="line"/>
      <point x="178" y="245"/>
      <point x="213" y="255"/>
      <point x="248" y="255" type="curve" smooth="yes"/>
      <point x="329" y="255"/>
      <point x="373" y="210"/>
      <point x="373" y="131" type="curve" smooth="yes"/>
      <point x="373" y="-24"/>
      <point x="291" y="-123"/>
      <point x="181" y="-123" type="curve" smooth="yes"/>
      <point x="171" y="-123"/>
      <point x="161" y="-122"/>
      <point x="150" y="-120" type="curve"/>
      <point x="133" y="-181" type="line"/>
      <point x="147" y="-184"/>
      <point x="163" y="-185"/>
    </contour>
  </outline>
</glyph>
<glyph name="Zedescender-cy" format="2">
  <advance width="540"/>
  <unicode hex="0498"/>
  <outline>
    <contour>
      <point x="133" y="-191" type="curve" smooth="yes"/>
      <point x="197" y="-191"/>
      <point x="247" y="-160"/>
      <point x="247" y="-103" type="curve" smooth="yes"/>
      <point x="247" y="-72"/>
      <point x="234" y="-55"/>
      <point x="203" y="-39" type="curve"/>
      <point x="208" y="-31"/>
      <point x="214" y="-21"/>
      <point x="220" y="-13" type="curve"/>
      <point x="361" y="0"/>
      <point x="474" y="67"/>
      <point x="474" y="225" type="curve" smooth="yes"/>
      <point x="474" y="310"/>
      <point x="419" y="351"/>
      <point x="360" y="371" type="curve"/>
      <point x="434" y="393"/>
      <point x="522" y="450"/>
      <point x="522" y="553" type="curve" smooth="yes"/>
      <point x="522" y="660"/>
      <point x="444" y="708"/>
      <point x="327" y="708" type="curve" smooth="yes"/>
      <point x="264" y="708"/>
      <point x="174" y="684"/>
      <point x="149" y="666" type="curve"/>
      <point x="160" y="604" type="line"/>
      <point x="187" y="617"/>
      <point x="234" y="641"/>
      <point x="322" y="641" type="curve" smooth="yes"/>
      <point x="415" y="641"/>
      <point x="442" y="601"/>
      <point x="442" y="549" type="curve" smooth="yes"/>
      <point x="442" y="452"/>
      <point x="338" y="400"/>
      <point x="237" y="400" type="curve" smooth="yes"/>
      <point x="180" y="400" type="line"/>
      <point x="164" y="334" type="line"/>
      <point x="214" y="334" type="line" smooth="yes"/>
      <point x="310" y="334"/>
      <point x="393" y="313"/>
      <point x="393" y="220" type="curve" smooth="yes"/>
      <point x="393" y="98"/>
      <point x="295" y="53"/>
      <point x="174" y="53" type="curve" smooth="yes"/>
      <point x="94" y="53"/>
      <point x="39" y="83"/>
      <point x="18" y="98" type="curve"/>
      <point x="-20" y="31" type="line"/>
      <point x="0" y="17"/>
      <point x="64" y="-14"/>
      <point x="165" y="-15" type="curve"/>
      <point x="153" y="-32"/>
      <point x="140" y="-52"/>
      <point x="132" y="-66" type="curve"/>
      <point x="170" y="-81"/>
      <point x="180" y="-90"/>
      <point x="180" y="-110" type="curve" smooth="yes"/>
      <point x="180" y="-131"/>
      <point x="161" y="-140"/>
      <point x="130" y="-140" type="curve" smooth="yes"/>
      <point x="113" y="-140"/>
      <point x="95" y="-136"/>
      <point x="80" y="-130" type="curve"/>
      <point x="60" y="-178" type="line"/>
      <point x="86" y="-188"/>
      <point x="109" y="-191"/>
    </contour>
  </outline>
</glyph>
